<?xml version="1.0" encoding="UTF-8" standalone="no"?>
<svg
   xmlns:svg="http://www.w3.org/2000/svg"
   xmlns="http://www.w3.org/2000/svg"
   version="1.1"
   width="256"
   height="170">
	<path d="m 48.202113,161.51313 c -16.900974,-2.83728 -31.985689,-15.64246 -37.594179,-31.9131 -9.0634567,-26.29376 6.322041,-54.976747 33.36879,-62.209003 6.230256,-1.665954 18.773597,-1.614548 24.455048,0.100227 2.511055,0.757889 4.642588,1.287573 4.736741,1.177087 0.09416,-0.110486 2.593143,-5.060347 5.553282,-10.999688 l 5.382093,-10.798804 -4.372486,-8.827473 c -3.048415,-6.154364 -4.770082,-8.674461 -5.685479,-8.322181 -4.759566,1.831657 -9.084582,2.482823 -10.707016,1.612027 -3.912952,-2.100161 -3.243114,-12.201071 0.885803,-13.35745 2.870531,-0.803944 34.407208,-1.002691 37.26422,-0.234841 1.43346,0.385255 2.1127,1.281596 2.1127,2.787971 0,3.033408 -4.478832,5.217435 -11.929502,5.817221 -3.25106,0.261713 -5.91102,0.852157 -5.91102,1.312095 0,0.45994 1.4842,3.791938 3.29821,7.404442 l 3.29822,6.568185 41.303082,0 c 22.71671,0 41.30983,-0.317814 41.31808,-0.706253 0.008,-0.388439 -0.69913,-4.837832 -1.57192,-9.887541 l -1.5869,-9.181288 -9.16517,0 c -5.04084,0 -10.35466,-0.450711 -11.80847,-1.001578 -7.03821,-2.666854 -10.34717,-10.120119 -5.48027,-12.3439947 1.9883,-0.90853 2.8507,-0.699787 5.91906,1.432695 3.38069,2.3495387 4.23069,2.4961707 14.47013,2.4961707 14.40628,0 14.25785,-0.129244 16.73727,14.573757 1.84268,10.92706 5.53656,28.349457 7.54158,35.570203 l 0.98055,3.531265 8.17189,0.0112 c 4.49454,0.0066 10.28458,0.576105 12.86677,1.266573 22.30079,5.963195 37.50804,27.009648 35.81888,49.572476 -0.91192,12.18096 -4.76312,20.94635 -13.12438,29.8713 -25.72804,27.46256 -71.3094,15.6937 -81.04531,-20.92544 -1.87792,-7.06334 -1.609,-18.96013 0.59,-26.100078 3.49828,-11.358642 12.82238,-22.762528 22.97034,-28.093997 4.80753,-2.525741 4.77835,-2.378664 2.30167,-11.602732 l -1.00665,-3.749152 -2.20127,2.756179 c -1.21069,1.515863 -13.111,15.468701 -26.44512,31.006259 l -24.24384,28.250131 -10.88993,0.26406 -10.88992,0.26408 -1.19497,5.38595 c -3.943642,17.7748 -18.178682,32.25841 -35.798497,36.42363 -5.684493,1.34378 -13.46687,1.67661 -18.69211,0.79941 z m 15.212121,-9.81018 c 14.723782,-3.08936 26.547374,-14.93344 30.214144,-30.26652 l 0.61927,-2.5896 -19.736351,0 c -18.484398,0 -19.855489,-0.11946 -21.614308,-1.88333 -1.032873,-1.03585 -1.877947,-2.30414 -1.877947,-2.81845 0,-0.5143 3.897901,-8.76689 8.662021,-18.339058 7.01923,-14.103196 8.435042,-17.631648 7.465198,-18.604569 -0.817377,-0.81995 -4.233558,-1.192322 -10.77473,-1.174488 -12.168448,0.03324 -18.093506,2.191447 -25.890566,9.430871 -16.629397,15.440104 -17.325806,39.797794 -1.589076,55.579714 9.391385,9.41832 21.959907,13.30129 34.522345,10.66543 z M 213.8161,149.88427 c 9.77398,-3.66741 18.45086,-12.3095 22.05292,-21.96447 5.72403,-15.34276 1.88771,-31.127308 -10.32004,-42.461994 -6.88895,-6.396264 -13.58583,-9.088178 -24.16087,-9.711842 l -7.84818,-0.462859 0.69409,3.169254 c 0.38175,1.743087 2.98179,10.530736 5.77787,19.528113 4.78776,15.406348 4.99803,16.490098 3.61128,18.612618 -1.67076,2.55723 -4.38793,2.91867 -6.44357,0.85712 -1.35529,-1.35919 -5.48733,-13.19441 -10.44385,-29.91393 -1.34346,-4.531786 -2.77917,-8.239623 -3.19046,-8.239623 -1.77136,0 -9.82792,6.180085 -12.80256,9.820672 -1.78191,2.180816 -4.40769,6.478053 -5.83505,9.549383 -2.29459,4.937378 -2.59364,6.675018 -2.58162,15.000928 0.0173,11.97597 2.20356,17.99021 9.35623,25.73813 11.23371,12.16858 27.1081,16.11647 42.13381,10.4785 z M 93.612698,106.3697 C 92.232778,98.722222 85.784748,88.045061 80.090672,83.978892 l -2.723876,-1.945145 -6.601055,13.214805 c -3.630578,7.268148 -6.601055,13.432328 -6.601055,13.698188 0,0.26587 6.750058,0.48339 15.00012,0.48339 l 15.000132,0 -0.55224,-3.06043 z m 21.206042,1.88334 c -0.0278,-0.64739 -5.67757,-12.399908 -12.55501,-26.116687 l -12.504432,-24.939591 -3.87784,7.734802 -3.877856,7.734795 6.885236,6.846412 c 7.66117,7.617974 12.091452,15.365341 13.951742,24.397789 l 1.13678,5.51957 5.44598,0 c 3.75778,0 5.43031,-0.36489 5.3954,-1.17709 z m 32.91841,-30.372803 22.51563,-26.362855 -35.81821,-0.246745 c -19.70001,-0.135711 -36.054042,-0.01026 -36.342252,0.278797 -0.71242,0.714464 25.485692,53.243076 26.401722,52.936856 0.4001,-0.13374 10.8595,-12.10648 23.24311,-26.606053 z" style="fill:#000000"/>
</svg>
