<?xml version="1.0" encoding="UTF-8" standalone="no"?>
<svg
   xmlns:svg="http://www.w3.org/2000/svg"
   xmlns="http://www.w3.org/2000/svg"
   version="1.1"
   width="256.00018"
   height="256">
	<path d="m 35.254104,246.25445 c -6.161072,-3.14645 -8.441438,-8.62 -8.481762,-20.35878 -0.01657,-4.82226 -0.569433,-7.62268 -2.131738,-10.7978 -2.082402,-4.23212 -2.113017,-4.8467 -2.394362,-48.06596 l -0.284989,-43.77903 -4.372092,-0.49356 c -3.355375,-0.37877 -4.978698,-1.1735 -6.980626,-3.41749 L 8,116.41789 8.0035,94.602362 C 8.0067,74.651539 8.162804,72.53092 9.829731,69.792897 c 1.744545,-2.865517 6.214423,-4.967844 10.592124,-4.981816 1.463244,-0.0047 1.643752,-1.147279 1.669569,-10.568307 0.05914,-21.581349 2.591388,-30.68747 10.51866,-37.82572 3.40178,-3.063194 6.48239,-4.774844 11.35704,-6.310207 L 50.656194,8 130.34359,8 c 75.91635,0 79.90494,0.08403 84.28451,1.775879 8.88016,3.43043 15.04936,11.2729 17.32809,22.027993 0.58558,2.763795 1.33673,11.319882 1.66922,19.013527 0.51506,11.917903 0.82571,13.989219 2.09879,13.993682 4.24005,0.01485 8.72367,2.153201 10.44575,4.981816 1.66693,2.738023 1.82303,4.858642 1.82623,24.809465 l 0.004,21.815528 -2.60853,2.92394 c -2.00193,2.24399 -3.62525,3.03872 -6.98063,3.41749 l -4.37209,0.49356 -0.28499,43.77903 c -0.27719,42.5806 -0.34025,43.89469 -2.30374,48.00425 -1.48924,3.11694 -2.13008,6.6046 -2.44312,13.29637 -0.46426,9.92371 -1.87587,13.5752 -6.61875,17.12102 -2.34402,1.75241 -4.15933,2.01018 -16.04154,2.2779 -10.19811,0.22975 -14.18378,-0.0267 -16.68639,-1.07406 -4.70567,-1.96917 -8.16968,-6.95291 -8.8538,-12.73814 l -0.56774,-4.799 -52.23877,0 -52.238756,0 -0.5675,4.799 c -0.67633,5.71928 -4.1379,10.76469 -8.69338,12.67102 -4.88666,2.0449 -27.05081,1.80669 -31.2461,-0.33582 z m 28.11996,-8.71677 c 1.32473,-0.71007 1.81336,-1.97512 1.81336,-4.6947 0,-3.56717 -0.12731,-3.72413 -3.04687,-3.75622 -4.80044,-0.0528 -20.63901,-1.69458 -22.96872,-2.38092 -1.99075,-0.58648 -2.10937,-0.35503 -2.10937,4.11572 0,7.17537 0.91515,7.68809 13.72233,7.68809 5.92675,0 11.59192,-0.43738 12.58927,-0.97197 z m 154.089956,-0.50351 c 0.94995,-0.95141 1.47322,-3.15804 1.47322,-6.21261 0,-4.47075 -0.11863,-4.7022 -2.10938,-4.11572 -2.32971,0.68634 -18.16827,2.32814 -22.96872,2.38092 -2.91765,0.0322 -3.04687,0.19079 -3.04687,3.7426 0,2.54193 0.51627,4.01026 1.64062,4.66614 0.90235,0.52638 6.56752,0.9699 12.58927,0.98559 8.73069,0.0228 11.24709,-0.27034 12.42186,-1.44692 z m -3.45479,-19.6661 c 3.04558,-0.90584 5.66558,-2.46928 7.20139,-4.29728 l 2.41411,-2.87341 0,-86.11313 c 0,-74.000418 -0.20034,-86.883452 -1.42429,-91.589707 -1.79293,-6.894128 -4.2421,-10.358015 -9.20152,-13.013791 l -3.90542,-2.091357 -78.28115,0 c -71.602816,0 -78.728436,0.138749 -83.524036,1.62636 -6.48847,2.012742 -9.67215,4.458175 -12.36138,9.494934 l -2.08322,3.90174 -0.25282,88.870521 -0.25282,88.87052 2.441,2.90541 c 4.78929,5.7005 3.07353,5.59573 92.816246,5.66764 70.35338,0.0564 82.28778,-0.13125 86.41391,-1.35845 z M 54.339754,207.21955 c -17.0108,-8.1208 -16.60761,-31.65488 0.66986,-39.09887 9.78457,-4.21568 20.75387,-0.56479 26.55926,8.83962 2.4143,3.91104 2.83728,5.52804 2.83728,10.84661 0,5.31857 -0.42298,6.93558 -2.83728,10.84661 -5.92759,9.6024 -17.45917,13.23013 -27.22912,8.56603 z m 14.31235,-9.04299 c 6.08953,-3.71871 8.1679,-11.00421 4.66619,-16.35671 -2.10094,-3.21137 -6.93685,-6.21105 -10.02049,-6.21564 -5.77336,-0.008 -12.17286,6.40659 -12.17286,12.2027 0,5.79611 6.3995,12.2113 12.17286,12.2027 1.2971,-0.002 3.70654,-0.8268 5.3543,-1.83305 z m 114.532856,8.60938 c -8.49254,-4.41872 -13.14104,-13.54853 -11.58748,-22.75815 0.99809,-5.91666 5.76594,-12.17091 11.58748,-15.19991 6.35396,-3.306 11.95558,-3.42158 18.47498,-0.38117 16.71692,7.79613 16.71692,30.92427 0,38.72042 -6.5194,3.0404 -12.12102,2.92482 -18.47498,-0.38119 z m 15.0695,-8.48851 c 3.5209,-1.89118 6.62029,-6.80247 6.62029,-10.49052 0,-5.79611 -6.39949,-12.2113 -12.17286,-12.2027 -3.08364,0.005 -7.91955,3.00427 -10.02049,6.21564 -3.50171,5.3525 -1.42333,12.638 4.66619,16.35671 3.74466,2.28677 6.81124,2.32076 10.90687,0.12087 z M 56.168424,151.20528 c -4.15467,-0.62422 -8.26411,-2.92204 -10.81819,-6.04907 -3.36212,-4.1163 -3.70822,-8.54705 -3.41608,-43.73173 0.27757,-33.42991 0.3352,-34.352845 2.3476,-37.59334 1.13468,-1.82713 3.87687,-4.362266 6.09375,-5.633637 l 4.03069,-2.311585 73.593656,0 73.59366,0 4.03069,2.311585 c 2.21687,1.271371 4.95906,3.806507 6.09374,5.633637 2.03153,3.271295 2.06305,3.868247 2.06305,39.06974 l 0,35.74769 -2.53032,3.83001 c -1.71571,2.59702 -4.13021,4.58921 -7.49999,6.18823 l -4.96967,2.35822 -69.37491,0.38029 c -38.156206,0.20917 -71.113156,0.11915 -73.237676,-0.20004 z m 146.005436,-12.98084 2.76976,-3.10496 -0.26881,-32.78445 c -0.26808,-32.696315 -0.27454,-32.790188 -2.40422,-34.922078 l -2.13542,-2.137639 -72.13532,0 -72.135326,0 -2.13542,2.138697 -2.13541,2.138696 0,34.328164 0,34.32817 2.23428,1.81199 c 2.16987,1.75975 4.3005,1.80473 73.905206,1.56018 l 71.6709,-0.2518 2.76978,-3.10497 z M 75.289104,49.25813 c -3.78556,-2.057506 -4.47668,-4.121565 -4.47668,-13.369649 0,-7.767475 0.17847,-8.562898 2.42656,-10.814438 1.48961,-1.491897 3.93305,-2.648821 6.32812,-2.996245 2.14585,-0.311274 26.471836,-0.437197 54.057736,-0.279829 53.37643,0.304495 52.4195,0.220832 55.29632,4.83443 1.72969,2.773928 2.32928,12.872594 1.00322,16.896786 -0.61756,1.874094 -2.20388,4.259096 -3.52515,5.300004 -2.3456,1.847888 -3.65517,1.891674 -55.47894,1.854968 C 85.907604,50.652277 77.455544,50.435618 75.289104,49.25813 z m 105.210676,-12.620473 0,-4.694698 -50.15618,0 -50.156196,0 0,4.694698 0,4.694698 50.156196,0 50.15618,0 0,-4.694698 z M 22.062482,94.38244 l 0,-19.248261 -2.343747,0 -2.343747,0 0,19.248261 0,19.24826 2.343747,0 2.343747,0 0,-19.24826 z m 216.562228,0 0,-19.248261 -2.34375,0 -2.34374,0 0,19.248261 0,19.24826 2.34374,0 2.34375,0 0,-19.24826 z" style="fill:#000000"/>
</svg>
