<?xml version="1.0" encoding="UTF-8" standalone="no"?>
<svg
   xmlns:svg="http://www.w3.org/2000/svg"
   xmlns="http://www.w3.org/2000/svg"
   version="1.1"
   width="256"
   height="150">
	<path d="M 52.32078,140.83189 C 43.58247,137.96752 35.39178,129.64871 33.165,121.37647 l -0.93713,-3.48133 -8.41661,-0.32753 c -8.30965,-0.32336 -8.4615,-0.37243 -11.94892,-3.86029 l -3.5323001,-3.53278 -0.27944,-23.880993 c -0.17169,-14.6723 0.10083,-25.29364 0.70671,-27.54444 C 11.0225,50.334207 17.23332,46.452375 28.49796,46.411 41.83209,46.36202 45.11015,44.038346 54.3324,28.098053 61.014734,16.547893 64.22209,12.361612 68.339048,9.8163908 c 3.124198,-1.931466 3.955951,-1.964374 42.879762,-1.696544 l 39.69375,0.273127 4.22119,2.5572902 c 5.45391,3.304093 8.45796,6.157598 16.10645,15.299281 3.44135,4.113192 8.94732,10.124603 12.23549,13.35869 5.97638,5.878092 5.98235,5.881138 16.97343,8.657842 19.03109,4.80788 34.19133,10.82255 41.67982,16.53611 5.44728,4.15614 5.87106,5.95073 5.87106,24.86249 0,16.472053 -0.0835,17.231313 -2.31312,21.037093 -3.05404,5.21296 -6.99285,7.00748 -15.3808,7.00748 l -6.62288,0 -0.96215,3.57428 c -1.50832,5.60322 -6.46487,12.26155 -11.6857,15.69784 -16.99706,11.18728 -37.55753,2.96161 -44.0671,-17.63003 -0.48329,-1.5288 -3.17643,-1.64209 -39.03774,-1.64209 -35.861304,0 -38.554453,0.11329 -39.037742,1.64209 -4.257449,13.46753 -14.096505,21.7519 -26.625259,22.41815 -3.487062,0.18544 -7.745209,-0.21595 -9.946729,-0.9376 z m 14.05909,-9.26325 c 7.000473,-2.09235 13.726447,-11.01965 13.705219,-18.19077 -0.01942,-6.56185 -4.911902,-14.015253 -11.359605,-17.305653 -11.210251,-5.72084 -25.661664,2.35465 -26.878234,15.019623 -0.84534,8.80047 4.46827,17.36569 12.56393,20.25228 4.572531,1.63039 7.106007,1.67791 11.96869,0.22452 z m 134.08085,0.148 c 4.85726,-1.34922 10.5065,-6.66912 12.42884,-11.70426 4.71403,-12.34741 -4.45291,-25.761563 -17.60487,-25.761563 -10.09904,0 -19.47938,9.196793 -19.50876,19.127053 -0.0123,4.15858 2.53987,9.7305 6.08277,13.27992 5.4378,5.4478 11.38202,7.06434 18.60202,5.05885 z M 33.25944,104.80712 C 37.19345,92.819877 46.8382,85.608587 59.742654,85.005867 c 6.702832,-0.31306 7.840959,-0.0878 13.407465,2.65341 7.079973,3.48656 12.951155,10.1176 14.678599,16.578323 l 1.093101,4.08828 39.008691,0 39.00869,0 1.0931,-4.08828 c 1.72745,-6.460723 7.59863,-13.091763 14.6786,-16.578323 5.56651,-2.74124 6.70463,-2.96647 13.40747,-2.65341 12.90445,0.60272 22.5492,7.81401 26.48321,19.801253 l 1.15479,3.51876 5.97135,0 c 8.65394,0 8.89185,-0.50588 8.89185,-18.907223 l 0,-14.73629 -3.5004,-2.88623 c -4.1898,-3.45466 -12.70991,-7.10287 -27.92404,-11.95674 l -11.25651,-3.59123 -86.45485,-0.25807 -86.45486,-0.25806 -2.65922,2.28655 -2.65922,2.28656 -0.28243,22.68355 c -0.20354,16.34819 0.025,23.054113 0.81839,24.010363 0.75127,0.9055 3.12633,1.32682 7.47951,1.32682 l 6.3787,0 1.1548,-3.51876 z m 75.91021,-72.955718 0,-14.544226 -17.638796,0 -17.638808,0 -2.902427,3.049596 c -2.237364,2.350811 -14.32504,21.407457 -16.070109,25.335101 -0.17198,0.387064 11.963948,0.703753 26.968732,0.703753 l 27.281408,0 0,-14.544224 z m 56.04166,2.111258 C 151.16741,17.525082 150.73842,17.307176 132.42196,17.307176 l -13.87188,0 0,14.544226 0,14.544224 28.64184,0 28.64184,0 -10.62245,-12.432966 z" style="fill:#000000"/>
</svg>
