<?xml version="1.0" encoding="utf-8"?>
<!-- Generator: Adobe Illustrator 18.1.1, SVG Export Plug-In . SVG Version: 6.00 Build 0)  -->
<svg version="1.1" id="Layer_1" xmlns:svg="http://www.w3.org/2000/svg"
	 xmlns="http://www.w3.org/2000/svg" xmlns:xlink="http://www.w3.org/1999/xlink" x="0px" y="0px" viewBox="0 128.9 595.3 651"
	 enable-background="new 0 128.9 595.3 651" xml:space="preserve">
<path d="M571.3,289.2L400.4,460.3l170.9,170.2c7.2,7.2,7.2,18.6,0,25.8l-77.7,77.2c-7.2,7.2-18.6,7.2-25.8,0l-170.7-170l-169.7,170
	c-7.2,7.2-18.8,7.2-25.8,0L24,656.3c-7.2-7.2-7.2-18.6,0-25.8l169.7-170L24,291.7c-7.2-7.2-7.2-18.6,0-25.8l77.7-77.2
	c7.2-7.2,18.8-7.2,25.8,0l169.3,168.6l170.9-171.1c7.2-7.2,18.8-7.2,25.8,0l77.7,77.2C578.5,270.6,578.5,282,571.3,289.2
	L571.3,289.2z"/>
</svg>
