<?xml version="1.0" encoding="utf-8"?>
<!-- Generator: Adobe Illustrator 18.1.1, SVG Export Plug-In . SVG Version: 6.00 Build 0)  -->
<svg version="1.1" id="Layer_1" xmlns:svg="http://www.w3.org/2000/svg"
	 xmlns="http://www.w3.org/2000/svg" xmlns:xlink="http://www.w3.org/1999/xlink" x="0px" y="0px" viewBox="-169 292.9 256 256"
	 enable-background="new -169 292.9 256 256" xml:space="preserve">
<path d="M76.7,347.5L3.2,421.1l73.5,73.2c3.1,3.1,3.1,8,0,11.1l-33.4,33.2c-3.1,3.1-8,3.1-11.1,0l-73.4-73.1l-73,73.1
	c-3.1,3.1-8.1,3.1-11.1,0l-33.4-33.2c-3.1-3.1-3.1-8,0-11.1l73-73.1l-73-72.6c-3.1-3.1-3.1-8,0-11.1l33.4-33.2
	c3.1-3.1,8.1-3.1,11.1,0l72.8,72.5l73.5-73.6c3.1-3.1,8.1-3.1,11.1,0l33.4,33.2C79.8,339.5,79.8,344.4,76.7,347.5L76.7,347.5z"/>
</svg>
