<?xml version="1.0" encoding="utf-8"?>
<!-- Generator: Adobe Illustrator 18.1.1, SVG Export Plug-In . SVG Version: 6.00 Build 0)  -->
<svg version="1.1"
	 id="svg2" inkscape:export-filename="C:\joanna\Gfx\drawings_vector\admin\thumbs\ryanlerch_Warning_Cows_Roadsign.png" sodipodi:version="0.32" inkscape:export-xdpi="25.420139" inkscape:output_extension="org.inkscape.output.svg.inkscape" inkscape:export-ydpi="25.420139" inkscape:version="0.46dev+devel" sodipodi:docname="ryanlerch_Warning_Cows_Roadsign_frag.svg" xmlns:inkscape="http://www.inkscape.org/namespaces/inkscape" xmlns:rdf="http://www.w3.org/1999/02/22-rdf-syntax-ns#" xmlns:cc="http://creativecommons.org/ns#" xmlns:dc="http://purl.org/dc/elements/1.1/" xmlns:sodipodi="http://sodipodi.sourceforge.net/DTD/sodipodi-0.dtd" xmlns:svg="http://www.w3.org/2000/svg" xmlns:ns1="http://sozi.baierouge.fr"
	 xmlns="http://www.w3.org/2000/svg" xmlns:xlink="http://www.w3.org/1999/xlink" x="0px" y="0px" viewBox="0 73.1 595.3 395.6"
	 enable-background="new 0 73.1 595.3 395.6" xml:space="preserve">
<sodipodi:namedview  inkscape:window-y="116" inkscape:window-x="88" inkscape:window-height="643" inkscape:pageshadow="2" inkscape:window-width="783" inkscape:pageopacity="0.0" inkscape:current-layer="svg2" id="base" bordercolor="#666666" guidetolerance="10.0" pagecolor="#ffffff" gridtolerance="10.0" inkscape:zoom="2.4201011" objecttolerance="10.0" borderopacity="1.0" inkscape:cx="103.49376" inkscape:cy="69.552002" showgrid="false">
	</sodipodi:namedview>
<image overflow="visible" enable-background="new    " width="1300" height="864" xlink:href="../../Downloads/cut fence.jpg"  transform="matrix(0.4579 0 0 0.4579 0 73.0907)">
</image>
<path id="path12" d="M530.6,393.9c-0.2-0.9-0.2-1.9-0.1-2.8v-1.7v-1.7c-0.1-1.1,0-2.1,0.2-3.2c0.5-2.9,0.9-5.5,1.1-8.3
	c0.2-2,0.3-3.9,0.4-5.9l0.2-3l0.5-4.2l0.5-5.4c0.1-0.4,0.1-0.7,0.1-1c0-0.4,0-0.7-0.1-1l-0.5-5.2c0.5,2.4,1.1,4.8,1.4,7.2l1.4,8.7
	l0.1,1.2l0.3,2.5l0.2,1.9v2.9l-0.1,2.5l0.3,4.3l0.3,5.4l0.3,4l-0.1,6.8l-0.2,2.4l-0.2,2.1l-0.5,2.7c0,0.5,0.1,1.2,0.1,1.7
	c0,0.7-0.1,1.5-0.1,2.3v0.3c0,0.5,0.1,1.1,0.2,1.5c0.4,1,0.5,2,0.6,3c0.2,1.1,0.3,2.1,0.5,3.2s0.5,2.1,0.5,3.3l0.1,2.2
	c0,0.5,0.3,0.9,0.6,1.1c0.5,0.4,1.3,0.6,2,0.6c0.1,0,0.2,0.1,0.3,0.1c0.5,0,1-0.2,1.4-0.4c0.9-0.3,1.4-1.1,1.4-2v-4.4
	c0-2-0.2-3.9-0.5-5.9c-0.3-1.6-0.3-3.3-0.1-5c0.1-0.5,0.2-1,0.4-1.5c0.1-0.5,0.1-1.1,0.1-1.7c0-0.5-0.1-0.9-0.4-1.2
	c-0.5-0.7-0.9-1.4-1.2-2.1c-0.5-1-0.8-2-1.1-3c-0.3-0.8-0.5-1.7-0.4-2.6c0.1-1.4,0.1-2.9,0.1-4.3v-0.1c0-1.9,0.2-3.8,0.5-5.6
	c0.3-1.6,0.5-3.3,0.5-5v-11.2l0.2-14.3l-0.2-6.3c-0.1-1.1-0.1-2.1-0.2-3.2c-0.1-3.5-0.7-6.8-1.9-10c-1.2-3.1-2.8-5.9-5-8.4
	c-2-2.2-4.3-4.3-6.8-6.1c-1.6-1.2-3.3-2.1-5.1-2.9c-2.6-1.1-5.4-2-8.1-2.8c-1.9-0.5-3.8-0.8-5.7-0.9c-1.4-0.1-3-0.1-4.6-0.2H502
	c-2.7,0-5.3,0.2-7.8,0.6c-1.3,0.3-2.4,0.5-3.7,0.6c-1.8,0.3-3.5,0.5-5.2,0.6c-4.2,0.5-8.5,0.8-12.7,1.1c-7.5,0.4-15.7,1.1-24,1.9
	c-3.5,0.5-6.3,0.7-9.2,0.9c-0.7,0.1-2,0.2-3.1,0.3c-1.4,0.1-2.3,0.1-3.3-0.1c-0.8-0.1-1.6-0.2-2.5-0.3c-3-0.5-6-0.6-8.9-0.6
	c-7.8,0-15.8-0.5-23.6-1.7c-8.7-1.3-17.1-2-25.8-2h-0.8c-2.2,0-4.4,0-6.6,0.2c-2.3,0.2-4.8,0.5-7.3,0.7c-2.2,0.3-4.6,0.5-7.1,0.6
	c-3.1,0.3-6,0.4-8.8,0.3c-2-0.1-4.1-0.3-6.3-0.5c-2.3-0.2-4.6-0.6-6.9-1.3c-2.8-0.7-5.5-1.6-8.2-2.8c-1.1-0.4-2-0.9-3-1.4l-1.6-1
	l0.7-1.7c0.3-0.3,0.4-0.6,0.4-1.1v-0.3c-0.2-0.7-0.5-1.3-1.3-1.5c-0.8-0.3-1.7-0.6-2.7-0.9c-0.6-0.3-1.4-0.5-2-0.8
	c-0.9-0.5-1.9-0.8-2.9-1c-1-0.2-1.9-0.7-2.5-1.5l-3.7-4.4c-0.2-0.2-0.4-0.3-0.5-0.4h-0.3c-0.3,0-0.5,0.2-0.6,0.5
	c-0.1,0.3-0.1,0.5-0.1,0.8c0,0.3,0,0.5,0.1,0.7l0.5,1.1l0.9,2.4l1.1,2.9h-0.1c-1.5,0.1-2.9,0.5-4.1,1.1c-0.6,0.4-1.6,0.9-2.5,1.4
	c-1.3,0.6-2,1.3-2.6,2c-0.3,0.3-0.5,0.5-0.9,0.7c-0.5,0.3-1,0.4-1.5,0.2c-0.8-0.2-1.6-0.7-2.1-1.4l-4-5.1c-0.3-0.3-0.5-0.5-0.9-0.5
	c-0.1-0.1-0.2-0.1-0.2-0.1c-0.4,0-0.6,0.2-0.8,0.5c-0.2,0.4-0.3,0.7-0.3,1.1c0,0.2,0,0.5,0.1,0.7l0.6,1.4l1.2,2.9l0.9,1.8l1,1.4
	l0.7,1.1l1.5,2.6c0.1,0.2,0.2,0.4,0.2,0.5c0,0.3-0.1,0.5-0.3,0.6c-0.6,0.8-1.4,1.6-2.1,2.4c-0.6,0.6-1.4,1.1-2.2,1.3
	c-1,0.3-1.8,1.1-2,2c-0.3,0.9-0.5,1.9-0.6,2.8c-0.2,1.5-0.9,2.9-1.9,3.9c-0.8,0.7-1.4,1.5-2,2.4c-0.9,1.4-1.8,2.7-2.9,3.9
	c-0.8,1-1.4,2.1-2,3.2c-0.5,1.4-1.3,2.6-2.2,3.6l-5.6,6.1c-0.1,0.5-0.2,0.9-0.2,1.4c0,0.4,0,0.6,0.1,0.9c0.2,1.3,0.5,2.5,0.9,3.7
	c0.4,1,0.9,1.8,1.5,2.6c0.6,0.7,1.3,1.4,2,2s1.8,1.2,2.8,1.5c0.5,0.1,0.9,0.2,1.4,0.2c0.7,0,1.4-0.2,2-0.5c0.6-0.4,1.3-0.5,2-0.7
	c1-0.3,2-0.3,3.1-0.1c1.5,0.3,2.9,0.5,4.1,0.8c-0.5-0.1,0.3-0.1,1-0.1c0.7,0,1.5-0.1,2.3-0.2c1.4-0.4,2.7-0.6,3.9-0.8
	c0.7-0.2,1.9-0.5,2.9-1c0.8-0.4,1.7-0.4,2.6-0.1c1,0.4,2,0.8,2.9,1.4c2.2,1.3,4.6,2,7.1,2.5c0.9,0.2,1.8,0.4,2.6,0.5
	c1.2,0.2,2.6,0.4,3.9,0.4c1,0.1,2,0.3,2.9,0.7c1.8,0.9,3.4,2.2,4.5,3.9c1.5,2.2,2.9,4.5,4,7c0.9,1.9,2,3.8,3,5.7
	c0.8,1.4,1.5,2.9,2.1,4.5c0.9,2.2,1.8,4.2,2.8,6.3c0.6,1.4,1.3,2.9,1.8,4.4c0.2,0.5,0.5,0.9,0.7,1.3c2.5,3.4,5.9,5.9,9.8,7.1
	l2.4,0.8l-2.5,2.2l-5.1,4.5l-2.7,2.6l-2.1,2.3c-0.6,1-1.3,2-2,3c-0.6,1-1.2,1.8-1.5,2.7c-0.4,0.8-0.5,1.6-0.5,2.5
	c0,0.4,0.1,0.7,0.1,1.1c0.3,1.4,0.8,2.6,1.4,3.8l1.4,2.2l1.6,2.1l4.8,4.5l2.1,2.1l2,2l1.1,1.4l3.2,4l5.6,6l2.9,2.8l2.3,1.8l1.9,1.3
	l1.4,0.6l0.7,0.1c0.8,2,2.1,3.9,3.8,5.4c0.6,0.6,1.4,1.1,2.3,1.3c0.8,0.2,1.5,0.4,2.3,0.5h0.5c0.4,0,0.6,0,1-0.1l0.5-0.2l-4.2-14.4
	c-0.2-0.5-0.5-1-1.2-1.1l-3.8-0.9c-0.4-0.2-0.5-0.5-0.5-0.8c0.3-0.8,0.5-1.6,0.8-2.4c0.1-0.2,0.2-0.5,0.2-0.8c0-0.8-0.5-1.5-1.2-1.9
	c-0.6-0.4-1.4-0.6-2-0.9c-1-0.2-1.9-0.7-2.7-1.3c-1.1-0.8-2.1-1.6-3.2-2.5c-1.4-1.2-2.7-2.7-3.6-4.3c-0.8-1.5-1.6-3-2.5-4.4
	c-0.8-1.4-1.2-2.7-1.4-4c-0.2-1.4,0.2-2.9,1.1-4.1c0.9-1.3,2.1-2.3,3.5-2.9c1.7-0.8,3.4-1.6,5.1-2.4c1.5-0.7,3-1.4,4.6-2
	c1.5-0.5,2.9-1.4,4.2-2.2c0.9-0.7,1.8-1.3,2.8-1.8c2-1.3,3.5-2.9,4.6-4.9l0.5-1l2.2,4.5l0.9,2l0.7,1.5l1.4,2l1.8,2.6l2.7,3.8
	l2.2,3.6l2.4,3.9l1.2,1.9l3.4,6l1.4,2.6l1.7,3.4l0.9,2l0.6,1.9c0.5,1,0.7,2,0.9,3c0.1,0.8,0.3,1.6,0.5,2.5c0,0.4,0.1,0.7,0.1,1.1
	c0,1.3-0.5,2.4-1.4,3.3l-2.9,3.2l-0.5,0.7c-2.8,0.7-4.8,3-5.3,5.9l-0.1,0.6h15.2c1.3-1.4,2-3,2-4.8c0-1.1-0.3-2.1-0.7-3.1l-0.5-0.8
	c-0.1-0.4,0.1-0.6,0.4-0.6h1.8c1.2-0.2,1.9-1.2,1.9-2.2c0-0.2,0-0.3-0.1-0.5l-0.7-3.6l-1.3-4.4l-1.4-5.3l-1.4-4.9l-0.9-3.6l-0.8-3.3
	l-0.5-2.1l-0.5-2.1l-0.4-2l-0.5-2l-0.4-1.5l-1-3.8c-0.5-1.7-1.2-3.5-1.6-5.2c-0.7-2.6-1.7-5.2-2.9-7.5l-0.8-1.5l6.9-0.2h1.5
	c2,0,4.1,0,6.2-0.2c3.3-0.2,6.8,0.1,10.2,0.9c4.8,1,9.6,1.5,14.6,1.6c0.5,0.1,1,0.1,1.5,0.1c5.4,0,10.6-0.5,15.8-1.6
	c3.7-0.7,6.3-1.3,9-1.8l0.5-0.1c2,1.6,4.1,3,6.4,4.1l0.3,0.2l-1.3,7c0.1,1.4,1.3,2.6,2.7,2.6c1.2,0,2.2-0.6,2.6-1.7l2.2-5.9l3.3,0.7
	l-0.8,5.8v0.5c0,0.5,0.1,1.1,0.4,1.5c0.5,0.7,1.1,1.1,1.9,1.2h0.4c0.5,0,1.1-0.1,1.6-0.2c0.7-0.2,1.4-0.7,1.4-1.5l1.3-6.5l3,0.2
	c0.2,1.2,0.3,2.4,0.3,3.7v0.5c0,1.8-0.2,3.5-0.4,5.3c-0.2,1.5-0.5,2.9-1.1,4.3c-1.3,2.9-2.7,5.8-4.3,8.6l-1.1,1.9l-2,3.5
	c-0.8,1.9-2,3.6-3.3,5.1l-1.1,1.3L473,446l-3.2,2.7l-2.5,2.1l-3.1,2.6c-0.4,0.3-0.7,0.6-1.1,0.9c-2,1.9-3.7,4.2-4.7,6.7l-0.3,0.8
	c-1.4,0.5-2.6,1.3-3.7,2c-1.4,1.2-2.4,2.5-3.1,4.1l-0.4,0.8h13.9h1.3l0.4-0.1l4.4-8.1c0.1-0.3,0.4-0.5,0.6-0.5
	c0.2,0,0.4,0.1,0.5,0.2l1.2,1c0.2,0.2,0.5,0.4,0.6,0.4s0.3-0.1,0.4-0.1c0.5-0.3,0.9-0.5,1.3-0.9l0.5-0.5l1.7-2l1.4-1.8l4.8-8.1
	c0.7-1.1,1.4-2,2-2.9c0.6-0.9,1.6-2,2.8-2.9l2.5-1.9l9.5-7c0.4-0.5,0.7-1,0.8-1.6l2.7-11.6l0.5-2l1.3-3l1.4-2.3l1.1-1.1
	c1.4,2.8,3.3,5.4,5.4,7.6c1.3,1.4,2.4,2.5,3.6,3.7c1.4,1.5,2.7,3.1,3.7,5c2,3.8,3.4,7.9,4.2,12.1c0.5,2.3,0.8,4.6,1.3,6.9
	c0.1,0.9,0.2,2,0.2,3c0,1.1-0.1,2.1-0.3,3.2c-0.1,0.7-0.4,1.4-0.8,1.9c-0.5,0.5-0.9,1.2-1.3,1.8c-0.3,0.5-0.4,1-0.5,1.6l-0.1,1.7
	l-1.7,1.8l-1.8,1.6c-0.6,0.9-1,1.8-1.2,2.8l-0.4,2h15.2l1.4-2.4c0.4-0.5,0.5-1.2,0.5-1.8c0-0.3,0-0.6-0.1-0.9
	c-0.1-0.5-0.4-1.2-0.7-1.7c-0.2-0.4-0.4-0.8-0.5-1.3c-0.2-0.5-0.3-1.1-0.4-1.6c0-0.4,0.1-0.7,0.3-1c0.3-0.4,0.6-0.5,1-0.6l1.7-0.4
	c0.3,0,0.5-0.2,0.6-0.4c0.4-0.5,0.5-1,0.5-1.5c0-0.4-0.1-0.7-0.2-1c-0.2-0.4-0.3-0.7-0.4-1.1c-0.5-3.3-1.1-6.9-1.8-10.3l-0.5-2.9
	l-1-7.3c-0.2-1-0.5-2.1-0.5-3.3c-0.2-1.3-0.2-2.4,0.1-3.6c0.5-2.1,0.8-4.4,1.1-6.6c0.3-2,0.5-4,0.8-6c0.1-0.5,0.1-1.1,0.1-1.7v-1.4
	c-0.2-1.5-0.7-2.9-1.5-4.1c-0.4-0.6-0.7-1.3-1-2l-1-2.9c-0.1-0.4-0.3-0.6-0.4-0.9C531.1,398,530.7,396,530.6,393.9L530.6,393.9z"/>
</svg>
