<?xml version="1.0" encoding="utf-8"?>
<!-- Generator: Adobe Illustrator 18.1.1, SVG Export Plug-In . SVG Version: 6.00 Build 0)  -->
<svg version="1.1"
	 id="svg2" inkscape:export-ydpi="25.420139" sodipodi:version="0.32" inkscape:output_extension="org.inkscape.output.svg.inkscape" inkscape:version="0.46dev+devel" sodipodi:docname="ryanlerch_Warning_Cows_Roadsign_frag.svg" inkscape:export-filename="C:\joanna\Gfx\drawings_vector\admin\thumbs\ryanlerch_Warning_Cows_Roadsign.png" inkscape:export-xdpi="25.420139" xmlns:dc="http://purl.org/dc/elements/1.1/" xmlns:inkscape="http://www.inkscape.org/namespaces/inkscape" xmlns:ns1="http://sozi.baierouge.fr" xmlns:cc="http://creativecommons.org/ns#" xmlns:sodipodi="http://sodipodi.sourceforge.net/DTD/sodipodi-0.dtd" xmlns:rdf="http://www.w3.org/1999/02/22-rdf-syntax-ns#" xmlns:svg="http://www.w3.org/2000/svg"
	 xmlns="http://www.w3.org/2000/svg" xmlns:xlink="http://www.w3.org/1999/xlink" x="0px" y="0px" viewBox="0 169.9 595.3 445"
	 enable-background="new 0 169.9 595.3 445" xml:space="preserve">
<sodipodi:namedview  inkscape:window-x="88" inkscape:window-width="783" inkscape:current-layer="svg2" inkscape:window-y="116" inkscape:window-height="643" inkscape:pageshadow="2" inkscape:pageopacity="0.0" id="base" bordercolor="#666666" guidetolerance="10.0" pagecolor="#ffffff" gridtolerance="10.0" inkscape:zoom="2.4201011" objecttolerance="10.0" inkscape:cy="69.552002" inkscape:cx="103.49376" showgrid="false" borderopacity="1.0">
	</sodipodi:namedview>
<path id="path12" d="M524,419.7c-0.3-1.6-0.3-3.4-0.2-5.1v-3.1v-3.1c-0.2-2,0-3.9,0.3-5.9c1-5.2,1.6-10.1,2-15.2
	c0.3-3.6,0.5-7.2,0.7-10.8l0.3-5.5l1-7.7l1-9.8c0.2-0.7,0.2-1.3,0.2-1.8c0-0.7,0-1.3-0.2-1.8l-1-9.5c1,4.4,2,8.8,2.5,13.2l2.5,16
	l0.2,2.1l0.5,4.6l0.3,3.4v5.2l-0.2,4.6l0.5,7.8l0.5,9.8l0.5,7.4l-0.2,12.4l-0.3,4.4l-0.3,3.9l-0.8,4.9c0,1,0.2,2.1,0.2,3.1
	c0,1.3-0.2,2.8-0.2,4.2v0.5c0,1,0.2,2,0.3,2.8c0.7,1.8,1,3.6,1.1,5.5c0.3,2,0.5,3.9,1,5.9s0.8,3.9,0.8,6l0.2,4.1
	c0,0.8,0.5,1.6,1.1,2c1,0.7,2.3,1.1,3.6,1.1c0.2,0,0.3,0.2,0.5,0.2c1,0,1.8-0.3,2.6-0.7c1.6-0.5,2.5-2,2.5-3.6v-8.1
	c0-3.6-0.3-7.2-1-10.8c-0.5-3-0.5-6-0.2-9.2c0.2-0.8,0.3-1.8,0.7-2.8c0.2-1,0.2-2,0.2-3.1c0-0.8-0.2-1.6-0.7-2.1
	c-1-1.3-1.6-2.5-2.1-3.9c-0.8-1.8-1.4-3.6-2-5.5c-0.5-1.4-0.8-3.1-0.7-4.8c0.2-2.6,0.2-5.2,0.2-7.8v-0.1c0-3.4,0.3-6.9,0.8-10.3
	c0.5-3,0.8-6,0.8-9.2v-20.5l0.3-26.1l-0.3-11.6c-0.2-2-0.2-3.9-0.3-5.9c-0.2-6.4-1.3-12.4-3.4-18.3c-2.1-5.7-5.1-10.8-9.2-15.4
	c-3.7-4.1-7.8-7.8-12.4-11.1c-3-2.1-6-3.9-9.3-5.2c-4.8-2-9.8-3.7-14.8-5.1c-3.4-1-6.9-1.4-10.4-1.6c-2.5-0.2-5.5-0.2-8.5-0.3h-3.4
	c-4.9,0-9.6,0.3-14.3,1.1c-2.3,0.5-4.4,0.8-6.7,1.1c-3.3,0.5-6.4,0.8-9.5,1.1c-7.7,0.8-15.5,1.4-23.3,2c-13.7,0.7-28.7,2-43.9,3.4
	c-6.4,0.8-11.6,1.3-16.8,1.6c-1.3,0.2-3.6,0.3-5.7,0.5c-2.5,0.2-4.2,0.2-6-0.2c-1.4-0.2-3-0.3-4.6-0.5c-5.5-0.8-10.9-1.1-16.3-1.1
	c-14.3,0-28.9-1-43.3-3.1c-15.8-2.3-31.3-3.6-47.2-3.6h-1.4c-4.1,0-8.1,0-12.1,0.3c-4.2,0.3-8.8,0.8-13.4,1.3
	c-4.1,0.5-8.5,0.8-13.1,1.1c-5.7,0.5-11,0.7-16.1,0.5c-3.7-0.2-7.5-0.5-11.4-0.8c-4.2-0.3-8.5-1.1-12.7-2.3c-5.1-1.3-10.1-3-15-5.1
	c-2-0.7-3.7-1.6-5.5-2.6l-3-1.8l1.3-3.1c0.5-0.5,0.7-1.1,0.7-2v-0.5c-0.3-1.3-1-2.3-2.3-2.8c-1.4-0.5-3.1-1.1-4.9-1.6
	c-1.1-0.5-2.5-1-3.6-1.4c-1.6-0.8-3.4-1.4-5.2-1.8c-1.8-0.3-3.4-1.3-4.6-2.8l-6.7-8c-0.3-0.3-0.7-0.5-1-0.7h-0.5
	c-0.5,0-0.8,0.3-1.1,0.8c-0.2,0.5-0.2,1-0.2,1.4c0,0.5,0,1,0.2,1.3l0.8,2l1.6,4.4l2,5.2h-0.2c-2.8,0.2-5.2,0.8-7.5,2
	c-1.1,0.7-3,1.6-4.6,2.6c-2.3,1.1-3.6,2.3-4.8,3.7c-0.5,0.5-1,1-1.6,1.3c-0.8,0.5-1.8,0.7-2.8,0.3c-1.4-0.3-3-1.3-3.9-2.6l-7.2-9.4
	c-0.5-0.5-1-0.8-1.6-0.8c-0.2-0.2-0.3-0.2-0.3-0.2c-0.7,0-1.1,0.3-1.4,0.8c-0.3,0.7-0.5,1.3-0.5,2c0,0.3,0,0.8,0.2,1.3l1.1,2.6
	l2.1,5.2l1.6,3.3l1.8,2.5l1.3,2l2.8,4.8c0.2,0.3,0.3,0.7,0.3,1c0,0.5-0.2,0.8-0.5,1.1c-1.1,1.4-2.5,3-3.9,4.4
	c-1.1,1.1-2.6,2-4.1,2.3c-1.8,0.5-3.3,2-3.7,3.7c-0.5,1.6-1,3.4-1.1,5.1c-0.3,2.8-1.6,5.2-3.4,7.2c-1.4,1.3-2.6,2.8-3.6,4.4
	c-1.6,2.5-3.3,4.9-5.2,7.2c-1.4,1.8-2.6,3.9-3.6,5.9c-1,2.5-2.3,4.8-4.1,6.5L38,337.7c-0.2,0.8-0.3,1.6-0.3,2.5c0,0.7,0,1.1,0.2,1.6
	c0.3,2.3,1,4.6,1.6,6.7c0.7,1.8,1.6,3.3,2.8,4.8c1.1,1.3,2.3,2.6,3.7,3.7c1.4,1.1,3.3,2.1,5.1,2.8c0.8,0.2,1.6,0.3,2.5,0.3
	c1.3,0,2.6-0.3,3.7-1c1.1-0.7,2.3-1,3.6-1.3c1.8-0.5,3.7-0.5,5.7-0.2c2.8,0.5,5.2,1,7.5,1.4c-0.8-0.2,0.5-0.2,1.8-0.2
	c1.3,0,2.8-0.2,4.2-0.3c2.5-0.7,4.9-1.1,7.2-1.4c1.3-0.3,3.4-1,5.4-1.8c1.4-0.7,3.1-0.7,4.8-0.2c1.8,0.7,3.6,1.4,5.4,2.5
	c4.1,2.3,8.5,3.7,13.1,4.6c1.6,0.3,3.3,0.7,4.8,1c2.1,0.3,4.8,0.7,7.2,0.7c1.8,0.2,3.6,0.5,5.4,1.3c3.3,1.6,6.2,4.1,8.3,7.2
	c2.8,4.1,5.2,8.3,7.4,12.9c1.6,3.4,3.6,7,5.5,10.4c1.4,2.5,2.8,5.4,3.9,8.3c1.6,4.1,3.3,7.7,5.1,11.4c1.1,2.6,2.3,5.2,3.3,8
	c0.3,0.8,0.8,1.6,1.3,2.3c4.6,6.2,10.8,10.8,18,13.1l4.4,1.4l-4.6,4.1l-9.3,8.3l-4.9,4.8l-3.9,4.2c-1.1,1.8-2.3,3.7-3.7,5.5
	c-1.1,1.8-2.1,3.3-2.8,4.9c-0.7,1.4-1,3-1,4.6c0,0.7,0.2,1.3,0.2,2c0.5,2.5,1.4,4.8,2.6,6.9l2.5,4.1l3,3.9l8.8,8.3l3.9,3.9l3.6,3.7
	l2,2.5l5.9,7.4l10.3,11l5.4,5.1l4.2,3.3l3.4,2.3l2.5,1.1l1.3,0.2c1.4,3.7,3.9,7.2,6.9,9.8c1.1,1.1,2.6,2,4.2,2.3
	c1.4,0.3,2.8,0.7,4.2,1h1c0.7,0,1.1,0,1.8-0.2l1-0.3l-7.8-26.4c-0.3-1-1-1.8-2.1-2l-7-1.6c-0.7-0.3-1-1-0.8-1.4c0.5-1.4,1-3,1.4-4.4
	c0.2-0.3,0.3-1,0.3-1.4c0-1.4-0.8-2.8-2.1-3.4c-1.1-0.7-2.5-1.1-3.7-1.6c-1.8-0.3-3.4-1.3-4.9-2.3c-2-1.4-3.9-3-5.9-4.6
	c-2.6-2.1-4.9-4.9-6.5-7.8c-1.4-2.8-3-5.5-4.6-8.1c-1.4-2.6-2.1-4.9-2.5-7.4c-0.3-2.6,0.3-5.2,2-7.5c1.6-2.3,3.9-4.2,6.4-5.4
	c3.1-1.4,6.2-3,9.3-4.4c2.8-1.3,5.5-2.6,8.5-3.7c2.8-1,5.2-2.5,7.7-4.1c1.6-1.3,3.3-2.3,5.1-3.3c3.6-2.3,6.4-5.2,8.5-9l1-1.8
	l4.1,8.3l1.6,3.6l1.3,2.8l2.6,3.7l3.3,4.8l4.9,7l4.1,6.5l4.4,7.2l2.1,3.4l6.2,10.9l2.5,4.8l3.1,6.2l1.6,3.7l1.1,3.4
	c0.8,1.8,1.3,3.6,1.6,5.5c0.2,1.4,0.5,3,0.8,4.6c0,0.7,0.2,1.3,0.2,2c0,2.3-0.8,4.4-2.5,6l-5.2,5.9l-0.8,1.3
	c-5.1,1.3-8.8,5.5-9.6,10.8l-0.2,1.1H296c2.3-2.5,3.6-5.5,3.6-8.8c0-2-0.5-3.9-1.3-5.7l-0.8-1.4c-0.2-0.7,0.2-1.1,0.7-1.1h3.3
	c2.1-0.3,3.4-2.1,3.4-4.1c0-0.3,0-0.5-0.2-0.8l-1.3-6.5l-2.3-8l-2.6-9.6l-2.6-9l-1.6-6.5l-1.4-6l-1-3.9l-1-3.9l-0.7-3.6l-0.8-3.7
	l-0.7-2.8l-1.8-6.9c-1-3.1-2.1-6.4-3-9.5c-1.3-4.8-3.1-9.5-5.4-13.7l-1.4-2.8l12.7-0.3h2.8c3.6,0,7.5,0,11.3-0.3
	c6-0.3,12.4,0.2,18.6,1.6c8.8,1.8,17.7,2.8,26.6,3c1,0.2,1.8,0.2,2.8,0.2c9.8,0,19.4-1,28.9-3c6.7-1.3,11.6-2.3,16.5-3.3l1-0.2
	c3.6,3,7.5,5.5,11.7,7.5l0.5,0.3l-2.3,12.9c0.2,2.6,2.3,4.8,4.9,4.8c2.1,0,4.1-1.1,4.8-3.1l4.1-10.8l6,1.3l-1.4,10.6v1
	c0,1,0.2,2,0.7,2.8c0.8,1.3,2,2,3.4,2.1h0.7c1,0,2-0.2,3-0.3c1.3-0.3,2.5-1.3,2.6-2.8l2.3-11.9l5.5,0.3c0.3,2.1,0.5,4.4,0.5,6.7v1
	c0,3.3-0.3,6.4-0.7,9.6c-0.3,2.8-1,5.4-2,7.8c-2.3,5.2-4.9,10.6-7.8,15.7l-2,3.4l-3.6,6.4c-1.4,3.4-3.6,6.5-6,9.3l-2,2.3l-2.3,2.3
	l-5.9,4.9l-4.6,3.9l-5.7,4.8c-0.7,0.5-1.3,1.1-2,1.6c-3.7,3.4-6.7,7.7-8.7,12.2l-0.5,1.4c-2.5,1-4.8,2.3-6.7,3.7
	c-2.5,2.1-4.4,4.6-5.7,7.5l-0.7,1.4h25.5h2.3l0.7-0.2l8-14.9c0.2-0.5,0.7-0.8,1.1-0.8c0.3,0,0.7,0.2,0.8,0.3l2.1,1.8
	c0.3,0.3,0.8,0.7,1.1,0.7c0.3,0,0.5-0.2,0.7-0.2c0.8-0.5,1.6-1,2.3-1.6l0.8-1l3.1-3.6l2.5-3.3l8.8-14.8c1.3-2,2.5-3.6,3.6-5.2
	c1.1-1.6,3-3.6,5.1-5.2l4.6-3.4l17.3-12.9c0.7-0.8,1.3-1.8,1.4-3l4.9-21.2l1-3.7l2.3-5.5l2.5-4.2l2-2c2.6,5.1,6,9.8,9.8,13.9
	c2.3,2.5,4.4,4.6,6.5,6.7c2.6,2.8,4.9,5.7,6.7,9.2c3.6,6.9,6.2,14.5,7.7,22.2c0.8,4.2,1.4,8.5,2.3,12.7c0.2,1.6,0.3,3.6,0.3,5.5
	c0,2-0.2,3.9-0.5,5.9c-0.2,1.3-0.7,2.5-1.4,3.4c-0.8,1-1.6,2.1-2.3,3.3c-0.5,0.8-0.7,1.8-0.8,3l-0.2,3.1l-3.1,3.3l-3.3,3
	c-1.1,1.6-1.8,3.3-2.1,5.1l-0.7,3.7h27.8l2.6-4.4c0.7-1,0.8-2.1,0.8-3.3c0-0.5,0-1.1-0.2-1.6c-0.2-1-0.7-2.1-1.3-3.1
	c-0.3-0.7-0.7-1.4-1-2.3c-0.3-1-0.5-2-0.7-3c0-0.7,0.2-1.3,0.5-1.8c0.5-0.7,1.1-1,1.8-1.1l3.1-0.7c0.5,0,0.8-0.3,1.1-0.7
	c0.7-0.8,1-1.8,1-2.8c0-0.7-0.2-1.3-0.3-1.8c-0.3-0.7-0.5-1.3-0.7-2c-0.8-6-2-12.6-3.3-18.9l-1-5.4l-1.8-13.4c-0.3-1.8-0.8-3.9-1-6
	c-0.3-2.3-0.3-4.4,0.2-6.5c0.8-3.9,1.4-8,2-12.1c0.5-3.7,1-7.4,1.4-10.9c0.2-1,0.2-2,0.2-3.1v-2.6c-0.3-2.8-1.3-5.4-2.8-7.5
	c-0.7-1.1-1.3-2.3-1.8-3.6l-1.8-5.2c-0.2-0.7-0.5-1.1-0.7-1.6C525,427.3,524.2,423.5,524,419.7L524,419.7z"/>
</svg>
