<?xml version="1.0" encoding="UTF-8" standalone="no"?>
<svg
   xmlns:svg="http://www.w3.org/2000/svg"
   xmlns="http://www.w3.org/2000/svg"
   version="1.1"
   width="256"
   height="170">
	<path d="m 41.153622,160.85651 c -7.92371,-1.93174 -13.74594,-5.33427 -20.21383,-11.81305 C 10.570622,138.65686 6.3135217,125.84848 8.6316017,112.01156 12.229402,90.535665 29.912312,75.618782 51.949812,75.469335 l 6.13883,-0.04163 -3.75469,-2.021477 C 51.146522,71.690157 48.310212,71.282609 35.560502,70.708676 19.255512,69.9747 14.743072,68.952916 10.582422,65.052723 7.3153417,61.990151 7.1813017,59.859468 9.9923817,55.673534 13.282602,50.774133 19.549922,46.530901 26.940172,44.199199 c 5.89486,-1.859892 8.75008,-2.127483 22.70041,-2.127483 14.85091,0 16.26791,0.153421 20.4349,2.212534 2.84103,1.403891 5.51598,3.727243 7.31897,6.356943 1.56282,2.279425 4.06785,4.780794 5.56672,5.558597 4.11378,2.134744 13.89035,4.210398 19.905158,4.226041 l 5.35344,0.01392 1.90149,-4.313664 c 2.81906,-6.395193 6.85373,-11.007202 12.16888,-13.910172 5.36976,-2.932796 15.19591,-5.284363 22.18217,-5.308576 5.31639,-0.01842 8.20987,-1.61285 10.30496,-5.678463 2.59456,-5.034839 1.05434,-13.176906 -2.49265,-13.176906 -2.89506,0 -10.43907,3.254399 -14.65783,6.323223 -4.47356,3.254166 -7.30137,3.186349 -8.84442,-0.212109 -1.3139,-2.893757 0.16869,-5.367459 5.36871,-8.95765 7.31936,-5.053445 20.91571,-8.6831302 24.7707,-6.6127942 2.18889,1.175549 4.87568,6.9136752 7.66921,16.3789652 1.09383,3.706258 2.08233,6.841698 2.19665,6.967644 0.11432,0.125946 2.07638,-0.681626 4.36014,-1.794605 5.93278,-2.891327 20.59496,-3.521795 25.2724,-1.086705 4.60782,2.398848 6.56779,6.844625 6.56779,14.897676 0,12.963556 -4.2752,16.718013 -18.53797,16.279922 -4.77666,-0.146717 -8.68388,0.0875 -8.68272,0.520489 9.4e-4,0.432985 1.78441,4.802845 3.96279,9.710799 3.43881,7.747749 4.21182,8.851061 5.8667,8.373407 13.28075,-3.833292 19.18963,-4.228953 28.15604,-1.885343 21.37742,5.587557 35.34165,27.007321 31.65846,48.561021 -1.65371,9.67738 -5.13915,16.34127 -12.31158,23.53873 -7.17242,7.19748 -13.81311,10.69509 -23.45682,12.35457 -21.47869,3.69606 -42.8239,-10.31693 -48.39202,-31.76901 -3.73051,-14.37242 0.23164,-29.696842 10.54333,-40.778583 l 4.09624,-4.402122 -3.02218,-6.284118 -3.02218,-6.284118 -2.35831,1.550622 c -3.9748,2.613481 -10.36307,12.272253 -12.48627,18.878658 -1.59507,4.96313 -2.03689,8.783821 -2.12204,18.350451 l -0.10753,12.08224 -3.45793,3.18003 c -5.53998,5.09477 -11.99342,6.58427 -27.9876,6.45976 -12.81905,-0.0998 -21.40606,-1.46573 -28.213678,-4.48796 -1.13647,-0.50454 -1.81053,0.46226 -3.03088,4.34714 -3.07195,9.77937 -11.18544,19.62346 -20.25741,24.5783 -8.83398,4.82484 -20.89831,6.40847 -30.67079,4.02602 z m 17.54276,-9.38713 c 6.7244,-1.58827 12.65854,-5.07149 17.16209,-10.07378 3.88459,-4.31479 8.02014,-12.40922 8.03449,-15.72577 0.008,-1.90221 -0.44772,-2.11903 -4.44952,-2.11585 -4.38626,0.004 -4.48633,0.0709 -6.15959,4.15443 -2.12761,5.19226 -7.30106,10.61402 -12.30334,12.89386 -4.77253,2.17512 -14.30465,2.33883 -19.11412,0.32826 -4.60387,-1.92461 -10.32753,-7.51127 -12.49855,-12.19935 -2.32461,-5.01978 -2.33915,-14.7003 -0.0298,-19.80187 5.70906,-12.611464 20.89513,-17.798348 32.90217,-11.237909 5.2851,2.887679 9.53239,7.781539 11.5054,13.256849 1.08595,3.01364 1.38616,3.1827 5.65166,3.1827 4.04608,0 4.50473,-0.21581 4.50406,-2.11939 -9.4e-4,-3.67586 -5.24988,-13.265577 -9.51141,-17.378289 -2.25423,-2.175517 -6.63301,-5.133485 -9.73063,-6.573261 -4.76293,-2.213813 -6.86328,-2.617775 -13.61076,-2.617775 -6.65087,0 -8.86527,0.41366 -13.30582,2.48558 -21.51097,10.036821 -26.94514,37.263125 -10.75819,53.900685 5.46525,5.61741 8.65279,7.52245 15.832,9.46201 6.2897,1.69926 9.29928,1.73316 15.8798,0.17887 z m 158.972108,-1.6273 c 7.20999,-2.70701 15.46711,-10.90703 18.10366,-17.97844 2.75285,-7.38335 3.35044,-12.9531 2.06737,-19.26876 -3.76067,-18.511221 -21.51145,-30.568619 -39.46119,-26.80443 -7.77423,1.63031 -8.06412,1.996904 -5.19082,6.564405 2.20004,3.497243 2.72387,3.830233 5.01791,3.189748 4.72001,-1.317799 12.70496,-0.624346 16.76921,1.45632 8.77798,4.493827 13.42878,11.967797 13.46246,21.634547 0.0249,7.1375 -1.73011,11.70786 -6.36126,16.56617 -4.88407,5.12363 -9.71998,7.14644 -17.08494,7.14644 -13.7761,0 -23.77592,-9.86487 -23.82893,-23.50738 -0.0202,-5.18578 0.45148,-6.99009 3.08208,-11.79124 l 3.10585,-5.66856 -2.06695,-3.515458 c -1.13682,-1.933505 -2.36861,-3.515462 -2.73729,-3.515462 -1.55697,0 -5.7946,5.582443 -8.22289,10.83243 -2.21293,4.78437 -2.6141,6.88043 -2.6141,13.65829 0,6.65476 0.4142,8.90037 2.45324,13.30035 7.93053,17.11309 25.75604,24.36556 43.50659,17.70103 z M 57.583032,131.57585 c 2.6858,-1.39374 6.60698,-5.67308 6.60698,-7.21048 0,-0.4482 -3.24036,-0.81492 -7.2008,-0.81492 -9.59852,0 -13.23899,-3.08578 -9.08049,-7.69692 1.25351,-1.38996 2.97547,-1.72258 8.91739,-1.72258 4.05014,0 7.3639,-0.36671 7.3639,-0.81492 0,-0.44821 -0.8821,-1.94025 -1.96023,-3.31565 -8.24141,-10.513842 -25.25426,-4.55845 -25.25426,8.84032 0,10.53401 11.34205,17.54324 20.60751,12.73515 z m 154.691148,-0.48471 c 12.23122,-7.48351 6.65547,-27.23492 -7.39642,-26.20089 l -3.97031,0.29216 6.73508,8.41395 c 6.97522,8.71394 7.7583,10.67664 5.26003,13.18363 -3.36141,3.37315 -5.66105,1.86516 -14.78399,-9.69457 -4.33884,-5.49779 -4.83307,-5.85334 -5.96914,-4.29424 -0.68124,0.93491 -1.23705,3.63224 -1.23512,5.99407 0.007,8.09707 6.04385,14.17766 14.07658,14.17766 2.56275,0 5.42721,-0.73615 7.28329,-1.87177 z m -75.80581,-8.79006 c 8.8901,-2.10048 8.61308,-1.64994 8.84427,-14.38452 0.17041,-9.386504 0.61603,-12.412056 2.73728,-18.585136 3.23887,-9.425392 7.44588,-15.98616 14.02323,-21.868922 l 5.23227,-4.679735 -3.26073,-10.792818 c -1.7934,-5.936052 -3.4535,-10.986264 -3.68911,-11.222696 -0.2356,-0.236432 -1.37711,0.461961 -2.53668,1.551986 -2.8496,2.678679 -6.59329,3.991254 -11.38376,3.991254 -5.7937,0 -14.5634,1.794366 -18.38562,3.761882 -4.55074,2.342524 -7.0435,5.242846 -9.72826,11.318832 -3.55748,8.051093 -5.04758,8.971781 -14.18176,8.762497 -16.026828,-0.367208 -28.315098,-4.936513 -33.771238,-12.557597 -1.99391,-2.785059 -4.36847,-4.939258 -5.926,-5.376048 -1.42941,-0.40086 -8.51257,-0.714898 -15.74035,-0.697862 -13.97652,0.03295 -20.31142,1.273052 -26.69831,5.226419 -4.59349,2.843274 -2.89696,3.35881 13.08756,3.977007 8.26295,0.319567 15.50987,1.110291 18.44422,2.012476 6.76735,2.080666 15.63561,8.29548 20.02873,14.035992 15.73141,20.556318 17.98542,24.502299 20.12851,35.237899 1.05843,5.30211 1.14459,5.40956 5.73277,7.14944 10.648928,4.03816 27.275708,5.4474 37.042978,3.13965 z m 58.00939,-72.411174 c 0.61952,-0.621687 1.1264,-3.292118 1.1264,-5.93429 0,-2.642171 -0.50688,-5.312602 -1.1264,-5.93429 -2.5742,-2.583184 -17.4936,-0.440726 -21.35583,3.066741 -1.76601,1.603814 -1.60629,5.419658 0.29271,6.992648 3.21356,2.661877 18.87303,4.006927 21.06312,1.809191 z" style="fill:#000000"/>
</svg>
