<?xml version="1.0" encoding="UTF-8" standalone="no"?>
<svg
   xmlns:svg="http://www.w3.org/2000/svg"
   xmlns="http://www.w3.org/2000/svg"
   version="1.1"
   width="256.00012"
   height="202">
	<g transform="translate(-329.69693,-259.34927)">
		<path d="m 427.28573,451.6225 c -1.5581,-0.94806 -7.57697,-7.20478 -13.37527,-13.90379 l -10.54235,-12.18004 -8.22311,-0.39228 c -14.46501,-0.69004 -18.8905,-5.45975 -18.8905,-20.35983 l 0,-8.44945 -4.68384,0 -4.68383,0 -0.0127,11.44996 c -0.007,6.29748 -0.25795,12.36189 -0.55759,13.47648 -0.87936,3.2711 -4.87051,4.25457 -15.83603,3.90221 -8.57408,-0.2755 -10.16393,-0.57574 -11.30527,-2.13494 -1.97212,-2.69413 -1.97071,-79.67165 0.002,-82.36284 1.19372,-1.62891 2.52947,-1.81436 13.06791,-1.81436 8.36769,0 12.08796,0.34813 12.95607,1.21242 0.85039,0.84664 1.30981,5.14699 1.52279,14.25404 l 0.305,13.04161 4.61303,0 4.61304,0 0,-8.44945 c 0,-14.89288 4.42758,-19.66989 18.8697,-20.35884 l 8.20231,-0.39129 10.53026,-12.16106 c 5.79163,-6.68859 11.81986,-12.94573 13.39606,-13.90478 2.4542,-1.49328 4.85032,-1.74423 16.68313,-1.74722 l 13.81732,-0.004 0,-7.47753 0,-7.47752 -10.65813,0 c -8.76175,0 -10.88688,-0.27448 -11.94379,-1.54263 -2.04279,-2.45109 -2.36181,-21.22725 -0.41114,-24.19775 l 1.5106,-2.30035 35.8566,0 c 26.63945,0 36.14557,0.28833 36.98073,1.12163 0.75536,0.75369 1.12412,4.98501 1.12412,12.89874 0,7.91371 -0.36876,12.14503 -1.12412,12.89873 -0.74168,0.74002 -4.72547,1.12163 -11.7096,1.12163 l -10.58547,0 0,7.43395 0,7.43394 24.75053,0.27726 24.75054,0.27725 2.50473,2.33672 c 4.85735,4.53154 5.13702,5.95385 5.13702,26.12493 l 0,18.74023 2.26131,0 c 2.24061,0 2.26419,-0.098 2.57611,-10.70471 0.21041,-7.15502 0.71776,-11.10681 1.53001,-11.91732 0.81946,-0.81771 4.8365,-1.31361 12.33547,-1.52279 16.54537,-0.46154 15.02074,-4.81599 15.02074,42.90009 0,25.31576 -0.34536,39.96233 -0.96973,41.12639 -0.88185,1.6441 -2.06546,1.80794 -13.06163,1.80794 -15.17784,0 -15.00844,0.15531 -15.00844,-13.761 l 0,-9.60627 -2.34192,0 c -2.24065,0 -2.34192,0.24514 -2.34192,5.66959 0,3.11828 -0.48842,6.58832 -1.08538,7.71119 -1.69643,3.19097 -38.40484,40.8586 -41.24753,42.32535 -2.04297,1.05413 -9.27251,1.30932 -37.01162,1.30651 -31.8498,-0.003 -34.68829,-0.13466 -37.30564,-1.72725 z m 88.34309,-26.59567 18.93941,-18.97951 0,-7.72063 c 0,-11.33212 0.005,-11.33649 11.62786,-11.33649 7.86049,0 9.93096,0.29104 10.97406,1.54262 0.86434,1.0371 1.38956,4.86593 1.60274,11.68364 l 0.31706,10.14101 4.60097,0 4.60095,0 0,-33.18153 0,-33.18152 -4.60095,0 -4.60097,0 -0.31706,10.14101 c -0.21318,6.81771 -0.7384,10.64654 -1.60274,11.68364 -1.03049,1.23643 -3.06108,1.54262 -10.23068,1.54262 -13.10977,0 -12.37124,1.44825 -12.37124,-24.25989 0,-15.21626 -0.31599,-21.48138 -1.12412,-22.28771 -0.84636,-0.84448 -13.53223,-1.12163 -51.34002,-1.12163 l -50.21588,0 -12.00573,13.94107 c -6.60315,7.66759 -12.90294,14.18132 -13.99953,14.47496 -1.09659,0.29361 -5.44765,0.5396 -9.66902,0.54662 -11.22004,0.0187 -10.59175,-1.95038 -10.59175,33.19429 0,24.75877 0.21442,29.33226 1.45827,31.10417 1.33468,1.90129 2.22019,2.07735 10.44834,2.07735 l 8.99007,0 3.68883,3.97244 c 2.02885,2.18484 7.72767,8.7043 12.66403,14.48771 l 8.97521,10.51527 32.42123,0 32.42123,0 18.93943,-18.97951 z m -61.6226,2.08331 c 0,-0.2451 2.95081,-9.25594 6.55737,-20.02409 3.60656,-10.76815 6.55737,-19.69486 6.55737,-19.83715 0,-0.14228 -5.26931,-0.2587 -11.70959,-0.2587 -6.44028,0 -11.7096,-0.20816 -11.7096,-0.46258 0,-0.25442 5.37087,-11.1903 11.93525,-24.30196 l 11.93525,-23.83938 11.95875,0 11.95875,0 -4.5446,7.24385 c -16.05768,25.59514 -18.88744,30.17614 -18.88744,30.57615 0,0.24555 5.21718,0.56418 11.59373,0.70806 l 11.59372,0.2616 -17.71903,24.29147 c -17.0436,23.36549 -19.51993,26.61858 -19.51993,25.64273 z m -97.41003,-23.52917 c 0.0192,-15.94962 0.0882,-16.05219 11.01832,-16.39218 l 8.63999,-0.26874 0,-5.07065 0,-5.07065 -8.63999,-0.26874 c -10.93013,-0.33999 -10.99908,-0.44256 -11.01832,-16.39217 l -0.0138,-11.44997 -4.68384,0 -4.68384,0 0,33.18153 0,33.18152 4.68384,0 4.68384,0 0.0138,-11.44995 z M 476.64222,299.51946 c 0.39737,-13.66546 0.19932,-13.47587 14.07698,-13.47587 l 10.1254,0 0,-4.67346 0,-4.67345 -28.57141,0 -28.57142,0 0,4.67345 0,4.67346 9.99649,0 c 13.50802,0 13.4227,-0.0871 13.4227,13.69788 l 0,10.60408 4.60323,0 4.60322,0 0.31481,-10.82609 z" style="fill:#000000"/>
	</g>
</svg>
