<?xml version="1.0" encoding="utf-8"?>
<!-- Generator: Adobe Illustrator 18.1.1, SVG Export Plug-In . SVG Version: 6.00 Build 0)  -->
<svg version="1.1"
	 id="svg2728" xmlns:rdf="http://www.w3.org/1999/02/22-rdf-syntax-ns#" xmlns:cc="http://web.resource.org/cc/" xmlns:dc="http://purl.org/dc/elements/1.1/" xmlns:svg="http://www.w3.org/2000/svg" xmlns:inkscape="http://www.inkscape.org/namespaces/inkscape" xmlns:sodipodi="http://sodipodi.sourceforge.net/DTD/sodipodi-0.dtd" xmlns:ns1="http://sozi.baierouge.fr"
	 xmlns="http://www.w3.org/2000/svg" xmlns:xlink="http://www.w3.org/1999/xlink" x="0px" y="0px" viewBox="0 177.9 594.9 453"
	 enable-background="new 0 177.9 594.9 453" xml:space="preserve">
<g id="layer1" transform="translate(36.655 -281.02)">
	<g id="Layer_1" transform="translate(-36.659 281.02)">
		<path stroke="#FFFFFF" d="M210.6,378.2c-1,0-1.8,1.2-1.8,2.6c0,1.4,0.8,2.6,1.8,2.6s1.8-1.2,1.8-2.6
			C212.4,379.4,211.6,378.2,210.6,378.2z"/>
		<path stroke="#FFFFFF" d="M237.3,353.4c8.3,0,17.3-0.5,25.6,0.7c0.7,0.1,1.3,0.3,1.7,0.6l33.9,0.6c0,0-22.7-43.9-25.9-49.8
			c-3.2-5.9-5.1-4.2-9.4-5c-4.2-0.7-37.5,0.1-37.5,0.1s-4.5,15.7-6.4,26.1s-3.7,27.1-3.7,27.1l19,0.3
			C235.3,353.7,236.2,353.4,237.3,353.4z M284.8,332.9l-2.1,3.2l-9.2-0.4l3.4-19.2L284.8,332.9z M226.4,330.2
			c-0.9,2.3-1.6,5.1-1.6,5.1v0H221c0,0,1.3-11,2.9-16.1c1.6-5.1,4-14.8,5.3-16c1.3-1.2,2-1.9,5.9-1.8c3.8,0.1,25.6,0,25.6,0
			s5.3,0,7.3,0.9c2.1,0.9,4.4,5.6,5,6.6s1,2,1,2s-1.6,6.7-2.2,11.4c-0.6,4.7-2.2,12.9-2.2,12.9l-5.1,0.4c0,0-0.3-0.1-1.5-0.7
			c-1.2-0.6-2.2-0.6-2.2-0.6s-0.6-4.1-2.5-6.1c-1.9-2-4-3.8-12.9-4.5c-8.9-0.7-12.3-1.2-14.6,0.1
			C228.5,325.2,227.3,327.9,226.4,330.2z"/>
		<polygon stroke="#FFFFFF" points="224.1,369 226.3,367.4 228.7,362.4 210.6,362.3 209.7,362.7 208.5,365.7 211.7,368.7 		"/>
		<path stroke="#FFFFFF" d="M95.5,456.4c0,0,1-0.8,1.3-1.4v0c0.3-0.7-0.7-1.8-0.7-1.8l-3.5-2.5c0,0-0.1-0.2-1-0.4
			c-0.9-0.2-1.3,1-1.3,1s-0.4,3.3-0.4,4.3c0,1,1,1.2,1,1.2L95.5,456.4z"/>
		<path stroke="#FFFFFF" d="M396.7,490.5c0,0-0.4-2.2-1.1-3.8c-0.7-1.7-1.9-3.5-1.9-3.5s0,2.8,0.5,4.7
			C394.7,489.8,396.7,490.5,396.7,490.5z"/>
		<path stroke="#FFFFFF" d="M386.2,479c1.1,0,2.2-0.4,1.7-1.6c-0.5-1.2-1-2.3-1-2.3l-6-2.9l2.6,4.8C383.5,477.1,385.1,479,386.2,479
			z"/>
		<path stroke="#FFFFFF" d="M394.4,503.3c-0.4,0.7,1,5.2,1,5.2l2-6.6c0,0-0.7-1.2-1.8-1.4C394.5,500.2,394.8,502.6,394.4,503.3z"/>
		<path stroke="#FFFFFF" d="M445.8,401.8l-13.6-0.9c0,0-0.7,0.3-1.3,0.4c-0.7,0.1-0.7,0.9-0.9,2.3c-0.2,1.4-0.3,3,0,3.5
			c0.3,0.6,1.3,0.8,1.3,0.8s15.4,0.8,15.8,0.7c0.4-0.1,0.8-1.1,0.8-1.1l0.4-3.3c0,0-0.2-1.3-0.5-2
			C447.5,401.6,445.8,401.8,445.8,401.8z"/>
		<polygon stroke="#FFFFFF" points="105.7,447.2 105.8,446 102.4,442.8 105,446.8 		"/>
		<path stroke="#FFFFFF" d="M369.5,496.7c1.2,9.2,7.8,15.8,14.7,14.7s11.5-9.3,10.2-18.5c-1.2-9.2-7.8-15.8-14.7-14.7
			C372.8,479.2,368.3,487.5,369.5,496.7z M380,479.7c6.3-0.9,12.2,5,13.4,13.3c1.1,8.3-3,15.8-9.3,16.8c-6.3,0.9-12.2-5-13.4-13.3
			C369.6,488.2,373.7,480.7,380,479.7z"/>
		<path stroke="#FFFFFF" d="M594.5,425c-0.9-2.1-6.4-5-6.4-5s-2.8-0.8-3.1-1.9c-0.3-1.1,0.6-28.9,0.6-28.9s0.9-0.5,0.8-1.2
			s0.5-5.3-18.8-12.4c-19.3-7-41.2-10.3-56.9-13.1c-15.7-2.8-40.5-6.3-53.5-8c-13-1.7-20.8-3.7-20.8-3.7s-0.3-1.2-1.3-2.4
			c-1-1.2-50-52.1-52.7-53.8c-2.7-1.7-10-5.2-14.6-6.3c-4.6-1.1-28.2-5.4-48.2-6.4c-20-1.1-36.3-1.8-53.3-1.4
			c-17,0.5-33.2,1.5-40.8,2.5c-1.8,0.2-3.4,0.5-4.9,0.7l-27.9-1.3l-5,0l-18.9,72.7l-14.9-0.4L1.9,356.9l-1.3,0.7l-0.2,26.8l2,0.7
			l1.3,18.4l3.1,0.2l0.9-2.2c0,0.6,0.3,0.7,0.3,0.7l53.2,6.3l3,8.1c-3.6,16.7-7.4,39-7.3,39.4c0.1,0.6,11.6-3.9,11.4-2.7
			c-0.7,5.4,0.9,16.1,0.9,16.1l1.3,4.6l-65.6,9.2c0,0-4.2,0.4-2.9,1.5c1.3,1.1,5.7,2,5.7,2l87.6,18.2l67.6,10.8l13.6-4.6l4.2,2.9
			L300,534.3l3.3,2.9l-3.1,2l1.8,1.8l15.8-2.8l2.2,0.9l-4.8,2.9c0,0,22.6,9,42.8,12.3c20.2,3.3,41.3,7.9,47.9,7.2
			c6.6-0.7,21.3-4.8,21.3-4.8s8.8,2.6,12.7,2c4-0.7,28.5-3.7,39.5-7.5c11-3.7,74.6-22,78.2-23.7c3.5-1.8,6.4-2.6,3.7-4.6
			c-2.6-2-30.7-4.2-30.7-4.2s15.2-11.2,19.3-22.8c3.6-9.9,5.7-18,5.8-26.8c5.7-1.3,10.6-2.4,12.5-2.9c4.8-1.4,4.9-0.6,6.4-2.6
			c1.5-2,4-11.9,4-11.9s9.5-2.3,11.6-4.6c2.1-2.3,3.9-2.5,4.2-8.3l0,0C594.7,432.8,595.4,427.1,594.5,425z M402.5,331.7
			c3.1,3.2,8.6,11,8.6,11l-3.1-0.1c0,0-0.3-2.6-0.6-3.4s-3.7-0.1-3.7-0.1s-5.3,0.1-5.9-0.7c-0.6-0.9-4-2.8-4-2.8l-2.2-13.9
			C391.8,321.6,399.4,328.5,402.5,331.7z M386.4,316c0.7,1,1,5.9,1.6,8.1c0.6,2.2,4,21.2,4,21.2s-14.1-0.3-16.1-0.4
			s-25.5-0.9-25.5-0.9s-1.2-2.5-2.2-3.4c-1-0.9-5.6-0.9-5.6-0.9s-1.9-11.3-2.5-14.5c-0.6-3.2-4.4-19.2-4.4-19.2s14.1-0.6,22.1-0.9
			c8-0.3,16,1.5,18.1,2.3C378.2,308.4,385.7,315,386.4,316z M192.7,289.3l15.3,0.7c-0.6,0.7-0.9,1.3-0.9,1.5c0.1,0.3,1,0.8,1,0.8
			s-6.4,15.3-9.6,27.3c-3.1,12-7.2,29-7.2,30.3s0.3,1.5,0.3,1.5s-0.9-0.2-1.8,2c-0.2,0.5-0.5,1.4-0.9,2.6l-13.7-0.6L192.7,289.3z
			 M204.9,358.2v-0.5l2.9-4.4l3.2-0.4c0,0,3.4-19.5,5.7-32.9c2.3-13.5,6.2-23.9,6.2-23.9s41.3-0.9,43.6-0.1c2.3,0.7,5.9,1.5,8.8,7
			c2.9,5.6,26.8,52.4,26.8,52.4s1,3.2,2.5,5c1.5,1.8,2.3,3.8,2.3,3.8s-0.4,9.5-0.4,22.1c0,12.6,1.3,22.7,1,25.5c-0.3,2.8-1,7-1,7
			l0,0l-105.7-8.4l0-0.1c0,0,0.4-2.5,0.3-4.7c-0.1-2.2-1.6-22.2-1.3-25.6c0.3-3.4,0.9-7.8,1.2-8.5c0.3-0.7,0.7-0.6,0.9-1.5
			c0.1-0.5,1.1-4,1.9-6.9l1.7-4.9L204.9,358.2z M306.8,453.2l-96.9-10.4c0,0-4.5-8.6-5.7-14.1c-1.2-5.4-2.6-12.3-2.6-12.3l0.3-1.6
			l-0.1-0.4l57.7,4.8c0,0,31.7,2.8,47.4,4.1l0,0.3l-0.6,1.5L306.8,453.2z M199.5,371.4c-0.3,0.7-0.9,5.2-1.2,8.7
			c-0.3,3.4,1.2,23.9,1.4,26.1c0.1,1.5-0.1,3.1-0.2,4l-10.5-0.8l0.1,0.8c-0.3,0-0.6-0.2-0.4-1.2c0.3-1.6,0.4-6.6,0-14.8
			c-0.4-8.2-0.7-17.4-0.3-21.7c0.1-0.8,0.3-1.8,0.5-3.1l0.2,0.5l11.3,0.3C200.1,370.8,199.7,370.8,199.5,371.4z M186.3,413.4
			l-0.6-0.5l0.5-0.8L186.3,413.4z M156,357.6l12.1,0.4l-1.8,6.4l-117.9-5.5L156,357.6z M155.4,397.3l3.7,0.4c0,0,0,0.6-0.1,1.3
			c0,0.1,0,0.2,0,0.3c-2.6-0.1-5.5-0.2-8.7-0.2c-0.4-0.4-0.8-1-0.7-1.4c0.1-0.7,1.8-0.7,1.8-0.7l0.5-1.1l0.3-5.6c0,0,0.9-0.5,2-0.5
			c1.1,0,2.1,0.8,2.1,0.8l-0.2,5.4l-0.9,0.6L155.4,397.3z M7.1,386.9c0,0-1-0.9-0.9-1.4c0.1-0.6,1.4-0.5,1.4-0.5l0.4-0.9l0.2-4.3
			c0,0,0.7-0.4,1.5-0.4s1.7,0.6,1.7,0.6l-0.2,4.2l-0.7,0.5l0.1,0.5l2.9,0.3c0,0,0,0.5-0.1,1c-0.1,0.5-0.2,0.9-0.2,0.9L7.1,386.9z
			 M39,403.3l-0.1-7.5l-1.8-0.1l-0.1,7.2l-27.6-3.2c0,0-0.7-0.2-1.3,0.4l3-7.2l46,4.5l3,8.2L39,403.3z M65.2,411.7l-1-2.7l1.6,0.2
			C65.6,410,65.4,410.8,65.2,411.7z M69.1,398.9c-0.7,1-1.6,3.8-2.6,7.5l-3.4-0.4v0l-3.1-8.2l9.6,0.9
			C69.3,398.8,69.2,398.8,69.1,398.9z M77.4,392.1c-0.1,0.6-0.2,1-0.2,1v0l-7.6-0.6c0,0-1.2-1-1.1-1.7c0.1-0.7,1.7-0.6,1.7-0.6
			l0.5-1L71,384c0,0,0.8-0.5,1.9-0.5c1,0,2,0.8,2,0.8l-0.2,5.1l-0.8,0.5l0.1,0.6l3.5,0.4C77.5,390.9,77.5,391.4,77.4,392.1z
			 M96.9,486.7c-8.6,0.5-16.2-10.5-17-24.6c-0.8-14.1,5.4-25.9,14-26.4c5-0.3,9.6,3.3,12.8,9.1c-2.4-3.4-5.5-5.4-8.8-5.2
			c-6.6,0.5-11.3,9.9-10.5,21.1c0.8,11.1,6.8,19.8,13.4,19.3c4.4-0.3,8-4.7,9.6-10.9C108.9,479,103.6,486.3,96.9,486.7z
			 M106.8,475.2l1-2.1l-0.3-1.5l-1,1l-2.2,4.6l1.8-1.1c-1.5,1.8-3.4,2.8-5.4,3c-6.2,0.5-11.8-7.8-12.5-18.4
			C87.4,450,91.8,441,98,440.5c6.2-0.5,11.8,7.8,12.5,18.4C111,465.5,109.5,471.5,106.8,475.2z M132.4,466.2l-15.1-54.9l5.7,5.3
			l13.2,48L132.4,466.2z M173.9,453.7c-0.4,0.7-3.1,0-3.1,0s-21.8-3.8-24.5-4.3c-2.6-0.4-2.6-2.7-2.6-2.7l-5.5-40.7l3,0.7l0.9,7.7
			l24.8,3.4l0.4,3l-24.6-3.2c0,0,2.9,22.9,3.3,26c0.4,3.1,2,3.5,2,3.5l23.1,3.4l-5-40.7l2.7,0.3h0l4.5,34.1
			C173.1,444.1,174.3,453,173.9,453.7z M173.9,396.2l1.9-9.7l-1.2-4.8c0,0-2-4.9-1.8-6.1c0.2-1.2,3.3-4.9,3.3-4.9l5.7-0.1l-0.7,11.9
			l-2.5,0.1l1.5,4.8c0,0-1.7,7.9-1.9,9.2c-0.2,1.3-0.2,3.1-2.7,3C173,399.4,173.9,396.2,173.9,396.2z M174.6,467.6
			c0,0,1.1-1.2,2.6-2.1c1.5-0.9,3.5-0.6,4.4-0.9s3.6-0.6,4.3-0.7c0.7-0.1,2.3-0.9,2.3-0.9l3.4-0.9l1.9-1.9l1.3,0.1
			c0,0,0.4,3.5,1,5.1c0.6,1.6,2.7,4.8,2.7,4.8L174.6,467.6z M311.6,474.4c-0.3,1-2.3,9.7-2.3,9.7l-52.3-7.5c0,0,4-7.2,4.8-9.1
			c0.6-1.3,1.2-4.4,1.5-6.2c25.1,3.2,48.5,6.1,50.6,6.4C313.1,470.1,311.8,473.7,311.6,474.4z M377.7,531.1
			c-15,2.2-29.4-11.4-32.1-30.2h0c-2.7-18.8,7.3-35.9,22.3-38c12.4-1.8,24.4,7.2,29.7,21c-4.5-10.4-13.8-17.1-23.5-15.7
			c-12.1,1.7-20.2,15.3-18,30.3c2.2,15,13.8,25.8,25.9,24.1c11.2-1.6,18.9-13.2,18.3-26.8C401.7,513.6,391.9,529.1,377.7,531.1z
			 M398.7,492.4L398.7,492.4c2.1,14.2-5.6,27-17,28.7c-11.5,1.6-22.4-8.6-24.5-22.8c-2.1-14.2,5.6-27,17-28.7
			C385.7,468,396.7,478.2,398.7,492.4z M437.6,474.2c0.3,0.7,0.6,1.4,1.1,2.1C438.2,475.6,437.9,474.9,437.6,474.2z M442.7,508v-4
			c0-2,0.2-4.2,0.2-4.2v-4.2l2-3.3l9.4-2.4c0,0,0.4,3.5,3.3,9.9c2.9,6.4,6.6,11,6.6,11L442.7,508z M575.6,414.5L575.6,414.5
			c-1.1,2.4-4.2,5.7-5.5,5c-1.3-0.7-0.7-1.1-0.7-1.1s2-4.2,2.9-12.1c0.9-7.9-0.4-12.5-0.4-12.5s3.7-0.7,4.6,5.3
			S576.7,412,575.6,414.5z M571.8,388.8l-1.3,2.2l-71.4,5l-3.1-1.5c0,0-17.1,2.2-19.1,2.2c-2,0-5.9-0.7-10.3,0.7
			c-4.4,1.3-10.3,9.4-10.3,9.4l-3.1,27.9c0,0,1.3,0.7,2.4,1.1c0.1,0,0.2,0.1,0.4,0.1c-0.2,0.1-0.5,0.3-0.7,0.6
			c-0.9,1.1-1.3,2.4-1.3,2.4s-0.9,11.2-0.4,12.5c0.4,1.3-1.1,5.9,3.7,8.3c4.8,2.4,13.8,2,21.1,1.8c4.7-0.1,15.3-1.8,23.5-3.2
			l0.4,4.5c0,0,0.2,1.3,2,0.9c1.8-0.4,19.8-3.3,22.4-3.5c2.6-0.2,17.3-2,21.1-3.1c3.7-1.1,11.2-1.8,11.9-2.4
			c0.7-0.7-0.9-4.6-0.9-4.6l-1.6,0.2c-0.2,0.3-0.5,0.6-1,0.8c-1,0.3-27.8,4.3-27.8,4.3s-1.1-0.2-1.1-1.4c0-0.5,0.5-3.4,1.2-6.7
			c-4.7,1-8.9,1.8-9.2,1.9c-0.8,0.1-0.8-0.1-0.9-1s1.3-7.2,1.3-7.2s0.6-0.4,1.2-0.7c0.7-0.2,6.8-1.2,8.1-1.5c0.2,0,0.6-0.1,1.2-0.2
			c0,0,0,0.1,0,0.1c0.2-1.1,0.4-1.9,0.4-1.9s0.3-1.8,1.1-2.2c0.8-0.4,1.8-0.4,1.8-0.4l25.5-3.5c0,0,0.4,0,0.9,0.9
			c0.1,0.2,0,1.1-0.1,2.4c0.6-0.1,1-0.1,1.2-0.1c1.1,0,6.3-0.4,7.2-0.3c1,0.1,0.5,0.2,0.8,1.3c0.2,1.1-0.3,4.4-0.5,5.7
			c-0.2,1.3-1.6,1.5-2.9,1.9c-1.1,0.3-5.2,0.4-7,0.4c-0.6,3.7-1.1,6.9-1.1,6.9s0,0.1-0.1,0.3c4.2-0.5,7.8-0.9,9.6-1
			c1.9-0.1,4.5-0.3,7-0.5c-0.2,0.8-2.5,9.5-3.9,11.4c-1.5,1.9-1.6,1.2-6.3,2.5c-1.4,0.4-4.4,1.1-8.2,1.9c-4.9,1.1-11,2.3-16.5,3.5h0
			c-0.3,0.1-0.5,0.1-0.8,0.2c-0.3,0.1-0.6,0.1-0.9,0.2c-0.2,0.1-0.5,0.1-0.7,0.2c-0.4,0.1-0.8,0.2-1.3,0.3c-0.1,0-0.3,0.1-0.4,0.1
			c-0.4,0.1-0.9,0.2-1.3,0.3c-0.2,0-0.3,0.1-0.5,0.1c-0.4,0.1-0.7,0.2-1.1,0.2c-0.1,0-0.2,0.1-0.4,0.1c-0.4,0.1-0.9,0.2-1.3,0.3
			c-0.1,0-0.2,0-0.3,0.1c-0.3,0.1-0.7,0.1-1,0.2c-0.1,0-0.2,0-0.3,0.1c-0.4,0.1-0.8,0.2-1.1,0.3c-2.3,0.5-6.1,1.1-10.5,1.8
			c-0.8,0.1-1.5,0.2-2.3,0.3c-0.9,0.1-1.8,0.2-2.7,0.4c-5.5,0.7-11.5,1.4-16.8,2c-0.3,0-0.5,0.1-0.8,0.1c-1.4,0.2-2.7,0.3-3.9,0.4
			c-0.2,0-0.5,0.1-0.7,0.1c-2.2,0.2-4.1,0.5-5.5,0.6c-1.1,0.1-1.9,0.2-2.5,0.3c-2,0.3-6.8,0.7-12.4,1.1c-1,0.1-2.1,0.2-3.1,0.2
			c-1.1,0.1-2.1,0.2-3.2,0.2c-0.5,0-1.1,0.1-1.6,0.1c-1.1,0.1-2.2,0.1-3.2,0.2c-1,0.1-2,0.1-3,0.2c-0.1,0-0.2,0-0.3,0
			c-0.9,0-1.8,0.1-2.7,0.1c-0.1,0-0.2,0-0.3,0c-0.9,0-1.7,0.1-2.5,0.1c-0.9,0-1.8,0.1-2.6,0.1c-0.7,0-1.4,0-2.1,0h0
			c-1.3,0-2.2,0-2.8-0.1h0c-0.2,0-0.3-0.1-0.5-0.1c0,0-0.1,0-0.1,0c-0.1,0-0.2-0.1-0.3-0.1l-0.1-0.1c-0.1,0-0.2-0.1-0.3-0.2
			c0,0-0.1,0-0.1-0.1c-0.1-0.1-0.3-0.2-0.4-0.3c0,0,0,0,0,0c-0.1-0.1-0.2-0.2-0.3-0.3c0,0-0.1,0-0.1-0.1c-0.1-0.1-0.2-0.2-0.3-0.3
			c0,0,0,0-0.1-0.1c-0.2-0.2-0.4-0.5-0.6-0.8c-0.4-1.5-0.8-2.8-1.2-3.5c-0.2-0.4-0.6-1.1-1.1-2.1c0-0.1,0-0.1,0-0.2
			c0-0.1,0-0.1-0.1-0.2c0-0.1,0-0.1,0-0.1c0-0.1,0-0.1-0.1-0.2c0,0,0-0.1,0-0.1c0-0.1,0-0.1-0.1-0.2l0-0.1c0,0,0-0.1-0.1-0.1
			c0,0,0-0.1,0-0.1c0,0,0-0.1-0.1-0.1c0,0,0-0.1,0-0.1c0,0,0-0.1-0.1-0.1c0,0,0-0.1,0-0.1c0-0.1-0.1-0.1-0.1-0.2s-0.1-0.1-0.1-0.2
			c0,0,0,0,0-0.1c0-0.1-0.1-0.1-0.1-0.2c0,0,0-0.1-0.1-0.1c0-0.1-0.1-0.1-0.1-0.2c0-0.1-0.1-0.1-0.1-0.2c0,0,0-0.1,0-0.1
			c-0.1-0.2-0.3-0.5-0.4-0.8c-2.1-4.9-4.7-11.4-5.5-14.3c-1.2-4.6-8.5-19-10-21.8c-0.5-0.9-1.4-2.4-2.6-4.1
			c-0.1-0.2-0.3-0.4-0.4-0.6c0,0,0-0.1-0.1-0.1c-0.1-0.2-0.3-0.4-0.5-0.7c0,0,0,0,0-0.1c-0.2-0.2-0.3-0.4-0.5-0.7c0,0,0-0.1-0.1-0.1
			c-0.2-0.2-0.3-0.5-0.5-0.7c0,0-0.1-0.1-0.1-0.1c-0.2-0.2-0.4-0.5-0.6-0.7c0,0,0,0,0,0c-0.2-0.2-0.4-0.5-0.6-0.7
			c0,0-0.1-0.1-0.1-0.1c-0.2-0.2-0.4-0.5-0.6-0.7c0,0-0.1-0.1-0.1-0.1c-0.2-0.2-0.4-0.5-0.7-0.7c0,0,0,0,0,0
			c-0.2-0.2-0.5-0.5-0.7-0.7c-0.1,0-0.1-0.1-0.2-0.2c-0.2-0.2-0.5-0.5-0.7-0.7l-0.1-0.1c-0.2-0.2-0.5-0.4-0.7-0.6
			c0,0-0.1-0.1-0.1-0.1c-0.3-0.2-0.5-0.4-0.8-0.6c-0.1,0-0.1-0.1-0.2-0.1c-0.3-0.2-0.5-0.4-0.8-0.6c0,0-0.1,0-0.1-0.1
			c-0.3-0.2-0.5-0.4-0.8-0.5c-0.1,0-0.1-0.1-0.2-0.1c-0.3-0.2-0.6-0.4-0.8-0.5c-0.1,0-0.1-0.1-0.2-0.1c-0.3-0.2-0.6-0.3-0.9-0.5
			c-0.7-0.4-1.5-0.7-2.4-1.2c-0.4-0.2-0.8-0.4-1.2-0.5c-1.1-0.5-2.3-1-3.7-1.5c-1-0.4-2.1-0.8-3.2-1.2c-0.4-0.1-0.8-0.3-1.2-0.4
			c-2-0.6-4.2-1.3-6.6-1.8c-0.5-0.1-1-0.2-1.5-0.3c-6.6-1.4-14.6-2.3-24.5-2c-2.1,0.1-4,0.2-5.8,0.4c-0.4,0.1-0.8,0.1-1.2,0.2
			c-1.6,0.3-3.1,0.6-4.5,0.9c-2.3,0.6-4.3,1.4-6.1,2.3c0,0,0,0,0,0c-8.3,4.1-11.6,10.4-14,14.2c-0.4,0.6-0.7,1.1-1,1.6
			c-0.2,0.3-0.4,0.7-0.7,1.1c-0.1,0.2-0.2,0.5-0.3,0.7c-0.1,0.1-0.1,0.3-0.2,0.4c-0.1,0.3-0.2,0.6-0.3,0.9c-0.2,0.5-0.3,0.9-0.5,1.4
			c-0.5,1.5-1,3.3-1.5,5.2l-0.2,0.6c-0.4,1.5-0.7,3-1.1,4.5c0,0.2-0.1,0.4-0.1,0.7c-0.2,0.9-0.4,1.7-0.6,2.6
			c-0.2,1.1-0.4,2.1-0.6,3.1c-0.1,0.4-0.2,0.8-0.2,1.2c-0.3,1.7-0.6,3.3-0.8,4.5c0,0.3-0.1,0.5-0.1,0.8c-0.1,0.4-0.1,0.7-0.2,1
			c0,0.2-0.1,0.4-0.1,0.5c-0.1,0.5-0.1,0.8-0.1,0.8l-5.1,8.5c0,0-7-0.8-17.4-2.1c-0.8-0.1-1.7-0.2-2.5-0.3c-1.7-0.2-3.5-0.4-5.3-0.7
			c-0.4,0-0.8-0.1-1.2-0.1c-2.6-0.3-5.4-0.7-8.2-1c-0.4-0.1-0.8-0.1-1.3-0.2c-3.7-0.5-7.6-0.9-11.5-1.4c-1-0.1-2.1-0.3-3.1-0.4
			c-1.6-0.2-3.1-0.4-4.7-0.6c-1.1-0.1-2.1-0.3-3.2-0.4c-0.9-0.1-1.7-0.2-2.6-0.3c-1.7-0.2-3.5-0.4-5.2-0.6
			c-6.9-0.9-13.6-1.7-19.6-2.4c-4.5-0.6-8.7-1.1-12.3-1.5c-0.6-0.1-1.2-0.2-1.8-0.2c-7.4-0.9-12.2-1.6-12.4-1.7
			c-0.9-0.4-5.3-4.1-6-5c-0.7-0.9-3.1-8.6-4.7-13.8c-1.6-5.1-2.9-17-2.9-17l0.6-0.7l10.7,0.9l0.2,1.3l-0.3,1.6c0,0,1.5,7,2.7,12.5
			c1.2,5.5,5.9,14.3,5.9,14.3l99.5,10.6l-0.5-28.6l0.6-1.5l0-1.1c4.1,0.4,6.9,0.6,7.1,0.6c1.2,0,2.3-1.6,3.1-2.5
			c0.7-0.9,0.3-1.6-1-1.9c-1.3-0.3-5.9-0.4-5.9-0.4l-3.7-0.3c0.2-1.3,0.7-4.3,0.9-6.4c0.3-2.8-1-13.1-1-26c0-12.8,0.4-22.5,0.4-22.5
			s-0.9-2.1-2.4-3.9c-1.5-1.8-2.6-5.1-2.6-5.1s-24.5-47.7-27.5-53.4c-3-5.7-6.6-6.4-9-7.2c-2.4-0.7-44.8,0.1-44.8,0.1
			s-3.9,10.6-6.3,24.3c-2.4,13.7-5.9,33.6-5.9,33.6l-3.3,0.4l-3,4.5v0.8l-11.6-0.3c0.5-1.5,0.9-2.7,1.1-3.3c0.9-2.1,1.8-1.9,1.8-1.9
			s-0.3-0.1-0.3-1.5s4-17.6,7-29c3.1-11.4,9.4-26.1,9.4-26.1s-0.9-0.4-1-0.7c-0.1-0.3,1.9-2.9,4.1-4.4c2.2-1.5,6.4-2.8,13.9-3.7
			c7.5-0.9,23.3-1.9,40-2.3c16.7-0.4,32.6,0.3,52.3,1.3s42.7,5.1,47.3,6.1c3.2,0.7,7.7,2.6,11,4.2c-9.2-2.7-23.8-4-27.6-4.4
			c-4.8-0.4-40.5-1.8-52.1-0.3c-11.6,1.5-11.4,1.3-12.9,2c-1.5,0.7-3.7,0.7-2.1,4c1.6,3.2,13.5,24.2,13.5,24.2l14.6,26.6
			c0,0-0.3,2.1,4.7,2.1c1.1,0,4.1-0.1,8-0.2c0.8-0.8,1.8-1.5,3.2-1.6c8.7-1.1,17.5-0.5,26.2-0.5c1.2,0,2.1,0.3,2.9,0.9
			c4.5-0.2,8-0.3,9.5-0.4c5.9-0.3,37.6-0.9,46.5-0.7c7.7,0.1,17.1,0.5,19.5,0.6c0.6,0.6,0.9,1,1,1c1,1.2,1.3,2.5,1.3,2.5
			s7.6,2.3,20.3,4c12.7,1.6,37,5,52.4,7.6c15.4,2.6,36.9,6,55.8,12.7l0,0c18.9,6.7,18.9,10.2,19,11c0,0.2,0,0.4-0.1,0.6L571.8,388.8
			z M470.2,405.5c0,0,1.8-4.4,3.5-5.7c1.8-1.3,3.7-2.8,7.2,1.3c3.5,4.2,4,11,3.7,12.3c-0.2,1.3,0.7,9-3.7,14.3
			c-4.4,5.3-7.7,2.6-9.4,1.5c-1.8-1.1-2.6-5-2.6-5L470.2,405.5z M467.6,432.5l-11.9,0.4l2-25.3l7.7-7.7l4.4-1.3h0L467.6,432.5z
			 M482.9,443.4c0,0,13.8-0.7,15.1-0.7s0.9,0.9,0.9,0.9s-0.2,4.8-1.1,7c-0.9,2.2-2.4,2-2.4,2s-13,1.5-13.6,0.9
			C481.2,452.9,482.9,443.4,482.9,443.4z M307.9,320h-11.4c0,0-9.5-17.1-9.7-17.7c-0.1-0.6,17.4,2.6,18.7,3.5
			c1.3,0.9,1.3,1.8,1.6,4.2C307.5,312.5,307.9,320,307.9,320z M584.4,439.3c-1.1,1.1-4.6,1.8-4.8,0.9c-0.2-0.9,1.1-7.9,1.1-7.9
			l5.9-1.5C586.5,430.7,585.5,438.2,584.4,439.3z"/>
		<path stroke="#FFFFFF" d="M388.4,510.8c-0.8-0.1-2.4,2-2.4,2l-2.4,5.9c0,0,5.2-1.8,6.2-2.6c1.1-0.8-0.1-3.1-0.1-3.1
			S389.3,511,388.4,510.8z"/>
		<path stroke="#FFFFFF" d="M559.3,432.2c-0.4-0.8-0.8-0.8-0.8-0.8l-24.3,3.3c0,0-0.9,0-1.7,0.4c-0.7,0.4-1,2-1,2s-3.1,14.9-3.1,16
			c0,1.1,1,1.3,1,1.3s25.6-3.7,26.5-4c0.9-0.3,1.2-1.3,1.2-1.3S559.7,433,559.3,432.2z"/>
		<path stroke="#FFFFFF" d="M100.5,471.2c-1.4,0.8-3.6,2.6-3.6,2.6l-0.3,1.9l2.7,1.8c0,0,1.1,0.1,1.3-0.7c0.2-0.8,1.4-4.6,1.4-4.6
			S101.9,470.4,100.5,471.2z"/>
		<path stroke="#FFFFFF" d="M97.1,464.2c-0.2-0.7-1.3-0.8-1.3-0.8h-3.3c0,0-1.2-0.3-1.8,0.2c-0.5,0.5,0,2.1,0,2.1l1.3,3.4
			c0,0,0.8,0.3,1.5,0.3c0.8,0,0.9-0.5,0.9-0.5l2.9-2.6C97.3,466.3,97.3,464.8,97.1,464.2z"/>
		<path stroke="#FFFFFF" d="M103.9,452.2c-2.2,0.2-3.8,3.5-3.5,7.5c0.3,3.9,2.3,7,4.5,6.8c2.2-0.2,3.8-3.5,3.5-7.5
			C108,455.1,106,452,103.9,452.2z"/>
		<path stroke="#FFFFFF" d="M100.2,448c0.7-0.2-0.1-1.4-0.1-1.4l-2.7-4.2c0,0-1.2,0.2-2,0.9c-0.8,0.7-1.4,2-1.4,2l4.2,2.6
			C98.2,447.9,99.6,448.3,100.2,448z"/>
		<path stroke="#FFFFFF" d="M375.1,478.4c0.8-0.4,0.5-1.7,0.5-1.7l-2.6-4.3l-1.7-0.1l-4.3,3.1c0,0,4.1,2.4,5,3
			C373,479,374.3,478.7,375.1,478.4z"/>
		<path stroke="#FFFFFF" d="M377.1,510.2c-1-0.6-2.3,0.5-2.3,0.5l-5.4,4l4.9,3.5l2.2-0.5l1.8-5C378.2,512.6,378,510.8,377.1,510.2z"
			/>
		<path stroke="#FFFFFF" d="M362.2,482.2c0,0-1.8,2.2-2.2,3.7c-0.4,1.6,0,4.3,0,4.3s5.8-0.4,7-1.1c1.2-0.7,1.8-1,1.4-2.2
			C368.1,485.8,362.2,482.2,362.2,482.2z"/>
		<path stroke="#FFFFFF" d="M360.3,500.1l2.6,7.2c0,0,1.3,0.2,2.2-0.1c0.8-0.4,2-2.2,2-2.2l-3.7-5.6L360.3,500.1z"/>
		<path stroke="#FFFFFF" d="M433.4,464c-0.3-0.7-0.6-1.4-1-2.2C432.8,462.5,433.1,463.3,433.4,464z"/>
		<path stroke="#FFFFFF" d="M557.3,450.2c0.1-0.1,0.1-0.2,0.1-0.3C557.4,450,557.4,450.1,557.3,450.2z"/>
		<path stroke="#FFFFFF" d="M558.8,441.5c0.1-1,0.3-2,0.4-3C559.1,439.5,559,440.5,558.8,441.5z"/>
	</g>
</g>
<path stroke="#000000" stroke-width="2.7123" d="M458.1,282.3c-0.5-1.1-1.1-1.2-1.1-1.2l0,0l-0.2,0.1l-1-0.8l-0.5,0.2l0.4,1.2
	l-65.9,31.3c0,0-0.5,0-0.7,0c-0.3,0-1.2-0.8-2-0.6c-0.7,0.2-1.3,1-1.6,1.2c-0.3,0.2-0.5,0.6-1,0.8c-0.5,0.2-8,4.2-8.2,4.1
	c-0.2-0.2-0.5-0.4-0.5-0.4l-0.4,0.2l-0.1,0.6l-0.3,0.1l-0.4-0.4l-1.4,0.6l-0.1,0.6l-0.4,0l-0.2-0.3l-1.3,0.7l0.6,1.6l-2.5,1.2
	l0.1,0.3l-2.3,1.1l0.7,1.9c0,0-1.9,1.8-2.1,2.2c-0.2,0.4-2.8,3-3.1,3.2c-0.3,0.2-1.5,1-2.1,1c-0.6,0-1.5-0.4-1.7-0.4
	c-0.2-0.1-0.3,0-0.3,0l-19.4,10c0,0-2.5-1.6-4.3,1.1c-2.1,3.2-4.6,4.9-6,5.7c7.7-0.8,15.4-0.5,23.1-0.4c3.4-3.2,6.6-4.4,7.1-4.6
	c1.3-0.6,5,0.6,6.1-0.1c1.1-0.7,2.5-1.9,2.5-1.9s-1.6-4.9-0.8-6.6c0.8-1.8,3.3-2.9,3.3-2.9s0.9,1.6,1.6,1.9c0.7,0.3,2.5,0.3,3.9-0.3
	s2.1-1.7,2.1-2.1c-0.1-0.3-1.1-2.6-1-2.9c0.1-0.3,3.5-2.1,3.8-2.2c0.1,0,4-3.6,10.5-5.7c9.9-3.2,22.2-11.1,28.9-15.7
	c2.9-2,5.1-2.8,5.1-2.8c0.3-0.3,0.6-0.6,0.4-1.1s-0.8-1.7-0.8-1.7l33.2-16C458.3,283.8,458.6,283.3,458.1,282.3z M377.7,332
	c0,0.4-0.3,0.7-0.8,1.1s-1.6,0.7-1.9,0.8s-2.4-0.1-2.7-0.1c-0.3-0.1-1.1-1.5-1.1-1.5c0.1,0,0.7-0.3,0.9-0.6c0.2-0.3,1.2-0.7,1.2-0.7
	s0.2,1.1,0.4,1.3c0.2,0.2,1.6,0.5,1.6,0.5s-0.8-0.6-1-0.7c-0.2-0.1-0.3-0.5-0.4-0.9c-0.1-0.4,0.1-0.6,0.1-0.6s0.7-0.4,1.2-0.6l0,0
	c0.5-0.2,1.4-0.4,1.6-0.2C377,330,377.7,331.6,377.7,332z"/>
<path stroke="#000000" stroke-width="2.7123" d="M239.9,351.9c0.2,0.5,0.4,1,0.6,1.4c6.2-0.1,12.7-0.3,18.9,0.3
	c0.3-0.3,0.6-0.6,0.8-0.9c0.9-1.3,0.4-2.2,0.4-2.2c0,0.1-3.7-2-5.8-7.4c-1.2-3.1-4-1.8-4-1.8L233.5,328c0,0,0,0-0.3,0
	c-0.2,0-1.2,0.2-1.8,0.2c-0.6,0-1.6-1.1-1.9-1.3c-0.3-0.2-2.3-3.3-2.4-3.8c-0.1-0.4-1.7-2.6-1.7-2.6l1.1-1.8l-2.1-1.5l0.2-0.3
	l-2.2-1.6l0.9-1.5l-1.1-0.9l-0.2,0.3l-0.4,0l0-0.6l-1.2-0.8l-0.4,0.3l-0.3-0.2l0-0.7l-0.3-0.2c0,0-0.3,0.2-0.5,0.3
	c-0.2,0.1-6.9-5.2-7.4-5.5c-0.4-0.3-0.5-0.7-0.8-0.9c-0.3-0.2-0.7-1.1-1.3-1.5s-1.8,0.4-2.1,0.3c-0.3-0.1-0.7-0.1-0.7-0.1
	l-59.3-42.5l0.6-1.1l-0.5-0.3l-1.2,0.6l-0.2-0.1l0,0c0,0-0.6,0-1.3,1c-0.7,0.9-0.5,1.4-0.5,1.4l29.8,21.6c0,0-0.9,1.2-1.1,1.7
	c-0.3,0.5-0.1,0.8,0.2,1.2c0.1,0.1,2.1,1.2,4.5,3.7c5.7,5.8,16.4,15.8,25.6,20.7c6,3.2,9.2,7.4,9.3,7.5c0.3,0.2,3.3,2.5,3.4,2.9
	c0,0.3-1.5,2.5-1.6,2.8c-0.1,0.3,0.4,1.7,1.6,2.5c1.2,0.8,3,1.1,3.8,0.9c0.8-0.2,2-1.6,2-1.6s2.3,1.5,2.7,3.5
	c0.5,1.9-2.1,6.7-2.1,6.7s1.2,1.5,2.1,2.4c1,0.9,4.9,0.3,6.1,1.1C231.1,340.3,237,343.9,239.9,351.9z M219.9,327.5
	c-0.3,0-2.5-0.1-2.7-0.3c-0.3-0.2-1.3-0.7-1.7-1.2c-0.4-0.5-0.7-0.9-0.6-1.3s1.1-1.9,1.4-2.1c0.3-0.2,1.1,0.2,1.6,0.5h0
	c0.5,0.3,1.1,0.8,1.1,0.8s0.2,0.3,0,0.7c-0.2,0.4-0.3,0.8-0.6,0.9c-0.3,0.1-1.2,0.5-1.2,0.5s1.5,0,1.7-0.2c0.2-0.2,0.7-1.3,0.7-1.3
	s1,0.6,1.1,0.9c0.1,0.3,0.7,0.7,0.7,0.8C221.3,326.1,220.2,327.5,219.9,327.5z"/>
</svg>
