<?xml version="1.0" encoding="utf-8"?>
<!-- Generator: Adobe Illustrator 18.1.1, SVG Export Plug-In . SVG Version: 6.00 Build 0)  -->
<svg version="1.1" id="Layer_1" xmlns="http://www.w3.org/2000/svg" xmlns:xlink="http://www.w3.org/1999/xlink" x="0px" y="0px"
	 viewBox="0 0 595.3 841.9" enable-background="new 0 0 595.3 841.9" xml:space="preserve">
<image overflow="visible" enable-background="new    " width="400" height="400" xlink:href="../../../Downloads/horse shoes 2.jpg"  transform="matrix(0.8247 0 0 0.8247 164.1364 252.3618)">
</image>
<image overflow="visible" enable-background="new    " width="830" height="831" xlink:href="../../../Downloads/bullets cartridges and sheels copy.jpg"  transform="matrix(0.2947 0 0 0.2947 0 245.5009)">
</image>
<g id="layer1" transform="translate(36.655 -281.02)">
	<g id="Layer_1_1_" transform="translate(-36.659 281.02)">
		<path fill="#010202" stroke="#FFFFFF" d="M398.2,478.1c-0.5,0-0.9,0.6-0.9,1.3s0.4,1.3,0.9,1.3c0.5,0,0.9-0.6,0.9-1.3
			C399.1,478.7,398.7,478.1,398.2,478.1z"/>
		<path fill="#010202" stroke="#FFFFFF" d="M411.9,465.4c4.3,0,8.9-0.3,13.1,0.4c0.4,0.1,0.7,0.2,0.9,0.3l17.4,0.3
			c0,0-11.6-22.5-13.3-25.5c-1.6-3-2.6-2.2-4.8-2.6c-2.2-0.4-19.2,0.1-19.2,0.1s-2.3,8.1-3.3,13.4s-1.9,13.9-1.9,13.9l9.7,0.2
			C410.9,465.5,411.3,465.4,411.9,465.4z M436.3,454.8l-1.1,1.6l-4.7-0.2l1.7-9.8L436.3,454.8z M406.3,453.5
			c-0.5,1.2-0.8,2.6-0.8,2.6l0,0h-1.9c0,0,0.7-5.6,1.5-8.3c0.8-2.6,2.1-7.6,2.7-8.2c0.7-0.6,1-1,3-0.9c1.9,0.1,13.1,0,13.1,0
			s2.7,0,3.7,0.5c1.1,0.5,2.3,2.9,2.6,3.4c0.3,0.5,0.5,1,0.5,1s-0.8,3.4-1.1,5.8c-0.3,2.4-1.1,6.6-1.1,6.6l-2.6,0.2
			c0,0-0.2-0.1-0.8-0.4c-0.6-0.3-1.1-0.3-1.1-0.3s-0.3-2.1-1.3-3.1c-1-1-2.1-1.9-6.6-2.3c-4.6-0.4-6.3-0.6-7.5,0.1
			C407.4,450.9,406.8,452.3,406.3,453.5z"/>
		<polygon fill="#010202" stroke="#FFFFFF" points="405.1,473.4 406.3,472.5 407.5,470 398.2,469.9 397.7,470.1 397.1,471.7 
			398.8,473.2 		"/>
		<path fill="#010202" stroke="#FFFFFF" d="M339.2,518.2c0,0,0.5-0.4,0.7-0.7l0,0c0.2-0.4-0.4-0.9-0.4-0.9l-1.8-1.3
			c0,0-0.1-0.1-0.5-0.2s-0.7,0.5-0.7,0.5s-0.2,1.7-0.2,2.2s0.5,0.6,0.5,0.6L339.2,518.2z"/>
		<path fill="#010202" stroke="#FFFFFF" d="M493.7,535.7c0,0-0.2-1.1-0.6-1.9c-0.4-0.9-1-1.8-1-1.8s0,1.4,0.3,2.4
			C492.6,535.3,493.7,535.7,493.7,535.7z"/>
		<path fill="#010202" stroke="#FFFFFF" d="M488.3,529.8c0.6,0,1.1-0.2,0.9-0.8c-0.3-0.6-0.5-1.2-0.5-1.2l-3.1-1.5l1.3,2.5
			C486.9,528.8,487.7,529.8,488.3,529.8z"/>
		<path fill="#010202" stroke="#FFFFFF" d="M492.5,542.2c-0.2,0.4,0.5,2.7,0.5,2.7l1-3.4c0,0-0.4-0.6-0.9-0.7
			C492.5,540.6,492.7,541.9,492.5,542.2z"/>
		<path fill="#010202" stroke="#FFFFFF" d="M518.8,490.2l-7-0.5c0,0-0.4,0.2-0.7,0.2c-0.4,0.1-0.4,0.5-0.5,1.2
			c-0.1,0.7-0.2,1.5,0,1.8c0.2,0.3,0.7,0.4,0.7,0.4s7.9,0.4,8.1,0.4c0.2-0.1,0.4-0.6,0.4-0.6l0.2-1.7c0,0-0.1-0.7-0.3-1
			C519.7,490.1,518.8,490.2,518.8,490.2z"/>
		<polygon fill="#010202" stroke="#FFFFFF" points="344.4,513.5 344.5,512.8 342.7,511.2 344,513.3 		"/>
		<path fill="#010202" stroke="#FFFFFF" d="M479.7,538.8c0.6,4.7,4,8.1,7.5,7.5c3.5-0.6,5.9-4.8,5.2-9.5c-0.6-4.7-4-8.1-7.5-7.5
			C481.4,529.9,479.1,534.1,479.7,538.8z M485.1,530.1c3.2-0.5,6.3,2.6,6.9,6.8c0.6,4.3-1.5,8.1-4.8,8.6c-3.2,0.5-6.3-2.6-6.9-6.8
			C479.8,534.5,481.9,530.6,485.1,530.1z"/>
		<path fill="#010202" stroke="#FFFFFF" d="M595.1,502.1c-0.5-1.1-3.3-2.6-3.3-2.6s-1.4-0.4-1.6-1c-0.2-0.6,0.3-14.8,0.3-14.8
			s0.5-0.3,0.4-0.6c-0.1-0.4,0.3-2.7-9.6-6.4c-9.9-3.6-21.1-5.3-29.2-6.7c-8.1-1.4-20.8-3.2-27.4-4.1S514,464,514,464
			s-0.2-0.6-0.7-1.2c-0.5-0.6-25.6-26.7-27-27.6s-5.1-2.7-7.5-3.2c-2.4-0.6-14.5-2.8-24.7-3.3c-10.3-0.6-18.6-0.9-27.3-0.7
			c-8.7,0.3-17,0.8-20.9,1.3c-0.9,0.1-1.7,0.3-2.5,0.4l-14.3-0.7h-2.6l-9.7,37.3l-7.6-0.2l-78,1.1l-0.7,0.4l-0.1,13.7l1,0.4l0.7,9.4
			l1.6,0.1l0.5-1.1c0,0.3,0.2,0.4,0.2,0.4l27.3,3.2l1.5,4.2c-1.8,8.6-3.8,20-3.7,20.2c0.1,0.3,5.9-2,5.8-1.4
			c-0.4,2.8,0.5,8.3,0.5,8.3l0.7,2.4l-33.6,4.7c0,0-2.2,0.2-1.5,0.8c0.7,0.6,2.9,1,2.9,1l44.9,9.3l34.7,5.5l7-2.4l2.2,1.5l61.2,10.4
			l1.7,1.5l-1.6,1l0.9,0.9l8.1-1.4l1.1,0.5l-2.5,1.5c0,0,11.6,4.6,22,6.3c10.4,1.7,21.2,4.1,24.6,3.7c3.4-0.4,10.9-2.5,10.9-2.5
			s4.5,1.3,6.5,1c2.1-0.4,14.6-1.9,20.3-3.8c5.6-1.9,38.3-11.3,40.1-12.2c1.8-0.9,3.3-1.3,1.9-2.4c-1.3-1-15.7-2.2-15.7-2.2
			s7.8-5.7,9.9-11.7c1.8-5.1,2.9-9.2,3-13.7c2.9-0.7,5.4-1.2,6.4-1.5c2.5-0.7,2.5-0.3,3.3-1.3c0.8-1,2.1-6.1,2.1-6.1
			s4.9-1.2,5.9-2.4c1.1-1.2,2-1.3,2.2-4.3l0,0C595.2,506.1,595.6,503.2,595.1,502.1z M496.6,454.2c1.6,1.6,4.4,5.6,4.4,5.6l-1.6-0.1
			c0,0-0.2-1.3-0.3-1.7c-0.2-0.4-1.9-0.1-1.9-0.1s-2.7,0.1-3-0.4c-0.3-0.5-2.1-1.4-2.1-1.4l-1.1-7.1
			C491.1,449,495,452.6,496.6,454.2z M488.4,446.2c0.4,0.5,0.5,3,0.8,4.2c0.3,1.1,2.1,10.9,2.1,10.9S484,461,483,461
			c-1-0.1-13.1-0.5-13.1-0.5s-0.6-1.3-1.1-1.7c-0.5-0.5-2.9-0.5-2.9-0.5s-1-5.8-1.3-7.4c-0.3-1.6-2.3-9.8-2.3-9.8s7.2-0.3,11.3-0.5
			c4.1-0.2,8.2,0.8,9.3,1.2C484.2,442.3,488,445.7,488.4,446.2z M389,432.5l7.8,0.4c-0.3,0.4-0.5,0.7-0.5,0.8
			c0.1,0.2,0.5,0.4,0.5,0.4s-3.3,7.8-4.9,14c-1.6,6.2-3.7,14.9-3.7,15.5s0.2,0.8,0.2,0.8s-0.5-0.1-0.9,1c-0.1,0.3-0.3,0.7-0.5,1.3
			l-7-0.3L389,432.5z M395.3,467.8v-0.3l1.5-2.3l1.6-0.2c0,0,1.7-10,2.9-16.9c1.2-6.9,3.2-12.3,3.2-12.3s21.2-0.5,22.4-0.1
			c1.2,0.4,3,0.8,4.5,3.6c1.5,2.9,13.7,26.9,13.7,26.9s0.5,1.6,1.3,2.6c0.8,0.9,1.2,1.9,1.2,1.9s-0.2,4.9-0.2,11.3
			s0.7,11.6,0.5,13.1c-0.2,1.4-0.5,3.6-0.5,3.6l0,0l-54.2-4.3v-0.1c0,0,0.2-1.3,0.2-2.4c-0.1-1.1-0.8-11.4-0.7-13.1
			c0.2-1.7,0.5-4,0.6-4.4c0.2-0.4,0.4-0.3,0.5-0.8c0.1-0.3,0.6-2.1,1-3.5l0.9-2.5H395.3z M447.5,516.5l-49.7-5.3
			c0,0-2.3-4.4-2.9-7.2c-0.6-2.8-1.3-6.3-1.3-6.3l0.2-0.8l-0.1-0.2l29.6,2.5c0,0,16.3,1.4,24.3,2.1v0.2l-0.3,0.8L447.5,516.5z
			 M392.5,474.6c-0.2,0.4-0.5,2.7-0.6,4.5c-0.2,1.7,0.6,12.3,0.7,13.4c0.1,0.8-0.1,1.6-0.1,2.1l-5.4-0.4l0.1,0.4
			c-0.2,0-0.3-0.1-0.2-0.6c0.2-0.8,0.2-3.4,0-7.6c-0.2-4.2-0.4-8.9-0.2-11.1c0.1-0.4,0.2-0.9,0.3-1.6l0.1,0.3l5.8,0.2
			C392.8,474.3,392.6,474.3,392.5,474.6z M385.7,496.1l-0.3-0.3l0.3-0.4L385.7,496.1z M370.2,467.5l6.2,0.2l-0.9,3.3l-60.5-2.8
			L370.2,467.5z M369.9,487.9l1.9,0.2c0,0,0,0.3-0.1,0.7c0,0.1,0,0.1,0,0.2c-1.3-0.1-2.8-0.1-4.5-0.1c-0.2-0.2-0.4-0.5-0.4-0.7
			c0.1-0.4,0.9-0.4,0.9-0.4l0.3-0.6l0.2-2.9c0,0,0.5-0.3,1-0.3c0.6,0,1.1,0.4,1.1,0.4l-0.1,2.8l-0.5,0.3L369.9,487.9z M293.8,482.5
			c0,0-0.5-0.5-0.5-0.7c0.1-0.3,0.7-0.3,0.7-0.3l0.2-0.5l0.1-2.2c0,0,0.4-0.2,0.8-0.2c0.4,0,0.9,0.3,0.9,0.3l-0.1,2.2l-0.4,0.3
			l0.1,0.3l1.5,0.2c0,0,0,0.3-0.1,0.5c-0.1,0.3-0.1,0.5-0.1,0.5L293.8,482.5z M310.2,490.9l-0.1-3.8l-0.9-0.1l-0.1,3.7l-14.2-1.6
			c0,0-0.4-0.1-0.7,0.2l1.5-3.7l23.6,2.3l1.5,4.2L310.2,490.9z M323.6,495.3l-0.5-1.4l0.8,0.1C323.8,494.4,323.7,494.8,323.6,495.3z
			 M325.6,488.7c-0.4,0.5-0.8,1.9-1.3,3.8l-1.7-0.2l0,0l-1.6-4.2l4.9,0.5C325.7,488.6,325.7,488.6,325.6,488.7z M329.9,485.2
			c-0.1,0.3-0.1,0.5-0.1,0.5l0,0l-3.9-0.3c0,0-0.6-0.5-0.6-0.9c0.1-0.4,0.9-0.3,0.9-0.3l0.3-0.5l0.2-2.7c0,0,0.4-0.3,1-0.3
			c0.5,0,1,0.4,1,0.4l-0.1,2.6l-0.4,0.3l0.1,0.3l1.8,0.2C329.9,484.6,329.9,484.8,329.9,485.2z M339.9,533.7
			c-4.4,0.3-8.3-5.4-8.7-12.6c-0.4-7.2,2.8-13.3,7.2-13.5c2.6-0.2,4.9,1.7,6.6,4.7c-1.2-1.7-2.8-2.8-4.5-2.7
			c-3.4,0.3-5.8,5.1-5.4,10.8c0.4,5.7,3.5,10.2,6.9,9.9c2.3-0.2,4.1-2.4,4.9-5.6C346,529.8,343.3,533.5,339.9,533.7z M345,527.8
			l0.5-1.1l-0.2-0.8l-0.5,0.5l-1.1,2.4l0.9-0.6c-0.8,0.9-1.7,1.4-2.8,1.5c-3.2,0.3-6.1-4-6.4-9.4c-0.4-5.5,1.8-10.1,5-10.4
			s6.1,4,6.4,9.4C347.1,522.8,346.4,525.9,345,527.8z M358.1,523.2l-7.7-28.2l2.9,2.7l6.8,24.6L358.1,523.2z M379.4,516.8
			c-0.2,0.4-1.6,0-1.6,0s-11.2-1.9-12.6-2.2c-1.3-0.2-1.3-1.4-1.3-1.4l-2.8-20.9l1.5,0.4l0.5,3.9l12.7,1.7l0.2,1.5l-12.6-1.6
			c0,0,1.5,11.7,1.7,13.3c0.2,1.6,1,1.8,1,1.8l11.8,1.7l-2.6-20.9l1.4,0.2l0,0l2.3,17.5C379,511.9,379.6,516.4,379.4,516.8z
			 M379.4,487.3l1-5l-0.6-2.5c0,0-1-2.5-0.9-3.1c0.1-0.6,1.7-2.5,1.7-2.5l2.9-0.1l-0.4,6.1l-1.3,0.1l0.8,2.5c0,0-0.9,4.1-1,4.7
			c-0.1,0.7-0.1,1.6-1.4,1.5C378.9,488.9,379.4,487.3,379.4,487.3z M379.7,523.9c0,0,0.6-0.6,1.3-1.1c0.8-0.5,1.8-0.3,2.3-0.5
			s1.8-0.3,2.2-0.4c0.4-0.1,1.2-0.5,1.2-0.5l1.7-0.5l1-1l0.7,0.1c0,0,0.2,1.8,0.5,2.6c0.3,0.8,1.4,2.5,1.4,2.5L379.7,523.9z
			 M450,527.4c-0.2,0.5-1.2,5-1.2,5l-26.8-3.8c0,0,2.1-3.7,2.5-4.7c0.3-0.7,0.6-2.3,0.8-3.2c12.9,1.6,24.9,3.1,26,3.3
			C450.8,525.2,450.1,527.1,450,527.4z M483.9,556.5c-7.7,1.1-15.1-5.8-16.5-15.5l0,0c-1.4-9.6,3.7-18.4,11.4-19.5
			c6.4-0.9,12.5,3.7,15.2,10.8c-2.3-5.3-7.1-8.8-12.1-8.1c-6.2,0.9-10.4,7.8-9.2,15.5s7.1,13.2,13.3,12.4c5.7-0.8,9.7-6.8,9.4-13.7
			C496.2,547.5,491.2,555.5,483.9,556.5z M494.7,536.6L494.7,536.6c1.1,7.3-2.9,13.8-8.7,14.7c-5.9,0.8-11.5-4.4-12.6-11.7
			c-1.1-7.3,2.9-13.8,8.7-14.7C488,524.1,493.7,529.4,494.7,536.6z M514.6,527.3c0.2,0.4,0.3,0.7,0.6,1.1
			C514.9,528,514.8,527.7,514.6,527.3z M517.2,544.6v-2.1c0-1,0.1-2.2,0.1-2.2v-2.2l1-1.7l4.8-1.2c0,0,0.2,1.8,1.7,5.1
			c1.5,3.3,3.4,5.6,3.4,5.6L517.2,544.6z M585.4,496.7L585.4,496.7c-0.6,1.2-2.2,2.9-2.8,2.6c-0.7-0.4-0.4-0.6-0.4-0.6
			s1-2.2,1.5-6.2c0.5-4.1-0.2-6.4-0.2-6.4s1.9-0.4,2.4,2.7C586.3,491.9,586,495.4,585.4,496.7z M583.5,483.5l-0.7,1.1l-36.6,2.6
			l-1.6-0.8c0,0-8.8,1.1-9.8,1.1c-1,0-3-0.4-5.3,0.4c-2.3,0.7-5.3,4.8-5.3,4.8l-1.6,14.3c0,0,0.7,0.4,1.2,0.6c0.1,0,0.1,0.1,0.2,0.1
			c-0.1,0.1-0.3,0.2-0.4,0.3c-0.5,0.6-0.7,1.2-0.7,1.2s-0.5,5.7-0.2,6.4c0.2,0.7-0.6,3,1.9,4.3c2.5,1.2,7.1,1,10.8,0.9
			c2.4-0.1,7.8-0.9,12.1-1.6l0.2,2.3c0,0,0.1,0.7,1,0.5s10.2-1.7,11.5-1.8c1.3-0.1,8.9-1,10.8-1.6c1.9-0.6,5.7-0.9,6.1-1.2
			c0.4-0.4-0.5-2.4-0.5-2.4L576,515c-0.1,0.2-0.3,0.3-0.5,0.4c-0.5,0.2-14.3,2.2-14.3,2.2s-0.6-0.1-0.6-0.7c0-0.3,0.3-1.7,0.6-3.4
			c-2.4,0.5-4.6,0.9-4.7,1c-0.4,0.1-0.4-0.1-0.5-0.5c-0.1-0.5,0.7-3.7,0.7-3.7s0.3-0.2,0.6-0.4c0.4-0.1,3.5-0.6,4.2-0.8
			c0.1,0,0.3-0.1,0.6-0.1v0.1c0.1-0.6,0.2-1,0.2-1s0.2-0.9,0.6-1.1c0.4-0.2,0.9-0.2,0.9-0.2l13.1-1.8c0,0,0.2,0,0.5,0.5
			c0.1,0.1,0,0.6-0.1,1.2c0.3-0.1,0.5-0.1,0.6-0.1c0.6,0,3.2-0.2,3.7-0.2c0.5,0.1,0.3,0.1,0.4,0.7c0.1,0.6-0.2,2.3-0.3,2.9
			c-0.1,0.7-0.8,0.8-1.5,1c-0.6,0.2-2.7,0.2-3.6,0.2c-0.3,1.9-0.6,3.5-0.6,3.5s0,0.1-0.1,0.2c2.2-0.3,4-0.5,4.9-0.5
			c1-0.1,2.3-0.2,3.6-0.3c-0.1,0.4-1.3,4.9-2,5.8c-0.8,1-0.8,0.6-3.2,1.3c-0.7,0.2-2.3,0.6-4.2,1c-2.5,0.6-5.6,1.2-8.5,1.8l0,0
			c-0.2,0.1-0.3,0.1-0.4,0.1c-0.2,0.1-0.3,0.1-0.5,0.1c-0.1,0.1-0.3,0.1-0.4,0.1c-0.2,0.1-0.4,0.1-0.7,0.2c-0.1,0-0.2,0.1-0.2,0.1
			c-0.2,0.1-0.5,0.1-0.7,0.2c-0.1,0-0.2,0.1-0.3,0.1c-0.2,0.1-0.4,0.1-0.6,0.1c-0.1,0-0.1,0.1-0.2,0.1c-0.2,0.1-0.5,0.1-0.7,0.2
			c-0.1,0-0.1,0-0.2,0.1c-0.2,0.1-0.4,0.1-0.5,0.1c-0.1,0-0.1,0-0.2,0.1c-0.2,0.1-0.4,0.1-0.6,0.2c-1.2,0.3-3.1,0.6-5.4,0.9
			c-0.4,0.1-0.8,0.1-1.2,0.2c-0.5,0.1-0.9,0.1-1.4,0.2c-2.8,0.4-5.9,0.7-8.6,1c-0.2,0-0.3,0.1-0.4,0.1c-0.7,0.1-1.4,0.2-2,0.2
			c-0.1,0-0.3,0.1-0.4,0.1c-1.1,0.1-2.1,0.3-2.8,0.3c-0.6,0.1-1,0.1-1.3,0.2c-1,0.2-3.5,0.4-6.4,0.6c-0.5,0.1-1.1,0.1-1.6,0.1
			c-0.6,0.1-1.1,0.1-1.6,0.1c-0.3,0-0.6,0.1-0.8,0.1c-0.6,0.1-1.1,0.1-1.6,0.1c-0.5,0.1-1,0.1-1.5,0.1c-0.1,0-0.1,0-0.2,0
			c-0.5,0-0.9,0.1-1.4,0.1c-0.1,0-0.1,0-0.2,0c-0.5,0-0.9,0.1-1.3,0.1c-0.5,0-0.9,0.1-1.3,0.1c-0.4,0-0.7,0-1.1,0l0,0
			c-0.7,0-1.1,0-1.4-0.1l0,0c-0.1,0-0.2-0.1-0.3-0.1h-0.1c-0.1,0-0.1-0.1-0.2-0.1l-0.1-0.1c-0.1,0-0.1-0.1-0.2-0.1
			c0,0-0.1,0-0.1-0.1c-0.1-0.1-0.2-0.1-0.2-0.2l0,0c-0.1-0.1-0.1-0.1-0.2-0.2c0,0-0.1,0-0.1-0.1c-0.1-0.1-0.1-0.1-0.2-0.2
			c0,0,0,0-0.1-0.1c-0.1-0.1-0.2-0.3-0.3-0.4c-0.2-0.8-0.4-1.4-0.6-1.8c-0.1-0.2-0.3-0.6-0.6-1.1c0-0.1,0-0.1,0-0.1s0-0.1-0.1-0.1
			c0-0.1,0-0.1,0-0.1c0-0.1,0-0.1-0.1-0.1v-0.1c0-0.1,0-0.1-0.1-0.1v-0.1c0,0,0-0.1-0.1-0.1v-0.1c0,0,0-0.1-0.1-0.1v-0.1
			c0,0,0-0.1-0.1-0.1v-0.1c0-0.1-0.1-0.1-0.1-0.1c0-0.1-0.1-0.1-0.1-0.1c0,0,0,0,0-0.1c0-0.1-0.1-0.1-0.1-0.1c0,0,0-0.1-0.1-0.1
			c0-0.1-0.1-0.1-0.1-0.1c0-0.1-0.1-0.1-0.1-0.1V524c-0.1-0.1-0.2-0.3-0.2-0.4c-1.1-2.5-2.4-5.8-2.8-7.3c-0.6-2.4-4.4-9.7-5.1-11.2
			c-0.3-0.5-0.7-1.2-1.3-2.1c-0.1-0.1-0.2-0.2-0.2-0.3c0,0,0-0.1-0.1-0.1c-0.1-0.1-0.2-0.2-0.3-0.4c0,0,0,0,0-0.1
			c-0.1-0.1-0.2-0.2-0.3-0.4c0,0,0-0.1-0.1-0.1c-0.1-0.1-0.2-0.3-0.3-0.4l-0.1-0.1c-0.1-0.1-0.2-0.3-0.3-0.4l0,0
			c-0.1-0.1-0.2-0.3-0.3-0.4l-0.1-0.1c-0.1-0.1-0.2-0.3-0.3-0.4l-0.1-0.1c-0.1-0.1-0.2-0.3-0.4-0.4l0,0c-0.1-0.1-0.3-0.3-0.4-0.4
			c-0.1,0-0.1-0.1-0.1-0.1c-0.1-0.1-0.3-0.3-0.4-0.4l-0.1-0.1c-0.1-0.1-0.3-0.2-0.4-0.3l-0.1-0.1c-0.2-0.1-0.3-0.2-0.4-0.3
			c-0.1,0-0.1-0.1-0.1-0.1c-0.2-0.1-0.3-0.2-0.4-0.3c0,0-0.1,0-0.1-0.1c-0.2-0.1-0.3-0.2-0.4-0.3c-0.1,0-0.1-0.1-0.1-0.1
			c-0.2-0.1-0.3-0.2-0.4-0.3c-0.1,0-0.1-0.1-0.1-0.1c-0.2-0.1-0.3-0.2-0.5-0.3c-0.4-0.2-0.8-0.4-1.2-0.6c-0.2-0.1-0.4-0.2-0.6-0.3
			c-0.6-0.3-1.2-0.5-1.9-0.8c-0.5-0.2-1.1-0.4-1.6-0.6c-0.2-0.1-0.4-0.2-0.6-0.2c-1-0.3-2.2-0.7-3.4-0.9c-0.3-0.1-0.5-0.1-0.8-0.2
			c-3.4-0.7-7.5-1.2-12.6-1c-1.1,0.1-2.1,0.1-3,0.2c-0.2,0.1-0.4,0.1-0.6,0.1c-0.8,0.2-1.6,0.3-2.3,0.5c-1.2,0.3-2.2,0.7-3.1,1.2
			l0,0c-4.3,2.1-5.9,5.3-7.2,7.3c-0.2,0.3-0.4,0.6-0.5,0.8c-0.1,0.2-0.2,0.4-0.4,0.6c-0.1,0.1-0.1,0.3-0.2,0.4
			c-0.1,0.1-0.1,0.2-0.1,0.2c-0.1,0.2-0.1,0.3-0.2,0.5c-0.1,0.3-0.2,0.5-0.3,0.7c-0.3,0.8-0.5,1.7-0.8,2.7l-0.1,0.3
			c-0.2,0.8-0.4,1.5-0.6,2.3c0,0.1-0.1,0.2-0.1,0.4c-0.1,0.5-0.2,0.9-0.3,1.3c-0.1,0.6-0.2,1.1-0.3,1.6c-0.1,0.2-0.1,0.4-0.1,0.6
			c-0.2,0.9-0.3,1.7-0.4,2.3c0,0.2-0.1,0.3-0.1,0.4c-0.1,0.2-0.1,0.4-0.1,0.5c0,0.1-0.1,0.2-0.1,0.3c-0.1,0.3-0.1,0.4-0.1,0.4
			l-2.6,4.4c0,0-3.6-0.4-8.9-1.1c-0.4-0.1-0.9-0.1-1.3-0.2c-0.9-0.1-1.8-0.2-2.7-0.4c-0.2,0-0.4-0.1-0.6-0.1
			c-1.3-0.2-2.8-0.4-4.2-0.5c-0.2-0.1-0.4-0.1-0.7-0.1c-1.9-0.3-3.9-0.5-5.9-0.7c-0.5-0.1-1.1-0.2-1.6-0.2c-0.8-0.1-1.6-0.2-2.4-0.3
			c-0.6-0.1-1.1-0.2-1.6-0.2c-0.5-0.1-0.9-0.1-1.3-0.2c-0.9-0.1-1.8-0.2-2.7-0.3c-3.5-0.5-7-0.9-10.1-1.2c-2.3-0.3-4.5-0.6-6.3-0.8
			c-0.3-0.1-0.6-0.1-0.9-0.1c-3.8-0.5-6.3-0.8-6.4-0.9c-0.5-0.2-2.7-2.1-3.1-2.6c-0.4-0.5-1.6-4.4-2.4-7.1c-0.8-2.6-1.5-8.7-1.5-8.7
			l0.3-0.4l5.5,0.5l0.1,0.7l-0.2,0.8c0,0,0.8,3.6,1.4,6.4c0.6,2.8,3,7.3,3,7.3l51,5.4l-0.3-14.7l0.3-0.8v-0.6
			c2.1,0.2,3.5,0.3,3.6,0.3c0.6,0,1.2-0.8,1.6-1.3c0.4-0.5,0.2-0.8-0.5-1c-0.7-0.2-3-0.2-3-0.2l-1.9-0.2c0.1-0.7,0.4-2.2,0.5-3.3
			c0.2-1.4-0.5-6.7-0.5-13.3c0-6.6,0.2-11.5,0.2-11.5s-0.5-1.1-1.2-2c-0.8-0.9-1.3-2.6-1.3-2.6S433.3,442,431.8,439
			s-3.4-3.3-4.6-3.7c-1.2-0.4-23,0.1-23,0.1s-2,5.4-3.2,12.5c-1.2,7-3,17.2-3,17.2l-1.7,0.2l-1.5,2.3v0.4l-5.9-0.2
			c0.3-0.8,0.5-1.4,0.6-1.7c0.5-1.1,0.9-1,0.9-1s-0.2-0.1-0.2-0.8c0-0.7,2.1-9,3.6-14.9c1.6-5.8,4.8-13.4,4.8-13.4s-0.5-0.2-0.5-0.4
			c-0.1-0.2,1-1.5,2.1-2.3c1.1-0.8,3.3-1.4,7.1-1.9s11.9-1,20.5-1.2s16.7,0.2,26.8,0.7s21.9,2.6,24.3,3.1c1.6,0.4,3.9,1.3,5.6,2.2
			c-4.7-1.4-12.2-2.1-14.2-2.3c-2.5-0.2-20.8-0.9-26.7-0.2c-5.9,0.8-5.8,0.7-6.6,1s-1.9,0.4-1.1,2.1c0.8,1.6,6.9,12.4,6.9,12.4
			l7.5,13.6c0,0-0.2,1.1,2.4,1.1c0.6,0,2.1-0.1,4.1-0.1c0.4-0.4,0.9-0.8,1.6-0.8c4.5-0.6,9-0.3,13.4-0.3c0.6,0,1.1,0.2,1.5,0.5
			c2.3-0.1,4.1-0.2,4.9-0.2c3-0.2,19.3-0.5,23.8-0.4c3.9,0.1,8.8,0.3,10,0.3c0.3,0.3,0.5,0.5,0.5,0.5c0.5,0.6,0.7,1.3,0.7,1.3
			s3.9,1.2,10.4,2.1c6.5,0.8,19,2.6,26.9,3.9s18.9,3.1,28.6,6.5l0,0c9.7,3.4,9.7,5.2,9.7,5.6c0,0.1,0,0.2-0.1,0.3L583.5,483.5z
			 M531.3,492.1c0,0,0.9-2.3,1.8-2.9c0.9-0.7,1.9-1.4,3.7,0.7c1.8,2.2,2.1,5.6,1.9,6.3c-0.1,0.7,0.4,4.6-1.9,7.3
			c-2.3,2.7-3.9,1.3-4.8,0.8c-0.9-0.6-1.3-2.6-1.3-2.6L531.3,492.1z M530,505.9l-6.1,0.2l1-13l3.9-3.9l2.3-0.7l0,0L530,505.9z
			 M537.9,511.5c0,0,7.1-0.4,7.7-0.4s0.5,0.5,0.5,0.5s-0.1,2.5-0.6,3.6c-0.5,1.1-1.2,1-1.2,1s-6.7,0.8-7,0.5
			C537,516.4,537.9,511.5,537.9,511.5z M448.1,448.2h-5.8c0,0-4.9-8.8-5-9.1c-0.1-0.3,8.9,1.3,9.6,1.8c0.7,0.5,0.7,0.9,0.8,2.2
			C447.9,444.4,448.1,448.2,448.1,448.2z M589.9,509.4c-0.6,0.6-2.4,0.9-2.5,0.5c-0.1-0.5,0.6-4.1,0.6-4.1l3-0.8
			C591,505,590.5,508.8,589.9,509.4z"/>
		<path fill="#010202" stroke="#FFFFFF" d="M489.4,546.1c-0.4-0.1-1.2,1-1.2,1l-1.2,3c0,0,2.7-0.9,3.2-1.3c0.6-0.4-0.1-1.6-0.1-1.6
			S489.9,546.2,489.4,546.1z"/>
		<path fill="#010202" stroke="#FFFFFF" d="M577,505.8c-0.2-0.4-0.4-0.4-0.4-0.4l-12.5,1.7c0,0-0.5,0-0.9,0.2c-0.4,0.2-0.5,1-0.5,1
			s-1.6,7.6-1.6,8.2s0.5,0.7,0.5,0.7s13.1-1.9,13.6-2.1s0.6-0.7,0.6-0.7S577.2,506.2,577,505.8z"/>
		<path fill="#010202" stroke="#FFFFFF" d="M341.7,525.8c-0.7,0.4-1.8,1.3-1.8,1.3l-0.2,1l1.4,0.9c0,0,0.6,0.1,0.7-0.4
			c0.1-0.4,0.7-2.4,0.7-2.4S342.5,525.4,341.7,525.8z"/>
		<path fill="#010202" stroke="#FFFFFF" d="M340,522.2c-0.1-0.4-0.7-0.4-0.7-0.4h-1.7c0,0-0.6-0.2-0.9,0.1c-0.3,0.3,0,1.1,0,1.1
			l0.7,1.7c0,0,0.4,0.2,0.8,0.2c0.4,0,0.5-0.3,0.5-0.3l1.5-1.3C340.1,523.3,340.1,522.5,340,522.2z"/>
		<path fill="#010202" stroke="#FFFFFF" d="M343.5,516c-1.1,0.1-1.9,1.8-1.8,3.8c0.2,2,1.2,3.6,2.3,3.5c1.1-0.1,1.9-1.8,1.8-3.8
			C345.6,517.5,344.6,515.9,343.5,516z"/>
		<path fill="#010202" stroke="#FFFFFF" d="M341.6,513.9c0.4-0.1-0.1-0.7-0.1-0.7l-1.4-2.2c0,0-0.6,0.1-1,0.5c-0.4,0.4-0.7,1-0.7,1
			l2.2,1.3C340.6,513.8,341.3,514,341.6,513.9z"/>
		<path fill="#010202" stroke="#FFFFFF" d="M482.6,529.5c0.4-0.2,0.3-0.9,0.3-0.9l-1.3-2.2l-0.9-0.1l-2.2,1.6c0,0,2.1,1.2,2.6,1.5
			C481.5,529.8,482.2,529.6,482.6,529.5z"/>
		<path fill="#010202" stroke="#FFFFFF" d="M483.6,545.8c-0.5-0.3-1.2,0.3-1.2,0.3l-2.8,2.1l2.5,1.8l1.1-0.3l0.9-2.6
			C484.2,547,484.1,546.1,483.6,545.8z"/>
		<path fill="#010202" stroke="#FFFFFF" d="M476,531.4c0,0-0.9,1.1-1.1,1.9c-0.2,0.8,0,2.2,0,2.2s3-0.2,3.6-0.6s0.9-0.5,0.7-1.1
			C479,533.3,476,531.4,476,531.4z"/>
		<path fill="#010202" stroke="#FFFFFF" d="M475,540.6l1.3,3.7c0,0,0.7,0.1,1.1-0.1c0.4-0.2,1-1.1,1-1.1l-1.9-2.9L475,540.6z"/>
		<path fill="#010202" stroke="#FFFFFF" d="M512.5,522.1c-0.2-0.4-0.3-0.7-0.5-1.1C512.2,521.3,512.3,521.7,512.5,522.1z"/>
		<path fill="#010202" stroke="#FFFFFF" d="M576,515c0.1-0.1,0.1-0.1,0.1-0.2C576.1,514.9,576.1,514.9,576,515z"/>
		<path fill="#010202" stroke="#FFFFFF" d="M576.8,510.5c0.1-0.5,0.2-1,0.2-1.5C576.9,509.5,576.9,510,576.8,510.5z"/>
	</g>
</g>
<path fill="#010202" stroke="#010202" stroke-width="2.7123" d="M525.1,428.9c-0.3-0.6-0.6-0.6-0.6-0.6l0,0l-0.1,0.1l-0.5-0.4
	l-0.3,0.1l0.2,0.6l-33.8,16.1c0,0-0.3,0-0.4,0c-0.2,0-0.6-0.4-1-0.3c-0.4,0.1-0.7,0.5-0.8,0.6c-0.2,0.1-0.3,0.3-0.5,0.4
	s-4.1,2.2-4.2,2.1c-0.1-0.1-0.3-0.2-0.3-0.2l-0.2,0.1l-0.1,0.3l-0.2,0.1l-0.2-0.2l-0.7,0.3l-0.1,0.3h-0.2l-0.1-0.2l-0.7,0.4l0.3,0.8
	l-1.3,0.6l0.1,0.2l-1.2,0.6l0.4,1c0,0-1,0.9-1.1,1.1c-0.1,0.2-1.4,1.5-1.6,1.6c-0.2,0.1-0.8,0.5-1.1,0.5c-0.3,0-0.8-0.2-0.9-0.2
	c-0.1-0.1-0.2,0-0.2,0l-9.9,5.1c0,0-1.3-0.8-2.2,0.6c-1.1,1.6-2.4,2.5-3.1,2.9c3.9-0.4,7.9-0.3,11.8-0.2c1.7-1.6,3.4-2.3,3.6-2.4
	c0.7-0.3,2.6,0.3,3.1-0.1c0.6-0.4,1.3-1,1.3-1s-0.8-2.5-0.4-3.4c0.4-0.9,1.7-1.5,1.7-1.5s0.5,0.8,0.8,1c0.4,0.2,1.3,0.2,2-0.2
	s1.1-0.9,1.1-1.1c-0.1-0.2-0.6-1.3-0.5-1.5c0.1-0.2,1.8-1.1,1.9-1.1c0.1,0,2.1-1.8,5.4-2.9c5.1-1.6,11.4-5.7,14.8-8.1
	c1.5-1,2.6-1.4,2.6-1.4c0.2-0.2,0.3-0.3,0.2-0.6S508,438,508,438l17-8.2C525.2,429.7,525.4,429.4,525.1,428.9z M483.9,454.4
	c0,0.2-0.2,0.4-0.4,0.6s-0.8,0.4-1,0.4c-0.2,0.1-1.2-0.1-1.4-0.1c-0.2-0.1-0.6-0.8-0.6-0.8c0.1,0,0.4-0.2,0.5-0.3
	c0.1-0.2,0.6-0.4,0.6-0.4s0.1,0.6,0.2,0.7c0.1,0.1,0.8,0.3,0.8,0.3s-0.4-0.3-0.5-0.4c-0.1-0.1-0.2-0.3-0.2-0.5
	c-0.1-0.2,0.1-0.3,0.1-0.3s0.4-0.2,0.6-0.3l0,0c0.3-0.1,0.7-0.2,0.8-0.1C483.5,453.4,483.9,454.2,483.9,454.4z"/>
<path fill="#010202" stroke="#010202" stroke-width="2.7123" d="M413.2,464.6c0.1,0.3,0.2,0.5,0.3,0.7c3.2-0.1,6.5-0.2,9.7,0.2
	c0.2-0.2,0.3-0.3,0.4-0.5c0.5-0.7,0.2-1.1,0.2-1.1c0,0.1-1.9-1-3-3.8c-0.6-1.6-2.1-0.9-2.1-0.9l-8.9-6.8c0,0,0,0-0.2,0
	c-0.1,0-0.6,0.1-0.9,0.1c-0.3,0-0.8-0.6-1-0.7c-0.2-0.1-1.2-1.7-1.2-1.9c-0.1-0.2-0.9-1.3-0.9-1.3l0.6-0.9l-1.1-0.8l0.1-0.2
	l-1.1-0.8l0.5-0.8l-0.6-0.5l-0.1,0.2h-0.2v-0.3l-0.6-0.4l-0.2,0.2l-0.2-0.1v-0.4l-0.2-0.1c0,0-0.2,0.1-0.3,0.2
	c-0.1,0.1-3.5-2.7-3.8-2.8c-0.2-0.2-0.3-0.4-0.4-0.5c-0.2-0.1-0.4-0.6-0.7-0.8c-0.3-0.2-0.9,0.2-1.1,0.2c-0.2-0.1-0.4-0.1-0.4-0.1
	L365.7,418l0.3-0.6l-0.3-0.2l-0.6,0.3l-0.1-0.1l0,0c0,0-0.3,0-0.7,0.5c-0.4,0.5-0.3,0.7-0.3,0.7l15.3,11.1c0,0-0.5,0.6-0.6,0.9
	c-0.2,0.3-0.1,0.4,0.1,0.6c0.1,0.1,1.1,0.6,2.3,1.9c2.9,3,8.4,8.1,13.1,10.6c3.1,1.6,4.7,3.8,4.8,3.8c0.2,0.1,1.7,1.3,1.7,1.5
	c0,0.2-0.8,1.3-0.8,1.4c-0.1,0.2,0.2,0.9,0.8,1.3c0.6,0.4,1.5,0.6,1.9,0.5c0.4-0.1,1-0.8,1-0.8s1.2,0.8,1.4,1.8
	c0.3,1-1.1,3.4-1.1,3.4s0.6,0.8,1.1,1.2c0.5,0.5,2.5,0.2,3.1,0.6C408.7,458.6,411.7,460.5,413.2,464.6z M403,452.1
	c-0.2,0-1.3-0.1-1.4-0.2c-0.2-0.1-0.7-0.4-0.9-0.6c-0.2-0.3-0.4-0.5-0.3-0.7c0.1-0.2,0.6-1,0.7-1.1c0.2-0.1,0.6,0.1,0.8,0.3l0,0
	c0.3,0.2,0.6,0.4,0.6,0.4s0.1,0.2,0,0.4s-0.2,0.4-0.3,0.5c-0.2,0.1-0.6,0.3-0.6,0.3s0.8,0,0.9-0.1c0.1-0.1,0.4-0.7,0.4-0.7
	s0.5,0.3,0.6,0.5c0.1,0.2,0.4,0.4,0.4,0.4C403.7,451.4,403.1,452.1,403,452.1z"/>
</svg>
