<?xml version="1.0" encoding="UTF-8" standalone="no"?>
<svg
   xmlns:svg="http://www.w3.org/2000/svg"
   xmlns="http://www.w3.org/2000/svg"
   version="1.1"
   width="256"
   height="256">
  <g
     transform="translate(-309.92533,-156.68709)">
    <g
       transform="matrix(0.93716643,0,0,0.93718358,87.114621,48.217871)">
      <path
         d="m 246.28572,252.36221 0,-128 128,0 128,0 0,128 0,128 -128,0 -128,0 0,-128 z"
         style="fill:#ffffff" />
      <path
         d="m 252.50683,374.0853 -6.22111,-6.2769 0,-18.46927 0,-18.46927 48.16924,-48.17692 48.16924,-48.17691 -1.91924,-6.82691 c -2.97916,-10.59715 -2.75307,-34.17148 0.42477,-44.29167 7.72987,-24.61658 24.23782,-43.21577 46.92471,-52.86917 18.64739,-7.93458 42.47105,-8.34513 62.23128,-1.07243 19.20748,7.06926 38.1912,25.55328 46.03196,44.82027 5.97891,14.69188 7.68916,33.83795 4.43145,49.60953 -6.00204,29.05774 -27.64692,52.25878 -57.49865,61.63255 -10.1147,3.17612 -33.69492,3.40388 -44.28082,0.42771 l -6.81605,-1.9163 -10.20102,10.1663 c -9.28258,9.25098 -10.53711,10.1663 -13.93394,10.1663 -3.65201,0 -3.73293,0.0819 -3.73293,3.77889 0,3.30975 -0.77925,4.55121 -6.27691,10 -5.43856,5.39022 -6.77416,6.22111 -10,6.22111 -3.63904,0 -3.72309,0.0851 -3.72309,3.76975 0,3.42463 -0.84856,4.61478 -9.26879,13 l -9.26879,9.23025 -6.23121,0 -6.23121,0 0,6.27085 0,6.27085 -8.76978,8.72915 -8.76979,8.72915 -18.5091,0 -18.50911,0 -6.22111,-6.27691 z m 43.50199,-10.9442 6.2769,-6.22111 0,-8.77889 0,-8.77889 8.7249,0 8.72491,0 6.77509,-6.72318 6.7751,-6.72318 0,-6.27682 0,-6.27682 6.20784,0 c 5.81008,0 6.45081,-0.23726 10,-3.70295 3.65441,-3.56844 3.79216,-3.94984 3.79216,-10.5 l 0,-6.79705 6.77682,0 6.77682,0 6.7518,-6.80393 6.75179,-6.80394 -6.88288,-4.70286 c -8.0587,-5.50627 -16.26802,-13.83557 -21.68504,-22.00197 l -3.85573,-5.8127 -45.31679,45.30858 -45.31679,45.30858 0,6.99943 0,6.99943 39.75463,-39.74531 c 34.93181,-34.92362 40.12408,-39.74531 42.8,-39.74531 3.7161,0 5.44537,1.57334 5.44537,4.95436 0,2.03299 -8.77084,11.32343 -42.97089,45.51654 l -42.97089,42.96217 2.1452,2.28347 c 2.02141,2.15169 2.89822,2.28346 15.19399,2.28346 l 13.04878,0 6.27691,-6.22111 z m 145.7769,-89.21567 c 22.01019,-7.36997 38.97943,-24.33989 46.28331,-46.28517 2.26431,-6.80334 2.59219,-9.46982 2.61647,-21.27805 0.0248,-12.04467 -0.26203,-14.36242 -2.66042,-21.5 -3.81931,-11.36622 -9.10257,-19.84864 -17.74665,-28.49271 -8.64407,-8.64408 -17.12649,-13.92734 -28.49271,-17.74665 -7.13759,-2.39839 -9.45532,-2.68519 -21.5,-2.66042 -11.80823,0.0243 -14.47471,0.35216 -21.27805,2.61647 -21.89701,7.28782 -38.67849,24.03662 -46.37362,46.28331 -2.4724,7.14774 -2.76665,9.38491 -2.76211,21 0.004,9.77508 0.4618,14.48843 1.84614,19 8.5083,27.72859 29.95459,46.73562 58.56764,51.90628 1.375,0.24847 7.225,0.31315 13,0.14373 8.13902,-0.23878 12.29884,-0.91038 18.5,-2.98679 z m -26.00469,-63.61955 -39.99531,-40.05634 5.98425,-5.61831 c 9.8981,-9.29281 25.23571,-15.29866 38.94941,-15.25166 25.94091,0.0889 49.74536,19.46805 55.13275,44.88342 2.74792,12.96348 1.38972,24.06084 -4.47936,36.59922 -3.26996,6.98576 -12.85913,19.5 -14.94208,19.5 -0.35989,0 -18.65224,-18.02535 -40.64966,-40.05633 z m 43.77298,18.80633 c 4.04351,-6.99046 6.08008,-14.60543 6.08431,-22.75 0.0181,-34.78896 -37.97422,-56.69552 -68.1026,-39.26829 -2.3375,1.35208 -4.25,2.75044 -4.25,3.10745 0,0.85634 62.29284,63.16084 63.14903,63.16084 0.36351,0 1.76718,-1.9125 3.11926,-4.25 z"
         style="fill:#c0c0c0" />
      <path
         d="m 252.50683,374.0853 -6.22111,-6.2769 0,-17.96931 0,-17.9693 48.60874,-48.61634 c 42.84911,-42.8558 48.48572,-48.84623 47.57043,-50.55647 -2.67795,-5.00378 -4.43641,-18.74897 -3.87334,-30.27631 0.66062,-13.52434 2.36996,-20.51606 7.76194,-31.74871 9.71436,-20.23709 28.94453,-36.65395 50.93223,-43.48103 6.49139,-2.01555 9.58446,-2.32872 23,-2.32872 13.45578,0 16.48914,0.30901 23,2.34303 27.23969,8.50981 47.64716,28.91728 56.15697,56.15697 2.03402,6.51086 2.34303,9.54422 2.34303,23 0,13.41554 -0.31317,16.50861 -2.32872,23 -6.82708,21.9877 -23.24394,41.21787 -43.48103,50.93223 -11.23265,5.39198 -18.22437,7.10132 -31.74871,7.76194 -11.51989,0.56271 -25.27196,-1.19509 -30.26794,-3.86886 -1.67002,-0.89376 -3.37302,0.40295 -12.56901,9.57042 -9.1214,9.09312 -11.09806,10.60427 -13.87092,10.60427 -2.98701,0 -3.23367,0.24996 -3.23367,3.27682 0,2.71843 -1.15452,4.42249 -6.7751,10 -5.54967,5.50715 -7.35839,6.72318 -10,6.72318 -2.97548,0 -3.2249,0.25281 -3.2249,3.26876 0,2.80442 -1.38757,4.65112 -9.76789,13 l -9.76789,9.73124 -5.73211,0 -5.73211,0 0,5.76975 0,5.76975 -9.26879,9.23025 -9.26879,9.23025 -18.0101,0 -18.0101,0 -6.22111,-6.27691 z m 43.99989,-10.44179 5.779,-5.71869 0,-9.28131 0,-9.2813 9.2231,0 9.22309,0 6.27691,-6.22111 6.2769,-6.22111 0,-6.77889 0,-6.77889 6.80383,0 c 6.36401,0 7.00724,-0.21009 9.9504,-3.25 2.83069,-2.92374 3.17664,-3.95271 3.44617,-10.25 l 0.2996,-7 7.06662,-0.29011 7.06662,-0.29011 6.69107,-6.74274 6.69108,-6.74274 -6.45343,-4.24289 c -8.23924,-5.41698 -17.33973,-14.51921 -22.76173,-22.76608 l -4.25125,-6.46615 -45.27449,45.26629 -45.27449,45.26629 0,7.99949 0,7.99949 40.25457,-40.24537 c 28.31462,-28.30814 40.89941,-40.24537 42.42857,-40.24537 2.77812,0 5.31686,2.52814 5.31686,5.29466 0,1.50172 -12.99253,15.15703 -43.00625,45.2001 l -43.00625,43.0483 2.22847,2.22847 c 2.08452,2.08451 3.10049,2.22847 15.72725,2.22847 l 13.49879,0 5.77899,-5.7187 z m 144.94565,-89.54168 c 11.92808,-3.84956 20.36468,-9.06463 29.34811,-18.1415 13.13107,-13.26765 19.30437,-27.37579 20.17116,-46.09812 0.65254,-14.0944 -1.15335,-22.99891 -7.09822,-35 -7.44461,-15.02868 -17.05902,-24.64309 -32.0877,-32.0877 -12.00109,-5.94487 -20.9056,-7.75076 -35,-7.09823 -18.72233,0.8668 -32.83047,7.0401 -46.09812,20.17117 -9.0099,8.91715 -14.19032,17.2583 -18.22717,29.34811 -2.24156,6.71317 -2.55993,9.34561 -2.55993,21.16665 0,11.82104 0.31837,14.45348 2.55993,21.16665 7.0593,21.14164 23.2809,38.31419 42.87323,45.38658 14.33908,5.17609 32.3229,5.63871 46.11871,1.18639 z m -25.00936,-64.04051 -40.34272,-40.39373 6.84272,-5.69896 c 11.19347,-9.32249 24.64553,-14.57169 37.34271,-14.57169 20.31677,0 41.55592,13.12738 50.43961,31.17544 11.08845,22.52725 7.48238,45.96291 -10.09184,65.58625 l -3.84777,4.29641 -40.34271,-40.39372 z m 44.92715,15.95349 c 13.10809,-27.69371 -3.9774,-59.85452 -34.33444,-64.62929 -8.34692,-1.31287 -17.92463,0.018 -25.72288,3.57428 -11.15313,5.08624 -13.15804,1.75843 22.62638,37.55596 26.37859,26.38827 31.99373,31.55484 33.2052,30.55263 0.80192,-0.6634 2.7035,-3.83751 4.22574,-7.05358 z"
         style="fill:#808080" />
      <path
         d="m 252.50683,374.0853 -6.22111,-6.2769 0,-17.96931 0,-17.9693 48.47383,-48.50379 48.47382,-48.50379 -2.14961,-8 c -2.7684,-10.30287 -2.98603,-29.55475 -0.45096,-39.89242 4.94139,-20.15036 18.20615,-38.67032 35.72306,-49.87575 13.85797,-8.86484 25.99266,-12.17045 44.42986,-12.10314 12.28699,0.0449 15.10122,0.38474 23,2.7777 27.12441,8.21745 46.87616,27.9692 55.09361,55.09361 2.39296,7.89878 2.73284,10.71301 2.7777,23 0.0673,18.4372 -3.2383,30.57189 -12.10314,44.42986 -11.20543,17.51691 -29.72539,30.78167 -49.87575,35.72306 -10.32748,2.53257 -29.58597,2.31707 -39.89242,-0.44638 l -8,-2.14502 -10.01707,9.96924 c -9.09974,9.05628 -10.35893,9.96924 -13.75,9.96924 -3.65165,0 -3.73293,0.0822 -3.73293,3.77682 0,3.3359 -0.79095,4.56171 -6.7751,10.5 -5.92713,5.88171 -7.2413,6.72318 -10.5,6.72318 -3.64132,0 -3.7249,0.0846 -3.7249,3.77085 0,3.4109 -0.83713,4.6041 -8.76978,12.5 l -8.76979,8.72915 -6.23021,0 -6.23022,0 0,6.26975 0,6.26975 -9.26879,9.23025 -9.26879,9.23025 -18.0101,0 -18.0101,0 -6.22111,-6.27691 z m 43.50199,-9.9442 6.2769,-6.22111 0,-9.27889 0,-9.27889 9.2231,0 9.22309,0 6.27691,-6.22111 6.2769,-6.22111 0,-6.77889 0,-6.77889 6.70784,0 c 6.38673,0 6.88937,-0.17726 10.5,-3.70295 3.59604,-3.51144 3.79216,-4.02861 3.79216,-10 l 0,-6.29705 6.27503,0 6.27503,0 7.27773,-7.32663 7.27774,-7.32664 -6.30277,-4.0791 C 367.0296,269.41419 357.23043,259.6132 352.0103,251.54741 l -4.08689,-6.31481 -45.81884,45.81073 -45.81885,45.81073 0,7.25407 c 0,3.98975 0.33961,7.25408 0.75469,7.25408 0.41508,0 18.75047,-18 40.74531,-40 24.97205,-24.97791 40.71392,-40 41.91657,-40 2.619,0 5.58343,2.85548 5.58343,5.37821 0,1.39161 -14.06889,16.15089 -43.00373,45.11402 l -43.00372,43.04577 2.731,2.731 c 2.68326,2.68326 2.94942,2.731 15.22682,2.731 l 12.49582,0 6.27691,-6.22111 z m 139.09616,-87.94044 c 24.96954,-4.73642 47.96487,-26.9202 54.77141,-52.83845 2.34971,-8.94733 2.3537,-24.44336 0.009,-33.77761 -6.31943,-25.15309 -27.66897,-46.50263 -52.82206,-52.82175 -9.33425,-2.34501 -24.83028,-2.34102 -33.77761,0.009 -21.48202,5.64152 -40.62525,22.28169 -49.00152,42.59435 -3.85838,9.35667 -5.23837,16.73665 -5.17872,27.69501 0.10264,18.85794 7.18126,35.37572 21.14354,49.33801 17.77871,17.77871 39.90571,24.5345 64.85596,19.80175 z m -18.6558,-66.14667 -40.33655,-40.37406 6.33655,-5.30804 c 7.34737,-6.15482 17.69725,-11.42377 25.70558,-13.08629 8.39978,-1.74379 24.29831,-0.6906 31.63096,2.09537 15.91124,6.04532 27.43592,17.57 33.48124,33.48124 2.81575,7.41103 3.83979,23.22816 2.05915,31.80543 -1.618,7.79389 -7.98868,20.02594 -13.78995,26.47749 l -4.75044,5.28292 -40.33654,-40.37406 z m 42.60927,20.77518 c 8.78123,-13.55503 9.40939,-32.93621 1.50523,-46.44231 -12.60527,-21.53906 -38.16794,-29.88407 -59.66618,-19.47819 -10.77538,5.21565 -13.03865,1.51351 22.91061,37.47593 17.58124,17.58769 32.19353,31.97204 32.47175,31.96523 0.27822,-0.007 1.52859,-1.5911 2.77859,-3.52066 z"
         style="fill:#404040" />
      <path
         d="m 253.0089,373.58711 -6.72318,-6.77509 0,-17.47112 0,-17.47111 48.51757,-48.52515 48.51756,-48.52514 -2.00264,-7.83025 c -5.48209,-21.43476 -2.48372,-43.14467 8.58039,-62.12704 5.47135,-9.38703 18.97727,-23.25066 27.60174,-28.3328 25.35959,-14.94363 53.4647,-16.009 79.72158,-3.02199 9.37751,4.63824 11.69406,6.35526 20.6287,15.28989 8.93463,8.93464 10.65165,11.25119 15.28989,20.6287 12.98701,26.25688 11.92164,54.36199 -3.02199,79.72158 -5.08214,8.62447 -18.94577,22.13039 -28.3328,27.60174 -18.97862,11.06193 -40.6928,14.06234 -62.11642,8.58311 l -7.81963,-1.99993 -10.04905,10.01485 c -9.13432,9.10324 -10.38884,10.01485 -13.78197,10.01485 -3.65165,0 -3.73293,0.0822 -3.73293,3.77682 0,3.3359 -0.79095,4.56171 -6.7751,10.5 -5.92713,5.88171 -7.2413,6.72318 -10.5,6.72318 -3.64132,0 -3.7249,0.0846 -3.7249,3.77085 0,3.4109 -0.83713,4.6041 -8.76978,12.5 l -8.76979,8.72915 -6.23021,0 -6.23022,0 0,6.26975 0,6.26975 -9.26879,9.23025 -9.26879,9.23025 -17.50803,0 -17.50803,0 -6.72318,-6.7751 z m 42.99992,-9.44601 6.2769,-6.22111 0,-9.27889 0,-9.27889 9.2231,0 9.22309,0 6.27691,-6.22111 6.2769,-6.22111 0,-6.77889 0,-6.77889 6.70784,0 c 6.38673,0 6.88937,-0.17726 10.5,-3.70295 3.59604,-3.51144 3.79216,-4.02861 3.79216,-10 l 0,-6.29705 6.27503,0 6.27503,0 7.32855,-7.37779 7.32855,-7.3778 -5.85358,-3.83259 c -7.50729,-4.91535 -18.85365,-16.26365 -23.77344,-23.77752 l -3.84064,-5.86569 -45.86975,45.86162 -45.86975,45.86162 0,7.98765 0,7.98764 40.77837,-40.73357 c 22.42811,-22.40346 41.55311,-40.73357 42.5,-40.73357 1.99831,0 5.72163,3.41924 5.72163,5.25436 0,0.6899 -19.35,20.60044 -43,44.24564 -23.65,23.6452 -43,43.41424 -43,43.93119 0,0.51695 0.97844,1.98141 2.17431,3.25436 2.05734,2.18993 2.87633,2.31445 15.2231,2.31445 l 13.04878,0 6.27691,-6.22111 z M 437.0726,275.72281 c 13.8526,-2.87708 29.76122,-12.77975 38.74682,-24.11879 5.65599,-7.13737 11.92486,-19.67203 14.12437,-28.24181 2.0133,-7.84424 2.24292,-24.03286 0.46098,-32.5 -0.6945,-3.3 -3.5267,-10.69095 -6.29378,-16.42432 -4.29539,-8.90003 -6.23344,-11.62671 -13.25384,-18.64711 -7.0204,-7.0204 -9.74708,-8.95845 -18.64711,-13.25384 -12.47258,-6.0196 -19.13086,-7.56562 -32.42432,-7.52879 -12.05809,0.0334 -20.10122,1.93191 -31,7.31728 -24.98174,12.34411 -39.54377,35.67472 -39.6571,63.53678 -0.0502,12.34501 1.9729,21.41063 7.14124,32 7.00788,14.35839 18.24957,25.58993 32.51586,32.4865 16.01683,7.74282 29.60211,9.25479 48.28688,5.3741 z m -20.79163,-65.92947 -39.49525,-39.56888 5.95279,-5.4683 c 10.41116,-9.5638 22.88825,-14.36146 37.40287,-14.38208 16.05514,-0.0228 28.25483,5.03783 39.67474,16.45773 11.4199,11.41991 16.48054,23.6196 16.45773,39.67474 -0.0137,9.62487 -1.67351,16.74834 -5.89754,25.31032 -2.70499,5.48294 -12.27864,17.54534 -13.92532,17.54534 -0.37112,0 -18.44763,-17.80599 -40.17002,-39.56887 z m 43.5786,20.03307 c 10.61642,-18.11556 7.71568,-41.30511 -7.00863,-56.02942 -13.83783,-13.83782 -36.18504,-17.40605 -53.34572,-8.51783 -9.14315,4.73562 -11.38552,1.31452 24.27464,37.03489 17.59678,17.62649 32.31531,32.04816 32.70785,32.04816 0.39253,0 1.90987,-2.04111 3.37186,-4.5358 z"
         style="fill:#000000" />
    </g>
  </g>
</svg>
