<?xml version="1.0" encoding="UTF-8" standalone="no"?>
<svg
   xmlns:svg="http://www.w3.org/2000/svg"
   xmlns="http://www.w3.org/2000/svg"
   version="1.1"
   width="256"
   height="211.16484"
   viewBox="0 0 256 211.16484"
   xml:space="preserve">
	<g transform="matrix(4.2197803,0,0,4.2197803,8,7.9999997)">
		<path d="m 43.356,23.101 c 0,8.254 -6.641,14.942 -14.895,14.942 -8.254,0 -14.895,-6.688 -14.895,-14.942 0,-8.207 6.641,-14.895 14.895,-14.895 8.254,0.001 14.895,6.689 14.895,14.895 l 0,0 z M 28.461,0 C 15.701,0 5.36,10.341 5.36,23.101 5.36,35.908 15.701,46.25 28.461,46.25 41.221,46.25 51.562,35.908 51.562,23.101 51.563,10.341 41.222,0 28.461,0 l 0,0 z" style="fill:#000000;fill-opacity:1;fill-rule:evenodd"/>
		<polygon points="56.875,18.453 56.875,27.797 0,27.797 0,18.453 0,18.453 " style="fill:#000000;fill-opacity:1;fill-rule:evenodd"/>
	</g>
</svg>