<?xml version="1.0" encoding="UTF-8" standalone="no"?>
<svg
   xmlns:svg="http://www.w3.org/2000/svg"
   xmlns="http://www.w3.org/2000/svg"
   version="1.1"
   width="256"
   height="196">
	<g transform="translate(-286.14281,-450.50221)">
		<path d="m 333.45216,637.36118 c -9.19688,-2.47041 -17.99787,-9.77243 -21.62539,-17.94217 -3.19841,-7.2033 -3.85544,-13.41434 -2.23067,-21.08691 1.33091,-6.28494 1.32537,-6.93835 -0.0661,-7.79405 -0.83534,-0.51368 -3.35264,-2.06731 -5.59399,-3.4525 -5.58037,-3.44875 -9.07619,-8.96108 -9.58886,-15.12004 -0.5064,-6.08352 1.69011,-16.9909 5.27248,-26.1819 l 2.71192,-6.95779 -2.6424,-1.0904 c -3.28228,-1.35444 -5.54634,-4.67832 -5.54634,-8.14261 0,-3.9635 3.80941,-10.68546 7.40437,-13.06551 3.17377,-2.10119 3.32431,-2.109 40.6372,-2.109 41.46696,0 40.36034,-0.15228 44.6948,6.14966 2.55528,3.71515 3.56911,10.45474 2.00945,13.35803 -0.84137,1.56619 -0.82189,2.78374 0.0845,5.28078 0.98403,2.71107 0.9143,4.51257 -0.42359,10.94357 -2.62474,12.61654 -1.87268,18.0951 2.77346,20.20406 2.91088,1.32129 23.12701,1.3526 29.2458,0.0453 20.91776,-4.46917 27.74516,-29.37435 18.2901,-66.71906 -1.30013,-5.13519 -2.53851,-9.51066 -2.75195,-9.7233 -0.21342,-0.21262 -1.14434,0.29527 -2.06869,1.12865 -0.92436,0.83339 -3.71237,2.41059 -6.19558,3.5049 -8.77212,3.86572 -17.44814,-0.58583 -17.44814,-8.9524 0,-3.99234 4.56326,-7.58156 15.74263,-12.38232 9.16056,-3.93381 10.80199,-4.97651 12.18768,-7.74207 3.51482,-7.0149 15.41694,-11.82274 26.97905,-10.89812 10.45482,0.83604 13.5311,4.64842 13.52563,16.76207 -0.003,6.12681 -0.40012,8.39985 -1.89555,10.84342 -2.21099,3.6128 -6.78572,5.7812 -12.19672,5.7812 -3.54265,0 -3.79529,0.16442 -3.22921,2.10146 1.72762,5.91161 12.50897,26.35897 20.05044,38.02661 4.69588,7.26516 9.38732,14.86799 10.42542,16.89516 1.03809,2.02719 1.98435,3.70045 2.10277,3.71838 14.3272,2.16811 24.06178,5.80316 31.24559,11.66759 4.42933,3.61584 8.81587,11.48336 8.81057,15.80225 -0.005,3.79378 -3.13183,8.73366 -5.97952,9.44572 -2.26926,0.56741 -2.27674,0.60555 -0.78316,3.9945 0.98977,2.24577 1.51563,6.14984 1.53021,11.36049 0.0188,6.73444 -0.37509,8.80471 -2.59652,13.64588 -3.27566,7.13864 -9.65831,13.47787 -17.01162,16.89589 -4.77383,2.219 -6.83103,2.6147 -13.59395,2.6147 -6.66998,0 -8.83608,-0.40501 -13.2894,-2.48478 -7.21902,-3.37142 -13.27478,-9.17232 -16.69632,-15.99365 l -2.84791,-5.67771 -4.91162,0.19913 c -6.46968,0.26228 -10.47914,-2.17273 -13.02739,-7.91181 -1.78262,-4.01475 -2.06921,-4.23492 -4.85817,-3.73239 -9.56771,1.72396 -27.70888,2.63453 -44.91753,2.2546 l -19.45341,-0.42948 0,2.54639 c 0,1.40052 -0.8878,5.40992 -1.97288,8.90978 -1.69942,5.48137 -2.84193,7.22915 -8.24278,12.6097 -5.40087,5.38052 -7.15527,6.51874 -12.65735,8.21177 -7.13184,2.1945 -12.99849,2.40287 -19.38134,0.68834 z m 15.94897,-9.53398 c 6.83401,-2.02183 13.42397,-8.58701 15.45345,-15.39528 2.1494,-7.21056 1.97411,-9.28506 -0.78458,-9.28506 -1.93486,0 -2.35397,0.57315 -2.90257,3.96943 -1.88579,11.67434 -12.02236,18.82817 -23.27258,16.42451 -9.02464,-1.92816 -15.44564,-10.8762 -14.45477,-20.14358 0.26188,-2.44932 0.76263,-5.13516 1.1128,-5.96854 0.46993,-1.11847 0.016,-1.63342 -1.73349,-1.96661 -2.03022,-0.38663 -2.52342,0.0113 -3.43898,2.77511 -0.58787,1.77455 -0.89974,5.87233 -0.69305,9.10616 0.50523,7.90475 4.14539,13.84699 10.98605,17.9338 7.05173,4.21288 11.96188,4.84759 19.72772,2.55006 z m 153.4027,0.097 c 13.45104,-3.9979 20.55254,-19.67099 14.71801,-32.48279 -1.86744,-4.10064 -2.27631,-4.43642 -5.40208,-4.43642 l -3.38173,0 2.62587,3.42974 c 2.34739,3.06598 2.62588,4.18762 2.62588,10.57576 0,6.01974 -0.35608,7.66372 -2.25924,10.43076 -7.76404,11.28822 -24.23497,11.35443 -31.9562,0.12847 -1.40766,-2.04663 -2.36675,-5.14522 -2.72799,-8.81353 l -0.55712,-5.65725 -2.46154,1.93431 c -2.29332,1.80212 -2.40544,2.23355 -1.64054,6.31249 2.10993,11.25137 11.71021,19.40393 23.38533,19.85881 1.3244,0.0516 4.48851,-0.52454 7.03135,-1.28035 z m -154.2131,-16.29971 c 2.08532,-2.07747 2.73604,-3.58455 2.72208,-6.3044 l -0.0184,-3.57429 -3.34071,3.96945 c -3.73517,4.43815 -6.57829,5.07452 -9.29758,2.08104 -1.61984,-1.78317 -1.62878,-2.06945 -0.16048,-5.13692 1.27936,-2.67275 1.32199,-3.24852 0.24054,-3.24852 -0.72293,0 -1.92146,-0.23206 -2.66338,-0.5157 -1.95319,-0.74669 -3.84913,4.39707 -3.09561,8.39853 1.33015,7.06369 10.35701,9.56752 15.61349,4.33081 z m 153.75224,0 c 5.19453,-5.17498 2.8408,-13.78285 -4.25385,-15.55678 -3.71038,-0.92775 -3.88376,0.12005 -0.6306,3.81126 3.25492,3.69319 3.68244,6.128 1.46407,8.33801 -2.33123,2.32247 -5.06388,1.73021 -8.31078,-1.80125 -1.65306,-1.79792 -3.29201,-3.26894 -3.64211,-3.26894 -0.35012,0 -0.63658,1.29322 -0.63658,2.8738 0,4.40712 4.41747,8.33402 9.37514,8.33402 3.0542,0 4.48547,-0.58896 6.63471,-2.73012 z m -38.81464,-11.99077 c 12.3473,-12.03634 32.27169,-18.82304 55.44657,-18.88639 5.68963,-0.0155 5.8993,-0.0988 5.32945,-2.11765 -0.99116,-3.51138 -9.16224,-10.45447 -14.8598,-12.62659 -7.7762,-2.96459 -19.98487,-4.37085 -27.10251,-3.12182 -11.86433,2.08199 -21.56279,9.17675 -26.64838,19.49423 -2.18486,4.43254 -2.64227,6.57318 -2.64227,12.36542 0,3.8527 0.30317,7.7404 0.67371,8.63936 1.19231,2.89263 4.15344,1.76096 9.80323,-3.74656 z m -38.1336,-4.96529 c 17.82789,-1.65372 16.7549,-1.12388 19.17019,-9.46631 3.06883,-10.59974 8.85687,-18.57846 17.66816,-24.35526 5.42818,-3.55877 14.52573,-7.20127 17.98605,-7.20127 1.2393,0 2.45845,-0.33071 2.70921,-0.73492 0.25075,-0.40423 -3.55614,-6.81371 -8.45978,-14.24328 -9.48934,-14.37746 -19.32443,-33.13658 -22.34627,-42.62254 -1.54412,-4.8472 -2.3434,-6.00547 -5.02246,-7.27821 -2.59338,-1.23205 -3.0914,-1.26776 -2.67703,-0.19197 1.38443,3.59419 4.48621,15.02902 5.99685,22.10761 2.56019,11.99662 2.2858,35.77872 -0.50022,43.35566 -4.09789,11.14475 -9.8231,18.08076 -18.4736,22.38054 -7.22966,3.59354 -12.87079,4.56561 -26.6764,4.59684 -13.13832,0.0297 -17.5745,-0.93391 -21.89528,-4.75622 -5.08429,-4.49772 -6.64895,-15.36481 -3.89037,-27.02 1.86198,-7.86708 1.3277,-8.95535 -4.11289,-8.37745 -20.85239,2.21502 -33.76397,2.66857 -47.68071,1.67492 -13.55635,-0.96792 -14.86178,-0.92409 -15.93709,0.53508 -2.24476,3.04609 -5.15122,12.03389 -6.62654,20.49159 -1.39164,7.97794 -1.3826,8.67331 0.14297,10.99287 2.85203,4.33636 9.05101,7.94658 19.27632,11.22632 14.28769,4.58275 28.75702,6.83489 59.62954,9.28131 9.23369,0.73169 31.88342,0.51707 41.71935,-0.39531 z M 374.10908,530.964 c 2.98866,-0.75725 5.68256,-1.62451 5.98646,-1.92727 0.30389,-0.30273 -0.14717,-1.61428 -1.00236,-2.91454 l -1.55487,-2.36412 -35.57092,0 c -35.05726,0 -35.58598,0.028 -36.61361,1.94096 -1.73252,3.22505 -0.43059,4.34904 6.30075,5.43965 3.51719,0.56985 7.44959,1.21141 8.73867,1.4257 1.28908,0.2143 12.67988,0.25165 25.31287,0.083 16.25905,-0.21703 24.55651,-0.70882 28.40301,-1.6834 z m 52.22317,-42.30241 2.34378,-1.40685 -2.34378,0.61893 c -1.28908,0.34042 -2.97661,0.9756 -3.75006,1.41154 -1.25001,0.70454 -1.25001,0.79208 0,0.78791 0.77345,-0.003 2.46098,-0.63778 3.75006,-1.41153 z m 42.00061,-7.11964 c 0.61876,-0.61642 1.12502,-3.54369 1.12502,-6.50503 0,-4.36736 -0.34249,-5.56685 -1.8134,-6.35109 -6.35498,-3.38828 -23.00362,2.77169 -21.06858,7.79535 1.67697,4.35367 18.53149,8.2741 21.75696,5.06077 z" style="fill:#000000"/>
	</g>
</svg>
