<?xml version="1.0" encoding="UTF-8" standalone="no"?>
<svg
   xmlns:svg="http://www.w3.org/2000/svg"
   xmlns="http://www.w3.org/2000/svg"
   version="1.1"
   width="190.90436"
   height="256">
	<g transform="matrix(0.47163237,0,0,0.47163237,-77.357385,-73.789608)">
		<path d="m 303.03592,682.28906 c 8.1329,0 14.78171,-6.58941 14.78171,-14.78167 0,-8.13294 -6.64881,-14.78174 -14.78171,-14.78174 -8.19229,0 -14.78171,6.6488 -14.78171,14.78174 0,8.19226 6.58942,14.78167 14.78171,14.78167" style="fill:#000000;fill-rule:nonzero"/>
		<path d="m 422.53629,681.99225 c 8.19229,0 14.78173,-6.64881 14.78173,-14.90045 0,-8.19226 -6.58944,-14.84107 -14.78173,-14.84107 -8.13291,0 -14.78171,6.64881 -14.78171,14.84107 0,8.25165 6.6488,14.90045 14.78171,14.90045" style="fill:#000000;fill-rule:nonzero"/>
		<path d="m 273.82867,638.24078 c 0,0 -8.72656,-0.47491 -8.72656,-9.37957 l 0,-0.83112 c 0,-8.78589 8.72656,-9.37958 8.72656,-9.37958 l 177.38059,0 c 0,0 8.6672,0.83112 8.6672,9.37958 l 0,0.83112 c 0,8.60778 -8.6672,9.37957 -8.6672,9.37957 l -177.38059,0 z" style="fill:#000000;fill-rule:nonzero"/>
		<path d="m 397.069,251.89777 c 21.66797,0 39.29919,-17.57184 39.29919,-39.29918 0,-21.66799 -17.63122,-39.18045 -39.29919,-39.18045 -21.66797,0 -39.29919,17.51246 -39.29919,39.18045 0,21.72734 17.63122,39.29918 39.29919,39.29918" style="fill:#000000;fill-rule:nonzero"/>
		<path d="m 183.89172,595.3797 c -1.84028,3.44318 -2.90884,7.42053 -2.90884,11.69476 0,13.77252 11.27922,25.05176 25.17047,25.05176 9.97321,0 18.52167,-5.81769 22.6178,-14.18805 L 314.49322,470.59592 278.93399,434.97733 183.89172,595.3797 z" style="fill:#000000;fill-rule:nonzero"/>
		<path d="m 369.70206,588.7309 c -4.09616,8.37042 -12.64459,14.18811 -22.61783,14.18811 -13.77252,0 -25.05173,-11.27924 -25.05173,-25.05176 0,-4.33362 1.06858,-8.25165 2.90885,-11.75415 l 37.34017,-65.5976 -72.84002,-72.36508 c -27.90125,-28.01996 -8.01419,-58.41449 -8.01419,-58.41449 l 39.2398,-69.21878 -103.94691,0.11871 c -11.51668,0 -20.65878,-9.2608 -20.65878,-20.65875 0,-11.21988 9.1421,-20.5401 20.65878,-20.5401 l 314.57155,0 c 11.39795,0 20.54004,9.32022 20.54004,20.65881 0,11.33857 -9.14209,20.54004 -20.54004,20.54004 l -119.97531,0 -57.28656,100.26636 58.35513,57.64273 c 20.36194,19.59024 7.18307,41.61441 7.18307,41.61441 l -49.86602,88.57153 z" style="fill:#000000;fill-rule:nonzero"/>
	</g>
</svg>
