<?xml version="1.0" encoding="UTF-8" standalone="no"?>
<svg
   xmlns:svg="http://www.w3.org/2000/svg"
   xmlns="http://www.w3.org/2000/svg"
   version="1.1"
   width="255.58501"
   height="256.41074">
	<g transform="translate(202.02964,34.388937)">
		<path d="m -141.97919,186.70126 c -2.58316,-2.58905 -1.51039,-4.27747 7.46331,-11.74639 4.73853,-3.94395 8.92435,-7.44521 9.30179,-7.78058 0.39995,-0.35537 -1.18819,-2.30991 -3.80673,-4.68494 -2.8831,-2.615 -5.23082,-5.58112 -6.55216,-8.27802 l -2.05916,-4.20283 0,-59.894762 0,-59.894764 1.90225,-4.041977 c 3.94218,-8.376478 11.45653,-13.481995 22.08263,-15.003718 5.78281,-0.828133 5.8002,-0.837306 7.11699,-3.7530708 1.56889,-3.4739841 3.20607,-5.0449245 6.846373,-6.56940366 3.683501,-1.54257286 6.821336,-1.41891778 10.607283,0.41800606 3.259111,1.5812874 6.803793,5.8408713 6.803793,8.175968 0,1.1636074 0.841848,1.2992134 8.06559,1.2992134 7.22375,0 8.065606,-0.135606 8.065606,-1.2992134 0,-2.3350967 3.544673,-6.5946806 6.803779,-8.175968 3.785958,-1.83692384 6.923778,-1.96057892 10.607289,-0.41800606 3.640316,1.52447916 5.277491,3.09541956 6.846376,6.56940366 1.316794,2.9157648 1.334191,2.9249378 7.11699,3.7530708 10.626096,1.521723 18.140461,6.62724 22.082633,15.003718 l 1.902251,4.041977 0,59.894764 0,59.894762 -2.059155,4.20283 c -1.32134,2.6969 -3.669061,5.66302 -6.552159,8.27802 -2.618544,2.37503 -4.206695,4.32957 -3.806729,4.68494 0.37745,0.33537 4.563258,3.83663 9.301799,7.78058 6.4811719,5.39437 8.6155146,7.59453 8.6155146,8.88118 0,2.02207 -1.7823456,4.02006 -3.5861835,4.02006 -0.7049556,0 -6.3731351,-4.29449 -12.5959591,-9.54331 l -11.314209,-9.5433 -41.427843,0 -41.427829,0 -11.31421,9.5433 c -6.22282,5.24882 -11.89101,9.54331 -12.59596,9.54331 -0.70494,0 -1.80023,-0.51968 -2.43396,-1.15485 z m 114.913297,-27.73931 c 4.003703,-2.35874 7.508002,-6.78337 8.604303,-10.86403 0.487336,-1.81391 0.6785,-22.61424 0.54777,-59.597765 -0.200161,-56.615564 -0.206305,-56.821502 -1.783474,-59.750991 -3.433396,-6.37728 -9.429082,-9.878719 -16.960948,-9.905077 -4.414514,-0.01544 -4.728636,0.106523 -7.332374,2.847127 -4.565066,4.805042 -11.493734,5.650289 -16.806301,2.050241 -1.294843,-0.877448 -2.752911,-2.341944 -3.240152,-3.254434 -0.847978,-1.588061 -1.283286,-1.659074 -10.170162,-1.659074 -8.886868,0 -9.322176,0.07102 -10.17016,1.659074 -0.487231,0.91249 -1.945313,2.376986 -3.240147,3.254434 -5.312557,3.600048 -12.241234,2.754801 -16.806312,-2.050241 -2.60372,-2.740604 -2.91784,-2.862576 -7.33236,-2.847127 -7.53186,0.02636 -13.52755,3.527797 -16.96094,9.905077 l -1.58263,2.939621 0,58.424953 0,58.424962 2.03275,3.46589 c 1.11801,1.90626 3.17956,4.34261 4.58123,5.41415 5.22845,3.99701 4.63888,3.95299 50.578428,3.77662 l 42.527692,-0.16327 3.513787,-2.07014 z m -84.709377,-9.28006 c -6.71712,-2.15335 -10.93029,-7.65317 -10.93029,-14.26829 0,-11.18425 10.96371,-18.37132 21.03231,-13.78738 10.615018,4.83271 11.2976,20.69514 1.13683,26.4188 -3.26415,1.83873 -8.31465,2.57431 -11.23886,1.63687 z m 9.52177,-9.99008 c 2.843488,-3.25958 1.86002,-8.58358 -2.00871,-10.87409 -2.56224,-1.517 -4.58704,-1.54835 -7.35473,-0.11386 -4.13732,2.14436 -4.98524,7.47726 -1.79339,11.27922 2.93762,3.49911 7.96478,3.36786 11.15683,-0.29127 z m 57.993575,10.00553 c -8.374156,-2.69757 -12.863491,-11.29039 -10.170899,-19.46759 2.617802,-7.95008 11.857067,-12.11038 19.648577,-8.84746 11.110276,4.65273 12.365216,20.37379 2.107323,26.399 -3.480487,2.04434 -8.572405,2.8865 -11.585001,1.91605 z m 9.288875,-9.75365 c 3.158518,-3.76223 2.290128,-9.10622 -1.826459,-11.23983 -2.767695,-1.43449 -4.792507,-1.40314 -7.354734,0.11386 -5.550792,3.28639 -4.472305,11.72425 1.703564,13.32822 3.361522,0.87305 5.39976,0.27277 7.477629,-2.20225 z m -82.50456,-40.459911 c -1.33321,-0.909441 -3.11428,-2.587 -3.95792,-3.727906 -1.46096,-1.975718 -1.5339,-2.954277 -1.5339,-20.577357 0,-20.648837 0.21437,-21.703062 5.01812,-24.678702 1.94843,-1.20694 3.68242,-1.540757 8.00323,-1.540757 l 5.51589,0 0.27757,-5.509238 c 0.24375,-4.837895 0.52361,-5.755821 2.29653,-7.532786 l 2.018936,-2.023537 25.629923,0 25.629942,0 2.018939,2.023537 c 1.772921,1.776965 2.052762,2.694891 2.296513,7.532786 l 0.277573,5.509238 5.515894,0 c 4.320802,0 6.054803,0.333817 8.003237,1.540757 4.803739,2.97564 5.018109,4.029865 5.018109,24.678702 0,17.62308 -0.07293,18.601639 -1.533892,20.577357 -0.843638,1.140906 -2.624709,2.818465 -3.957918,3.727906 l -2.424046,1.653541 -40.844351,0 -40.844349,0 -2.42403,-1.653541 z m 83.449725,-6.577406 c 1.248984,-1.251826 1.248984,-34.464561 0,-35.716387 -1.269255,-1.272149 -79.093415,-1.272149 -80.362675,0 -1.24899,1.251826 -1.24899,34.464561 0,35.716387 1.26926,1.272149 79.09342,1.272149 80.362675,0 z m -17.451021,-47.989302 0,-4.041975 -22.730325,0 -22.730316,0 0,4.041975 0,4.041975 22.730316,0 22.730325,0 0,-4.041975 z M -90.888341,16.789858 c 2.061329,-1.814212 1.702856,-6.343205 -0.648816,-8.1972419 -2.209749,-1.7421431 -3.137632,-1.8552745 -5.682937,-0.6929117 -2.684327,1.2258402 -3.941546,4.7209976 -2.575559,7.1602156 2.046639,3.654647 5.875509,4.398274 8.907312,1.729938 z m 41.427825,-0.634449 c 0.907383,-1.00037 1.649786,-2.280913 1.649786,-2.845651 0,-1.996575 -1.650779,-4.6187239 -3.414913,-5.424347 -2.512502,-1.1473788 -3.447731,-1.0303449 -5.65165,0.7072051 -4.403136,3.4713929 -1.052449,11.0625829 4.300522,9.7431179 0.806567,-0.198811 2.208882,-1.179957 3.116255,-2.180325 z" style="fill:#000000;fill-opacity:1;stroke:none"/>
    		<path d="m -54.237297,145.62712 a 72.406776,64.81356 0 1 1 -144.813553,0 72.406776,64.81356 0 1 1 144.813553,0 z" transform="matrix(1.6089654,0,0,1.7974634,129.52325,-167.93918)" style="fill:none;stroke:#000000;stroke-width:4.1161828;stroke-linecap:square;stroke-linejoin:round;stroke-miterlimit:0;stroke-opacity:1;stroke-dasharray:none;stroke-dashoffset:0"/>
  	</g>
</svg>
