<?xml version="1.0" encoding="UTF-8" standalone="no"?>
<svg
   xmlns:svg="http://www.w3.org/2000/svg"
   xmlns="http://www.w3.org/2000/svg"
   version="1.1"
   width="192"
   height="256">
	<path d="m 9.5608603,246.52628 c -3.2964,-3.3039 -1.92743,-5.45852 9.5239797,-14.98967 6.04689,-5.03291 11.38844,-9.5009 11.8701,-9.92886 0.51039,-0.4535 -1.51626,-2.9477 -4.8578,-5.9785 -3.67915,-3.33702 -6.6751,-7.12211 -8.36127,-10.56365 l -2.62771,-5.36326 0,-76.43223 0,-76.432226 2.42749,-5.158003 c 5.03064,-10.689296 14.61977,-17.20449 28.17982,-19.146375 7.3795,-1.056787 7.40169,-1.068493 9.08206,-4.789326 2.00207,-4.433181 4.09129,-6.437872 8.73671,-8.3832731 4.70055,-1.968491 8.70477,-1.810694 13.53605,0.533421 4.15898,2.0178951 8.68238,7.4535861 8.68238,10.4334241 0,1.484889 1.07429,1.657937 10.29257,1.657937 9.21829,0 10.29259,-0.173048 10.29259,-1.657937 0,-2.979838 4.52339,-8.415529 8.68236,-10.4334241 4.8313,-2.344115 8.8355,-2.501912 13.53605,-0.533421 4.64544,1.9454011 6.73465,3.9500921 8.73672,8.3832731 1.68037,3.720833 1.70257,3.732539 9.08205,4.789326 13.56006,1.941885 23.1492,8.457079 28.17984,19.146375 l 2.42748,5.158003 0,76.432226 0,76.43223 -2.62771,5.36326 c -1.68617,3.44154 -4.68211,7.22663 -8.36126,10.56365 -3.34155,3.0308 -5.3682,5.525 -4.8578,5.9785 0.48166,0.42796 5.82321,4.89595 11.8701,9.92886 C 181.27635,238.42042 184,241.22805 184,242.86996 184,245.45035 181.72553,248 179.42364,248 c -0.8996,0 -8.13281,-5.48024 -16.07381,-12.17831 l -14.43816,-12.17829 -52.86643,0 -52.86641,0 -14.43817,12.17829 C 20.79967,242.51976 13.56645,248 12.66685,248 c -0.89958,0 -2.29729,-0.66317 -3.1059897,-1.47372 z M 156.2027,211.12791 c 5.10916,-3.01002 9.58103,-8.65632 10.98003,-13.86368 0.62189,-2.31475 0.86584,-28.85824 0.69901,-76.05323 -0.25542,-72.247608 -0.26326,-72.510407 -2.2759,-76.248753 -4.38139,-8.138103 -12.03253,-12.606321 -21.64402,-12.639956 -5.63339,-0.01971 -6.03425,0.135935 -9.3569,3.633243 -5.82551,6.131757 -14.66725,7.210383 -21.44666,2.616331 -1.65236,-1.119719 -3.51302,-2.988574 -4.13479,-4.153012 -1.08211,-2.026539 -1.63761,-2.117158 -12.97823,-2.117158 -11.34061,0 -11.89611,0.09062 -12.97823,2.117158 -0.62176,1.164438 -2.48243,3.033293 -4.13478,4.153012 -6.7794,4.594052 -15.62115,3.515426 -21.44668,-2.616331 -3.32263,-3.497308 -3.72348,-3.652957 -9.35689,-3.633243 -9.61147,0.03364 -17.26263,4.501853 -21.644,12.639956 l -2.01962,3.751275 0,74.556588 0,74.55659 2.59402,4.42286 c 1.4267,2.43258 4.05746,5.54164 5.84615,6.90904 6.67206,5.10062 5.91971,5.04444 64.54357,4.81937 l 54.26995,-0.20835 4.48397,-2.64171 z M 48.10434,199.28554 c -8.57178,-2.74791 -13.94824,-9.76627 -13.94824,-18.20788 0,-14.27232 13.99089,-23.44381 26.83952,-17.5942 13.54591,6.16706 14.41696,26.40924 1.45072,33.71326 -4.16541,2.34641 -10.6104,3.28509 -14.34201,2.08882 z m 12.15081,-12.74843 c 3.6286,-4.15957 2.37359,-10.95358 -2.56333,-13.87652 -3.26969,-1.93585 -5.85356,-1.97585 -9.38544,-0.14529 -5.27967,2.73644 -6.36171,9.5418 -2.28856,14.3935 3.74873,4.46525 10.16393,4.29776 14.23733,-0.37169 z m 74.0061,12.76815 c -10.68632,-3.44239 -16.4152,-14.40776 -12.97917,-24.84276 3.34061,-10.14517 15.1309,-15.45417 25.07372,-11.29033 14.17792,5.93739 15.77936,25.99918 2.68917,33.688 -4.44148,2.6088 -10.93932,3.68349 -14.78372,2.44509 z m 11.85361,-12.44672 c 4.03062,-4.80102 2.92246,-11.62052 -2.33075,-14.34324 -3.53188,-1.83056 -6.11576,-1.79056 -9.38545,0.14529 -7.0834,4.1938 -5.70713,14.96143 2.17394,17.00827 4.28967,1.1141 6.89068,0.34807 9.54226,-2.81032 z M 40.83008,135.2273 c -1.70132,-1.16055 -3.97415,-3.3013 -5.05073,-4.75722 -1.86434,-2.52123 -1.95742,-3.76998 -1.95742,-26.25893 0,-26.350161 0.27356,-27.695476 6.40366,-31.492713 2.48641,-1.540178 4.69918,-1.966177 10.21299,-1.966177 l 7.03888,0 0.35421,-7.030385 c 0.31106,-6.173678 0.66817,-7.345055 2.93061,-9.612642 l 2.57639,-2.582255 32.70657,0 32.70659,0 2.57638,2.582255 c 2.26244,2.267587 2.61955,3.438964 2.9306,9.612642 l 0.35422,7.030385 7.03887,0 c 5.51382,0 7.72659,0.425999 10.213,1.966177 6.1301,3.797237 6.40366,5.142552 6.40366,31.492713 0,22.48895 -0.0931,23.7377 -1.95742,26.25893 -1.07657,1.45592 -3.34941,3.59667 -5.05073,4.75722 l -3.09334,2.11009 -52.12183,0 -52.12183,0 -3.09333,-2.11009 z M 147.321,126.83382 c 1.59384,-1.59747 1.59384,-43.980523 0,-45.577991 -1.61971,-1.623396 -100.9318,-1.623396 -102.5515,0 -1.59385,1.597468 -1.59385,43.980521 0,45.577991 1.6197,1.6234 100.93179,1.6234 102.5515,0 z m -22.2694,-61.239562 0,-5.158003 -29.00636,0 -29.00635,0 0,5.158003 0,5.158002 29.00635,0 29.00636,0 0,-5.158002 z M 74.75833,29.700872 c 2.63048,-2.315132 2.17303,-8.09462 -0.82796,-10.460572 -2.81988,-2.223164 -4.00396,-2.367532 -7.25205,-0.884231 -3.42549,1.564306 -5.02983,6.024507 -3.28669,9.137213 2.61174,4.663728 7.49779,5.612676 11.3667,2.20759 z m 52.86641,-0.809627 c 1.15792,-1.27658 2.1053,-2.910692 2.1053,-3.63136 0,-2.547846 -2.10657,-5.893993 -4.3578,-6.922056 -3.20622,-1.464179 -4.39968,-1.314831 -7.21212,0.902471 -5.61888,4.429875 -1.34304,14.117059 5.48794,12.433278 1.02926,-0.253704 2.81877,-1.505754 3.97668,-2.782333 z" style="fill:#000000"/>
</svg>
