<?xml version="1.0" encoding="UTF-8" standalone="no"?>
<svg
   xmlns:svg="http://www.w3.org/2000/svg"
   xmlns="http://www.w3.org/2000/svg"
   version="1.1"
   width="180"
   height="256">
	<path d="m 12.171485,246.15852 c -2.825046,-3.108 -1.091185,-5.69206 9.778424,-14.57335 l 10.314414,-8.42765 -5.43707,-2.59814 C 20.444795,217.50949 13.358334,210.37504 10.418682,204.03972 8.3829772,199.65252 8.3589483,198.98597 8.0742342,138.9985 7.8651273,94.9416 8.0863152,77.369346 8.8841597,74.652823 13.08368,60.354244 32.727084,48.731055 61.450258,43.548953 c 4.801547,-0.866274 8.727274,-1.838454 8.723829,-2.160403 -0.01982,-1.853206 -3.786791,-22.058911 -4.186705,-22.457076 -0.779166,-0.775765 -10.952416,1.532055 -14.613485,3.315096 -2.139267,1.041886 -3.979419,2.931255 -5.031757,5.166349 -1.335316,2.836144 -2.173282,3.523756 -4.294259,3.523756 -7.496369,0 -6.326623,-9.95714 1.811875,-15.423025 C 52.166344,9.934876 64.048143,8 90,8 c 25.95185,0 37.83366,1.934876 46.14025,7.51365 6.46146,4.339574 8.87479,11.928983 4.71556,14.82948 -2.74023,1.91095 -5.48305,0.701909 -7.33941,-3.235227 -0.91248,-1.935324 -2.86242,-3.873694 -4.89029,-4.861333 -3.66107,-1.783041 -13.83433,-4.090861 -14.61349,-3.315096 -0.39991,0.398165 -4.16689,20.60387 -4.1867,22.457076 -0.004,0.321949 3.92228,1.294129 8.72383,2.160403 28.72318,5.182102 48.36658,16.805291 52.56608,31.10387 0.79787,2.716523 1.01904,20.288777 0.80993,64.345677 -0.28471,59.98747 -0.30873,60.65402 -2.34444,65.04122 -2.93965,6.33532 -10.02612,13.46977 -16.40856,16.51966 l -5.43709,2.59814 10.31442,8.42765 c 5.76655,4.71171 10.56527,9.37657 10.88333,10.57976 0.66083,2.49982 -1.87292,5.83507 -4.43283,5.83507 -0.90976,0 -8.21937,-5.49706 -16.24359,-12.21569 l -14.58948,-12.21568 -43.66752,0 -43.667524,0 L 31.743,235.78431 C 23.718777,242.50294 16.409164,248 15.499413,248 c -0.90976,0 -2.407323,-0.82867 -3.327928,-1.84148 z M 150.60672,211.09707 c 5.02733,-2.94231 8.85583,-7.46512 10.71879,-12.66265 1.89142,-5.27694 1.92892,-118.286539 0.0407,-122.658775 -4.17013,-9.656116 -21.91974,-18.763762 -44.5215,-22.844795 -13.04811,-2.355997 -40.633622,-2.354654 -53.742814,0.0026 -24.066273,4.327553 -43.446858,15.0849 -45.287481,25.137175 -0.316048,1.726058 -0.448622,29.355015 -0.294614,61.397695 l 0.280023,58.25943 2.616478,4.43157 c 1.439058,2.43738 4.092619,5.55258 5.896792,6.92267 6.729858,5.11068 5.970982,5.05439 65.102596,4.82888 l 54.74,-0.20877 4.45103,-2.60504 z M 42.097392,203.85705 c -4.202343,-0.99278 -8.914409,-4.3624 -11.641461,-8.32488 -1.882395,-2.73517 -2.274382,-4.46408 -2.274382,-10.03159 0,-5.8161 0.353159,-7.23424 2.608409,-10.47434 8.561364,-12.30006 26.692301,-10.66915 32.911265,2.96042 4.612798,10.10949 -1.023241,22.2083 -11.834449,25.40485 -5.118162,1.51329 -5.298058,1.52186 -9.769382,0.46554 z m 9.225984,-9.89769 c 1.516091,-0.78057 3.193834,-2.23276 3.728304,-3.22707 1.414283,-2.63105 1.189085,-8.72167 -0.406331,-10.98948 -3.096482,-4.40153 -11.586345,-5.18593 -15.037287,-1.38935 -4.153548,4.56955 -3.358252,12.17601 1.586951,15.17807 3.641399,2.21057 6.436471,2.32864 10.128363,0.42783 z m 76.548114,9.42965 c -14.14273,-4.46416 -17.70069,-22.30971 -6.41498,-32.1754 11.39191,-9.95851 29.37784,-2.69971 30.63241,12.36269 0.52359,6.28627 -0.88697,10.63165 -4.71736,14.53233 -5.57957,5.68199 -12.38747,7.52548 -19.50007,5.28038 z m 10.9335,-9.85748 c 4.94519,-3.00206 5.74049,-10.60852 1.58696,-15.17807 -3.45096,-3.79658 -11.94081,-3.01218 -15.03731,1.38935 -1.59338,2.26495 -1.82117,8.35737 -0.41057,10.98158 1.23047,2.28911 5.4166,4.56891 8.47041,4.61306 1.29771,0.0188 3.72344,-0.7939 5.39051,-1.80592 z M 38.350968,151.26079 c -4.34815,-1.05614 -7.517294,-3.36137 -9.441933,-6.86805 -1.473931,-2.68552 -1.671279,-5.83858 -1.671279,-26.70343 0,-22.42941 0.10109,-23.79313 1.945903,-26.252643 3.87799,-5.170137 6.603079,-6.436284 14.634193,-6.7994 l 7.48663,-0.338506 0.0038,-5.773424 c 0.0047,-7.443483 2.239149,-11.369389 7.261781,-12.758037 4.789165,-1.324102 58.071247,-1.324102 62.860427,0 5.02263,1.388648 7.25722,5.314554 7.26177,12.758037 l 0.004,5.773424 7.48663,0.338506 c 8.03112,0.363116 10.7562,1.629263 14.63419,6.7994 1.84483,2.459513 1.9459,3.823233 1.9459,26.252643 0,22.10268 -0.12631,23.87244 -1.92098,26.91395 -1.05655,1.79057 -3.39244,4.11625 -5.19086,5.16818 -3.16899,1.85357 -4.82788,1.91746 -53.762807,2.07061 -27.771113,0.0869 -51.862594,-0.17464 -53.536628,-0.58126 z M 141.71986,140.6899 c 0.81598,-0.8124 1.13255,-7.23853 1.13255,-22.98881 0,-20.65181 -0.10097,-21.91501 -1.82554,-22.83392 C 139.83544,94.23232 122.11086,93.89443 90,93.89443 c -32.110863,0 -49.835448,0.33789 -51.026874,0.97274 -1.724546,0.91891 -1.825542,2.18211 -1.825542,22.83392 0,15.75028 0.316586,22.17641 1.132552,22.98881 0.852708,0.84897 13.632573,1.1276 51.719864,1.1276 38.0873,0 50.86716,-0.27863 51.71986,-1.1276 z m -22.46227,-60.890486 0,-4.698338 -29.25759,0 -29.257587,0 0,4.698338 0,4.698341 29.257587,0 29.25759,0 0,-4.698341 z M 102.01937,29.76209 c 1.0582,-6.331014 1.7243,-11.72236 1.48021,-11.980769 C 103.25551,17.522913 97.18069,17.311487 90,17.311487 c -7.180689,0 -13.255509,0.211426 -13.499582,0.469834 -0.244084,0.258409 0.422016,5.649755 1.480216,11.980769 l 1.923997,11.510934 10.095369,0 10.09537,0 1.924,-11.510934 z" style="fill:#000000" />
</svg>
