<?xml version="1.0" encoding="UTF-8" standalone="no"?>
<svg
   xmlns:svg="http://www.w3.org/2000/svg"
   xmlns="http://www.w3.org/2000/svg"
   version="1.1"
   width="256"
   height="244.34538">
	<g transform="matrix(0.93749999,0,0,0.93749999,-223.5625,-376.91685)">
	      <path d="M 333.93702,654.14639 V 546.8917 c -6.21803,7.1168 -12.03847,13.06878 -17.56716,17.96324 -5.55662,4.81508 -9.81539,8.83647 -15.53074,11.13819 -5.92554,2.30171 -14.17999,4.49761 -19.15382,2.40754 -4.97457,-2.27599 -8.14863,-6.5083 -10.34452,-15.55643 -2.16944,-9.20686 -2.59275,-27.19803 -2.80366,-38.68015 -0.34467,-11.56076 -2.56629,-23.81013 1.18981,-29.49901 3.78328,-5.66169 16.98511,-6.71996 21.1388,-3.99494 4.02213,2.75149 2.43474,11.77315 3.20198,20.34506 0.68787,8.59837 1.08398,18.62538 1.1898,30.68956 4.36461,-4.49761 8.9166,-8.91585 13.94335,-13.54574 5.02675,-4.65635 9.39135,-11.13819 15.95258,-13.94258 6.48186,-2.80439 14.63048,-3.70391 22.72619,-2.80439 8.06926,0.89952 16.77347,7.80467 25.10729,7.96341 8.25445,-0.0264 16.61473,-5.26485 23.9432,-7.56656 7.144,-2.27526 11.5086,3.01604 19.12809,-5.97917 7.64595,-9.15396 18.99655,-35.02842 26.29783,-48.23022 7.14328,-13.30763 10.71491,-25.92738 16.74701,-30.71601 6.00564,-4.6828 16.53536,-2.01069 19.15382,2.40754 2.46119,4.28596 3.20125,8.04278 -3.99494,23.51984 -7.32847,15.58289 -29.23451,53.46861 -39.07636,68.97212 -9.86829,15.2926 -16.24432,22.83197 -19.52494,22.72688 v 109.63578 c -27.22381,6.8e-4 -54.47408,6.8e-4 -81.72361,6.8e-4 z" style="fill:#000000;fill-rule:evenodd;overflow:visible"/>
	      <path d="m 377.78364,438.79628 c 17.59803,0 31.88017,14.29387 31.88017,31.90655 0,17.61195 -14.28214,31.90655 -31.88017,31.90655 -17.59729,0 -31.88016,-14.2946 -31.88016,-31.90655 0,-17.61268 14.28287,-31.90655 31.88016,-31.90655" style="fill:#000000;fill-rule:evenodd;overflow:visible"/>
	      <path d="m 251.39252,499.05833 v 5.58233 h 52.22453 v -5.58233 h -52.22453 z" style="fill:#000000;fill-rule:evenodd;overflow:visible"/>
	      <path d="m 305.76004,483.10506 c -3.59809,0 -6.53477,2.91021 -6.53477,6.5083 0,7.88404 0,15.76808 0,23.65212 0,3.59808 2.93668,6.53475 6.53477,6.53475 0.95244,0 1.93133,0 2.91022,0 3.59809,0 6.50832,-2.93667 6.50832,-6.53475 0,-7.88404 0,-15.76808 0,-23.65212 0,-3.59809 -2.91023,-6.5083 -6.50832,-6.5083 -0.97889,0 -1.95778,0 -2.91022,0 z" style="fill:#000000;fill-rule:evenodd;overflow:visible"/>
	      <path d="m 253.53551,483.10506 c -3.5981,0 -6.53551,2.91021 -6.53551,6.5083 0,7.88404 0,15.76808 0,23.65212 0,3.59808 2.93668,6.53475 6.53551,6.53475 0.9517,0 1.93059,0 2.90948,0 3.5981,0 6.50832,-2.93667 6.50832,-6.53475 0,-7.88404 0,-15.76808 0,-23.65212 0,-3.59809 -2.91022,-6.5083 -6.50832,-6.5083 -0.97889,0 -1.95778,0 -2.90948,0 z" style="fill:#000000;fill-rule:evenodd;overflow:visible"/>
	      <path d="m 440.15941,424.90073 -2.22161,5.13257 47.96576,20.66253 2.22235,-5.13256 -47.9665,-20.66254 z" style="fill:#000000;fill-rule:evenodd;overflow:visible"/>
	      <path d="m 496.37962,431.75297 c -3.30707,-1.4022 -7.14327,0.10582 -8.57193,3.41289 -3.09541,7.24909 -6.21729,14.47171 -9.33917,21.72079 -1.42791,3.30706 0.10657,7.14326 3.41364,8.57191 0.87306,0.37039 1.77258,0.76724 2.67211,1.13763 3.30707,1.42866 7.14327,-0.10582 8.54547,-3.41289 3.12187,-7.22262 6.24375,-14.47171 9.36562,-21.69434 1.42867,-3.30706 -0.10582,-7.14326 -3.41289,-8.5719 -0.8738,-0.39685 -1.77259,-0.76724 -2.67285,-1.16409 z" style="fill:#000000;fill-rule:evenodd;overflow:visible"/>
	      <path d="m 448.41386,411.11689 c -3.30707,-1.42865 -7.14327,0.0794 -8.57193,3.38643 -3.09541,7.24909 -6.21729,14.47171 -9.33917,21.7208 -1.42865,3.30706 0.10583,7.14326 3.4129,8.57191 0.87307,0.37039 1.77259,0.76724 2.67285,1.13763 3.30707,1.42865 7.14327,-0.10583 8.54547,-3.38643 3.12187,-7.24909 6.24375,-14.49817 9.36563,-21.7208 1.42792,-3.30706 -0.10656,-7.14326 -3.41363,-8.57191 -0.87234,-0.37039 -1.77259,-0.76724 -2.67212,-1.13763 z" style="fill:#000000;fill-rule:evenodd;overflow:visible"/>
	</g>
</svg>
