<?xml version="1.0" encoding="UTF-8" standalone="no"?>
<svg
   xmlns:svg="http://www.w3.org/2000/svg"
   xmlns="http://www.w3.org/2000/svg"
   version="1.1"
   width="158.02249"
   height="256">
	<g transform="matrix(0.49911525,0,0,0.49911525,-106.48715,-35.695494)" style="fill:#000000;fill-opacity:1">
		<path d="m 385.84402,167.03941 c 21.9448,1.7502 41.12964,-14.67473 42.87983,-36.5522 1.75021,-21.94478 -14.60739,-41.129643 -36.55219,-42.81252 -21.94479,-1.750198 -41.19696,14.5401 -42.87985,36.5522 -1.68286,21.94479 14.67474,41.12965 36.55222,42.81252" style="fill:#000000;fill-opacity:1;fill-rule:nonzero"/>
		<path d="m 352.11908,183.39702 c 7.80856,-5.45255 17.50195,-9.08756 27.93582,-8.34709 13.66501,1.21167 24.97397,9.62608 31.70551,19.99264 l 40.25454,79.7013 54.79465,37.69656 c 4.71207,3.56769 7.53928,9.49145 7.06809,15.81909 -0.74048,9.82803 -9.42414,17.2327 -19.38681,16.42493 -2.96186,-0.13465 -5.31788,-1.34631 -8.21244,-2.62531 L 426.50247,300.9295 c -1.88485,-1.61557 -3.29846,-3.29843 -4.51013,-5.38522 l -15.07864,-29.88797 -17.97318,79.56665 70.68106,83.47095 c 1.54825,2.6253 2.62528,5.51987 3.29846,8.54904 l 19.05021,100.83829 c -0.0673,2.22143 0.26925,3.70239 0.13464,5.51989 -1.21167,14.87665 -14.20352,25.91639 -29.0802,24.70472 -12.2514,-0.87513 -21.40628,-10.09729 -24.30084,-21.27167 l -18.0405,-94.51065 -57.28528,-62.87247 -13.46307,61.2569 c -0.33658,2.89456 -4.17355,8.95294 -5.38522,11.4436 l -54.99659,92.82776 c -5.58715,8.54907 -14.74206,13.93427 -25.31054,13.12653 -14.87668,-1.14441 -25.98371,-14.20355 -24.77202,-29.01294 0.33656,-4.24085 2.08676,-8.54901 3.5677,-11.57819 l 51.29425,-86.02896 42.61057,-189.29057 -27.86853,22.61793 -14.74204,67.44992 c -1.95215,8.54905 -9.82803,15.61716 -19.18487,14.87668 -9.82802,-0.8078 -17.30002,-9.35684 -16.55954,-19.38681 l 0.40388,-2.35602 17.63661,-78.62426 c 0.8751,-3.5004 2.82724,-6.39495 5.51984,-8.68367 l 79.97058,-64.89194 z" style="fill:#000000;fill-opacity:1;fill-rule:nonzero"/>
	</g>
</svg>
